<?xml version="1.0"?>
<svg width="278" height="310" xmlns="http://www.w3.org/2000/svg" xmlns:svg="http://www.w3.org/2000/svg">
 <defs>
  <filter color-interpolation-filters="sRGB" filterUnits="userSpaceOnUse" height="304.01" id="filter0_d_153_20812" width="213.93" x="23.06" y="0.02">
   <feFlood flood-opacity="0" result="BackgroundImageFix"/>
   <feColorMatrix in="SourceAlpha" result="hardAlpha" type="matrix" values="0 0 0 0 0 0 0 0 0 0 0 0 0 0 0 0 0 0 127 0"/>
   <feOffset dy="4"/>
   <feGaussianBlur stdDeviation="2"/>
   <feComposite in2="hardAlpha" operator="out"/>
   <feColorMatrix type="matrix" values="0 0 0 0 0 0 0 0 0 0 0 0 0 0 0 0 0 0 0.25 0"/>
   <feBlend in2="BackgroundImageFix"/>
   <feBlend in="SourceGraphic" in2="effect1_dropShadow_153_20812"/>
  </filter>
  <linearGradient id="paint0_linear_153_20812" x1="-0.01" x2="1.66" y1="-0.19" y2="0.77">
   <stop offset="0.33" stop-color="#A27CFE"/>
   <stop offset="0.67" stop-color="#71CCFF"/>
  </linearGradient>
  <linearGradient id="paint4_linear_153_20812" x1="0" x2="1.11" y1="-0.18" y2="1.2">
   <stop offset="0.33" stop-color="#A27CFE"/>
   <stop offset="0.67" stop-color="#71CCFF"/>
  </linearGradient>
  <linearGradient id="paint5_linear_153_20812" x1="0" x2="1.15" y1="-0.18" y2="1.17">
   <stop offset="0.33" stop-color="#A27CFE"/>
   <stop offset="0.67" stop-color="#71CCFF"/>
  </linearGradient>
  <linearGradient id="paint6_linear_153_20812" x1="0" x2="1.15" y1="-0.18" y2="1.17">
   <stop offset="0.33" stop-color="#A27CFE"/>
   <stop offset="0.67" stop-color="#71CCFF"/>
  </linearGradient>
  <linearGradient id="paint7_linear_153_20812" x1="0" x2="1.15" y1="-0.18" y2="1.17">
   <stop offset="0.33" stop-color="#A27CFE"/>
   <stop offset="0.67" stop-color="#71CCFF"/>
  </linearGradient>
 </defs>
 <g class="layer">
  <title>Layer 1</title>
  <g filter="url(#filter0_d_153_20812)" id="svg_1">
   <rect fill="white" height="295.78" id="svg_2" rx="12" transform="matrix(0.999999 0.00124497 -0.000865654 1 27.301 0)" width="205.7" x="8.5" y="1.49"/>
  </g>
  <rect fill="white" height="280.62" id="svg_3" rx="11" stroke="url(#paint0_linear_153_20812)" stroke-width="2" transform="matrix(0.999999 0.00105923 -0.00101745 0.999999 34.1646 6.39543)" width="190.13" x="9" y="2.49"/>
  <path d="m262.92,55.1c1.14,4.4 4.58,7.84 8.98,8.98c1.47,0.38 1.47,2.46 0,2.84c-4.4,1.14 -7.84,4.58 -8.98,8.98c-0.38,1.47 -2.46,1.47 -2.84,0c-1.14,-4.4 -4.58,-7.84 -8.98,-8.98c-1.47,-0.38 -1.47,-2.46 0,-2.84c4.4,-1.14 7.84,-4.58 8.98,-8.98c0.38,-1.47 2.46,-1.47 2.84,0z" fill="url(#paint4_linear_153_20812)" id="svg_8"/>
  <path d="m9.04,157.79c0.79,3.17 3.2,5.65 6.28,6.47c1.03,0.27 1.03,1.77 0,2.04c-3.08,0.82 -5.49,3.3 -6.28,6.46c-0.27,1.06 -1.72,1.06 -1.99,0c-0.8,-3.16 -3.2,-5.64 -6.28,-6.46c-1.03,-0.27 -1.03,-1.77 0,-2.04c3.08,-0.82 5.48,-3.3 6.28,-6.47c0.27,-1.05 1.72,-1.05 1.99,0z" fill="url(#paint5_linear_153_20812)" id="svg_9"/>
  <path d="m260.44,296.65c0.66,2.61 2.64,4.65 5.18,5.33c0.84,0.22 0.84,1.45 0,1.68c-2.54,0.67 -4.52,2.71 -5.18,5.32c-0.21,0.87 -1.42,0.87 -1.63,0c-0.66,-2.61 -2.64,-4.65 -5.18,-5.32c-0.84,-0.23 -0.84,-1.46 0,-1.68c2.54,-0.68 4.52,-2.72 5.18,-5.33c0.21,-0.87 1.42,-0.87 1.63,0z" fill="url(#paint6_linear_153_20812)" id="svg_10"/>
  <path d="m271.44,89.65c0.66,2.61 2.64,4.65 5.18,5.33c0.84,0.22 0.84,1.45 0,1.68c-2.54,0.67 -4.52,2.71 -5.18,5.32c-0.21,0.87 -1.42,0.87 -1.63,0c-0.66,-2.61 -2.64,-4.65 -5.18,-5.32c-0.84,-0.23 -0.84,-1.46 0,-1.68c2.54,-0.68 4.52,-2.72 5.18,-5.33c0.21,-0.87 1.42,-0.87 1.63,0z" fill="url(#paint7_linear_153_20812)" id="svg_11"/>
 </g>
</svg>