<?xml version="1.0" encoding="utf-8"?>
<svg viewBox="77.8915 39.951 274.2503 333.6355" xmlns="http://www.w3.org/2000/svg">
  <defs>
    <filter id="filter0_d_830_4118" x="32.0552" y="14.0151" width="213.934" height="304.008" filterUnits="userSpaceOnUse" color-interpolation-filters="sRGB">
      <feFlood flood-opacity="0" result="BackgroundImageFix"/>
      <feColorMatrix in="SourceAlpha" type="matrix" values="0 0 0 0 0 0 0 0 0 0 0 0 0 0 0 0 0 0 127 0" result="hardAlpha"/>
      <feOffset dy="4"/>
      <feGaussianBlur stdDeviation="2"/>
      <feComposite in2="hardAlpha" operator="out"/>
      <feColorMatrix type="matrix" values="0 0 0 0 0 0 0 0 0 0 0 0 0 0 0 0 0 0 0.25 0"/>
      <feBlend mode="normal" in2="BackgroundImageFix" result="effect1_dropShadow_830_4118"/>
      <feBlend mode="normal" in="SourceGraphic" in2="effect1_dropShadow_830_4118" result="shape"/>
    </filter>
  </defs>
  <g filter="url(#filter0_d_830_4118)" transform="matrix(1, 0, 0, 1, 77.8917007446289, 39.951297760009766)">
    <rect width="205.699" height="295.782" rx="12" transform="matrix(0.999999 0.00124497 -0.000865654 1 36.3008 14)" fill="#FFFAD9"/>
  </g>
  <rect x="0.999" y="1.001" width="190.128" height="280.616" rx="11" transform="matrix(0.9999989867210388, 0.0010590000310912728, -0.0010170000605285168, 0.9999989867210388, 121.05628967285156, 60.34669876098633)" fill="#FFFAD9" stroke="#6F615E" stroke-width="2"/>
  <path d="M 342.929 135.742 C 343.726 138.913 346.132 141.387 349.211 142.207 C 350.237 142.479 350.237 143.979 349.211 144.251 C 346.13 145.071 343.726 147.547 342.929 150.716 C 342.664 151.772 341.208 151.772 340.943 150.716 C 340.146 147.547 337.74 145.071 334.661 144.251 C 333.634 143.979 333.634 142.479 334.661 142.207 C 337.74 141.387 340.146 138.911 340.943 135.742 C 341.208 134.688 342.664 134.688 342.929 135.742 Z" fill="#6F615E"/>
  <path d="M 86.93 343.742 C 87.726 346.912 90.132 349.387 93.212 350.207 C 94.238 350.479 94.238 351.979 93.212 352.251 C 90.131 353.071 87.726 355.547 86.93 358.716 C 86.665 359.772 85.208 359.772 84.943 358.716 C 84.146 355.547 81.74 353.071 78.661 352.251 C 77.635 351.979 77.635 350.479 78.661 350.207 C 81.74 349.387 84.146 346.911 84.943 343.742 C 85.208 342.687 86.665 342.687 86.93 343.742 Z" fill="#6F615E"/>
  <path d="M 104.335 40.602 C 104.991 43.214 106.972 45.251 109.508 45.926 C 110.353 46.151 110.353 47.386 109.508 47.61 C 106.971 48.285 104.991 50.324 104.335 52.934 C 104.117 53.804 102.917 53.804 102.698 52.934 C 102.043 50.324 100.061 48.285 97.525 47.61 C 96.68 47.386 96.68 46.151 97.525 45.926 C 100.061 45.251 102.043 43.212 102.698 40.602 C 102.917 39.734 104.117 39.734 104.335 40.602 Z" fill="#6F615E"/>
  <path d="M 346.334 360.602 C 346.99 363.213 348.972 365.251 351.508 365.926 C 352.353 366.151 352.353 367.385 351.508 367.61 C 348.97 368.285 346.99 370.324 346.334 372.934 C 346.116 373.804 344.916 373.804 344.698 372.934 C 344.042 370.324 342.061 368.285 339.525 367.61 C 338.68 367.385 338.68 366.151 339.525 365.926 C 342.061 365.251 344.042 363.212 344.698 360.602 C 344.916 359.734 346.116 359.734 346.334 360.602 Z" fill="#6F615E"/>
</svg>