<?xml version="1.0" encoding="utf-8"?>
<svg viewBox="53.9309 -0.4562 368.4245 421.2645" xmlns="http://www.w3.org/2000/svg">
  <defs>
    <filter id="filter0_dddd_0_1" x="247" y="287" width="74.627" height="113.032" filterUnits="userSpaceOnUse" color-interpolation-filters="sRGB">
      <feFlood flood-opacity="0" result="BackgroundImageFix"/>
      <feColorMatrix in="SourceAlpha" type="matrix" values="0 0 0 0 0 0 0 0 0 0 0 0 0 0 0 0 0 0 127 0" result="hardAlpha"/>
      <feOffset dy="2"/>
      <feGaussianBlur stdDeviation="2"/>
      <feColorMatrix type="matrix" values="0 0 0 0 0 0 0 0 0 0 0 0 0 0 0 0 0 0 0.1 0"/>
      <feBlend mode="normal" in2="BackgroundImageFix" result="effect1_dropShadow_0_1"/>
      <feColorMatrix in="SourceAlpha" type="matrix" values="0 0 0 0 0 0 0 0 0 0 0 0 0 0 0 0 0 0 127 0" result="hardAlpha"/>
      <feOffset dy="7"/>
      <feGaussianBlur stdDeviation="3.5"/>
      <feColorMatrix type="matrix" values="0 0 0 0 0 0 0 0 0 0 0 0 0 0 0 0 0 0 0.09 0"/>
      <feBlend mode="normal" in2="effect1_dropShadow_0_1" result="effect2_dropShadow_0_1"/>
      <feColorMatrix in="SourceAlpha" type="matrix" values="0 0 0 0 0 0 0 0 0 0 0 0 0 0 0 0 0 0 127 0" result="hardAlpha"/>
      <feOffset dy="16"/>
      <feGaussianBlur stdDeviation="4.5"/>
      <feColorMatrix type="matrix" values="0 0 0 0 0 0 0 0 0 0 0 0 0 0 0 0 0 0 0.05 0"/>
      <feBlend mode="normal" in2="effect2_dropShadow_0_1" result="effect3_dropShadow_0_1"/>
      <feColorMatrix in="SourceAlpha" type="matrix" values="0 0 0 0 0 0 0 0 0 0 0 0 0 0 0 0 0 0 127 0" result="hardAlpha"/>
      <feOffset dy="28"/>
      <feGaussianBlur stdDeviation="5.5"/>
      <feColorMatrix type="matrix" values="0 0 0 0 0 0 0 0 0 0 0 0 0 0 0 0 0 0 0.01 0"/>
      <feBlend mode="normal" in2="effect3_dropShadow_0_1" result="effect4_dropShadow_0_1"/>
      <feBlend mode="normal" in="SourceGraphic" in2="effect4_dropShadow_0_1" result="shape"/>
    </filter>
    <filter id="filter1_dddd_0_1" x="278.145" y="301.905" width="70.5417" height="105.159" filterUnits="userSpaceOnUse" color-interpolation-filters="sRGB">
      <feFlood flood-opacity="0" result="BackgroundImageFix"/>
      <feColorMatrix in="SourceAlpha" type="matrix" values="0 0 0 0 0 0 0 0 0 0 0 0 0 0 0 0 0 0 127 0" result="hardAlpha"/>
      <feOffset dy="1"/>
      <feGaussianBlur stdDeviation="1.5"/>
      <feColorMatrix type="matrix" values="0 0 0 0 0 0 0 0 0 0 0 0 0 0 0 0 0 0 0.1 0"/>
      <feBlend mode="normal" in2="BackgroundImageFix" result="effect1_dropShadow_0_1"/>
      <feColorMatrix in="SourceAlpha" type="matrix" values="0 0 0 0 0 0 0 0 0 0 0 0 0 0 0 0 0 0 127 0" result="hardAlpha"/>
      <feOffset dy="5"/>
      <feGaussianBlur stdDeviation="2.5"/>
      <feColorMatrix type="matrix" values="0 0 0 0 0 0 0 0 0 0 0 0 0 0 0 0 0 0 0.09 0"/>
      <feBlend mode="normal" in2="effect1_dropShadow_0_1" result="effect2_dropShadow_0_1"/>
      <feColorMatrix in="SourceAlpha" type="matrix" values="0 0 0 0 0 0 0 0 0 0 0 0 0 0 0 0 0 0 127 0" result="hardAlpha"/>
      <feOffset dx="1" dy="12"/>
      <feGaussianBlur stdDeviation="3.5"/>
      <feColorMatrix type="matrix" values="0 0 0 0 0 0 0 0 0 0 0 0 0 0 0 0 0 0 0.05 0"/>
      <feBlend mode="normal" in2="effect2_dropShadow_0_1" result="effect3_dropShadow_0_1"/>
      <feColorMatrix in="SourceAlpha" type="matrix" values="0 0 0 0 0 0 0 0 0 0 0 0 0 0 0 0 0 0 127 0" result="hardAlpha"/>
      <feOffset dx="1" dy="22"/>
      <feGaussianBlur stdDeviation="4.5"/>
      <feColorMatrix type="matrix" values="0 0 0 0 0 0 0 0 0 0 0 0 0 0 0 0 0 0 0.01 0"/>
      <feBlend mode="normal" in2="effect3_dropShadow_0_1" result="effect4_dropShadow_0_1"/>
      <feBlend mode="normal" in="SourceGraphic" in2="effect4_dropShadow_0_1" result="shape"/>
    </filter>
    <filter id="filter2_dddd_0_1" x="0" y="228" width="98.1721" height="193.471" filterUnits="userSpaceOnUse" color-interpolation-filters="sRGB">
      <feFlood flood-opacity="0" result="BackgroundImageFix"/>
      <feColorMatrix in="SourceAlpha" type="matrix" values="0 0 0 0 0 0 0 0 0 0 0 0 0 0 0 0 0 0 127 0" result="hardAlpha"/>
      <feOffset dy="2"/>
      <feGaussianBlur stdDeviation="2"/>
      <feColorMatrix type="matrix" values="0 0 0 0 0 0 0 0 0 0 0 0 0 0 0 0 0 0 0.1 0"/>
      <feBlend mode="normal" in2="BackgroundImageFix" result="effect1_dropShadow_0_1"/>
      <feColorMatrix in="SourceAlpha" type="matrix" values="0 0 0 0 0 0 0 0 0 0 0 0 0 0 0 0 0 0 127 0" result="hardAlpha"/>
      <feOffset dy="8"/>
      <feGaussianBlur stdDeviation="4"/>
      <feColorMatrix type="matrix" values="0 0 0 0 0 0 0 0 0 0 0 0 0 0 0 0 0 0 0.09 0"/>
      <feBlend mode="normal" in2="effect1_dropShadow_0_1" result="effect2_dropShadow_0_1"/>
      <feColorMatrix in="SourceAlpha" type="matrix" values="0 0 0 0 0 0 0 0 0 0 0 0 0 0 0 0 0 0 127 0" result="hardAlpha"/>
      <feOffset dy="18"/>
      <feGaussianBlur stdDeviation="5.5"/>
      <feColorMatrix type="matrix" values="0 0 0 0 0 0 0 0 0 0 0 0 0 0 0 0 0 0 0.05 0"/>
      <feBlend mode="normal" in2="effect2_dropShadow_0_1" result="effect3_dropShadow_0_1"/>
      <feColorMatrix in="SourceAlpha" type="matrix" values="0 0 0 0 0 0 0 0 0 0 0 0 0 0 0 0 0 0 127 0" result="hardAlpha"/>
      <feOffset dy="31"/>
      <feGaussianBlur stdDeviation="6"/>
      <feColorMatrix type="matrix" values="0 0 0 0 0 0 0 0 0 0 0 0 0 0 0 0 0 0 0.01 0"/>
      <feBlend mode="normal" in2="effect3_dropShadow_0_1" result="effect4_dropShadow_0_1"/>
      <feBlend mode="normal" in="SourceGraphic" in2="effect4_dropShadow_0_1" result="shape"/>
    </filter>
    <linearGradient id="paint0_linear_0_1" x1="47.0054" y1="269.703" x2="33.4391" y2="240.98" gradientUnits="userSpaceOnUse">
      <stop offset="0.1434" stop-color="#FAD4D3"/>
      <stop offset="0.8998" stop-color="#FFEBEB"/>
    </linearGradient>
    <linearGradient id="paint1_linear_0_1" x1="65.3288" y1="329.751" x2="-82.46" y2="179.743" gradientUnits="userSpaceOnUse">
      <stop offset="0.1787" stop-color="#DDDCDA"/>
      <stop offset="0.637" stop-color="#CCCBC9"/>
    </linearGradient>
    <linearGradient id="paint2_linear_0_1" x1="38.8193" y1="273.389" x2="19.5457" y2="245.602" gradientUnits="userSpaceOnUse">
      <stop offset="0.1434" stop-color="#FAD4D3"/>
      <stop offset="0.8998" stop-color="#FFEBEB"/>
    </linearGradient>
    <linearGradient id="paint3_linear_0_1" x1="67.1912" y1="355.277" x2="78.1378" y2="318.227" gradientUnits="userSpaceOnUse">
      <stop offset="0.1434" stop-color="#FAD4D3"/>
      <stop offset="0.8998" stop-color="#FFEBEB"/>
    </linearGradient>
    <linearGradient id="paint4_linear_0_1" x1="65.449" y1="326.881" x2="73.5888" y2="347.838" gradientUnits="userSpaceOnUse">
      <stop offset="0.1787" stop-color="#DDDCDA"/>
      <stop offset="0.637" stop-color="#CCCBC9"/>
    </linearGradient>
    <radialGradient id="paint5_radial_0_1" cx="0" cy="0" r="1" gradientUnits="userSpaceOnUse" gradientTransform="translate(64.0655 291.679) scale(5.45574 5.45574)">
      <stop offset="0.3421" stop-color="#FAD4D3"/>
      <stop offset="1" stop-color="#FAD4D3" stop-opacity="0"/>
    </radialGradient>
  </defs>
  <path d="M 155.174 362.968 C 155.174 366.968 154.45 370.21 153.558 370.21 C 152.665 370.21 151.942 366.968 151.942 362.968 C 151.942 358.967 152.665 355.725 153.558 355.725 C 154.449 355.725 155.174 358.968 155.174 362.968 Z" fill="#EDE576" style="" transform="matrix(1, 0, 0, 1, 0, 3.552713678800501e-15)"/>
  <path d="M 153.558 364.584 C 149.558 364.584 146.315 363.86 146.315 362.968 C 146.315 362.075 149.558 361.351 153.558 361.351 C 157.558 361.351 160.801 362.075 160.801 362.968 C 160.801 363.86 157.557 364.584 153.558 364.584 Z" fill="#EDE576" style="" transform="matrix(1, 0, 0, 1, 0, 3.552713678800501e-15)"/>
  <path d="M 396.709 324.01 C 396.709 328.011 395.986 331.253 395.093 331.253 C 394.2 331.253 393.477 328.011 393.477 324.01 C 393.477 320.01 394.2 316.768 395.093 316.768 C 395.986 316.768 396.709 320.011 396.709 324.01 Z" fill="#EDE576" style="" transform="matrix(1, 0, 0, 1, 0, 3.552713678800501e-15)"/>
  <path d="M 395.093 325.626 C 391.093 325.626 387.85 324.903 387.85 324.01 C 387.85 323.118 391.093 322.394 395.093 322.394 C 399.093 322.394 402.336 323.118 402.336 324.01 C 402.336 324.903 399.093 325.626 395.093 325.626 Z" fill="#EDE576" style="" transform="matrix(1, 0, 0, 1, 0, 3.552713678800501e-15)"/>
  <path d="M 85.158 69.769 C 85.158 69.769 76.235 54.402 80.944 46.967 C 85.653 39.532 93.832 43.497 95.567 50.19 C 97.303 56.881 91.85 69.771 91.85 69.771 C 91.85 69.771 98.542 53.412 107.465 53.66 C 116.387 53.908 116.387 62.831 111.679 66.796 C 106.97 70.762 95.569 72.745 95.569 72.745 C 95.569 72.745 111.926 70.019 116.884 75.967 C 121.841 81.915 115.148 86.625 107.713 85.633 C 100.278 84.641 93.09 78.446 93.09 78.446 C 93.09 78.446 104.739 86.129 105.978 94.805 C 107.218 103.48 95.94 103.603 93.338 99.514 C 90.736 95.424 90.178 81.854 90.178 81.854 C 90.178 81.854 93.896 103.789 84.973 106.392 C 76.051 108.994 75.679 94.494 81.627 83.713 C 71.218 98.955 63.782 98.026 61.551 93.379 C 59.32 88.732 64.711 79.252 77.909 79.438 C 61.551 79.623 56.345 75.534 56.159 70.701 C 55.973 65.868 66.569 61.407 79.953 72.374 C 65.639 58.991 64.524 55.644 70.1 53.041 C 75.678 50.437 81.44 61.962 85.158 69.769 Z" fill="#F6F2F6" style="" transform="matrix(1, 0, 0, 1, 0, 3.552713678800501e-15)"/>
  <path d="M 94.288 77.148 C 94.288 80.967 91.192 84.063 87.373 84.063 C 83.553 84.063 80.456 80.967 80.456 77.148 C 80.456 73.328 83.553 70.233 87.373 70.233 C 91.193 70.233 94.288 73.328 94.288 77.148 Z" fill="#FFCE00" style="" transform="matrix(1, 0, 0, 1, 0, 3.552713678800501e-15)"/>
  <path d="M 133.616 45.643 C 133.616 45.643 128.276 36.448 131.095 31.998 C 133.913 27.549 138.807 29.922 139.845 33.927 C 140.884 37.931 137.621 45.644 137.621 45.644 C 137.621 45.644 141.625 35.855 146.965 36.003 C 152.304 36.152 152.304 41.491 149.486 43.864 C 146.668 46.237 139.846 47.423 139.846 47.423 C 139.846 47.423 149.634 45.792 152.601 49.352 C 155.567 52.911 151.562 55.729 147.113 55.135 C 142.664 54.542 138.363 50.835 138.363 50.835 C 138.363 50.835 145.333 55.433 146.075 60.624 C 146.817 65.815 140.068 65.889 138.511 63.442 C 136.954 60.995 136.62 52.874 136.62 52.874 C 136.62 52.874 138.845 66 133.506 67.557 C 128.167 69.114 127.944 60.438 131.504 53.987 C 125.275 63.107 120.825 62.551 119.49 59.77 C 118.155 56.99 121.381 51.316 129.278 51.428 C 119.49 51.539 116.376 49.092 116.264 46.2 C 116.153 43.308 122.493 40.638 130.502 47.202 C 121.937 39.193 121.269 37.19 124.606 35.633 C 127.943 34.075 131.391 40.971 133.616 45.643 Z" fill="#F6F2F6" style="" transform="matrix(1, 0, 0, 1, 0, 3.552713678800501e-15)"/>
  <path d="M 139.08 50.058 C 139.08 52.343 137.227 54.196 134.942 54.196 C 132.656 54.196 130.803 52.343 130.803 50.058 C 130.803 47.772 132.656 45.92 134.942 45.92 C 137.227 45.92 139.08 47.772 139.08 50.058 Z" fill="#FFCE00" style="" transform="matrix(1, 0, 0, 1, 0, 3.552713678800501e-15)"/>
  <path d="M 403.274 112.714 C 400.534 112.396 385.921 109.471 387.142 83.407 C 396.269 89.515 400.918 95.798 403.065 101.025 C 402.663 95.973 401.801 90.373 400.259 84.452 C 395.83 85.19 382.224 85.517 374.196 64.142 C 385.951 66.383 393.024 70.502 397.063 74.493 C 394.811 68.607 391.806 62.534 387.841 56.443 C 382.544 57.008 368.1 51.995 360.024 27.371 C 388.886 34.035 389.499 50.208 389.03 54.927 C 392.097 59.579 394.617 64.227 396.663 68.795 C 396.508 62.568 398.303 53.706 404.557 42.135 C 416.565 66.864 402.294 78.509 400.824 79.622 C 401.505 81.065 401.788 82.327 401.794 83.268 C 403.159 88.39 404.025 93.283 404.518 97.807 C 406.391 91.441 411.311 82.642 422.304 72.52 C 423.346 99.442 408.239 106.651 405.089 107.859 C 405.152 119.009 403.276 126.262 403.229 126.433 L 401.551 126.229 C 401.589 126.086 402.914 120.944 403.274 112.714 Z" fill="#AFDFD1" style="" transform="matrix(1, 0, 0, 1, 0, 3.552713678800501e-15)"/>
  <path d="M 105.086 22.37 C 105.086 26.37 104.363 29.612 103.47 29.612 C 102.577 29.612 101.854 26.37 101.854 22.37 C 101.854 18.369 102.577 15.127 103.47 15.127 C 104.361 15.127 105.086 18.37 105.086 22.37 Z" fill="#EDE576" style="" transform="matrix(1, 0, 0, 1, 0, 3.552713678800501e-15)"/>
  <path d="M 103.47 23.986 C 99.47 23.986 96.227 23.262 96.227 22.37 C 96.227 21.477 99.47 20.754 103.47 20.754 C 107.47 20.754 110.713 21.477 110.713 22.37 C 110.713 23.262 107.469 23.986 103.47 23.986 Z" fill="#EDE576" style="" transform="matrix(1, 0, 0, 1, 0, 3.552713678800501e-15)"/>
  <g filter="url(#filter0_dddd_0_1)" style="" transform="matrix(1.1130650043487549, 0, 0, 1.1130650043487549, 45.02619171142579, -0.4552320241928065)">
    <path d="M304.99 316.693C307.348 321.162 309.076 325.422 309.896 328.814C310.807 332.594 310.845 336.381 310.132 339.966C309.652 342.437 308.806 344.815 307.651 347.025C304.282 353.461 298.26 358.461 290.65 360.299C281.781 362.438 272.876 359.766 266.682 353.967C264.826 352.228 263.21 350.214 261.919 347.957C260.704 345.852 259.768 343.538 259.165 341.052C258.165 336.909 257.791 330.987 258.113 324.615C258.238 322.122 258.471 319.566 258.818 317.015C260.582 304.012 265.265 291.265 273.516 289.274C275.378 288.822 277.329 288.944 279.316 289.531C281.557 290.18 283.842 291.416 286.113 293.076C291.681 297.142 297.135 303.765 301.46 310.607C302.749 312.636 303.932 314.686 304.99 316.693Z" fill="#AFDFD1"/>
    <path d="M271.639 303.85C272.717 305.677 272.109 308.032 270.281 309.11C268.454 310.188 266.099 309.58 265.021 307.752C263.943 305.925 264.551 303.57 266.379 302.492C268.206 301.415 270.561 302.023 271.639 303.85Z" fill="#DFA653"/>
    <path d="M291.572 305.979C292.65 307.806 292.042 310.161 290.214 311.239C288.387 312.317 286.032 311.709 284.954 309.881C283.876 308.054 284.484 305.699 286.312 304.621C288.139 303.543 290.495 304.151 291.572 305.979Z" fill="#DFA653"/>
    <path d="M271.721 332.241C272.799 334.068 272.191 336.423 270.363 337.501C268.535 338.579 266.181 337.971 265.103 336.143C264.025 334.316 264.633 331.961 266.461 330.883C268.288 329.806 270.643 330.414 271.721 332.241Z" fill="#DFA653"/>
    <path d="M298.934 328.309C300.012 330.136 299.404 332.491 297.576 333.569C295.749 334.647 293.394 334.039 292.316 332.211C291.238 330.384 291.846 328.029 293.674 326.951C295.502 325.874 297.857 326.482 298.934 328.309Z" fill="#DFA653"/>
    <path d="M304.989 316.693C303.532 316.86 302.046 316.174 301.253 314.829C300.448 313.464 300.581 311.811 301.459 310.608C302.748 312.636 303.931 314.686 304.989 316.693Z" fill="#DFA653"/>
    <path d="M286.114 293.076C285.795 293.62 285.339 294.087 284.762 294.427C282.933 295.506 280.577 294.898 279.502 293.073C278.839 291.948 278.811 290.627 279.318 289.53C281.559 290.18 283.843 291.416 286.114 293.076Z" fill="#DFA653"/>
    <path d="M267.461 349.13C268.415 350.749 268.05 352.777 266.681 353.966C264.825 352.227 263.209 350.213 261.918 347.956C262.005 347.891 262.1 347.829 262.198 347.771C264.027 346.693 266.382 347.301 267.461 349.13Z" fill="#DFA653"/>
    <path d="M261.37 318.826C262.448 320.655 261.838 323.006 260.009 324.084C259.412 324.436 258.763 324.608 258.114 324.615C258.239 322.122 258.472 319.566 258.819 317.015C259.849 317.218 260.793 317.847 261.37 318.826Z" fill="#DFA653"/>
    <path d="M310.131 339.965C309.651 342.436 308.805 344.814 307.65 347.024C307.142 346.71 306.707 346.275 306.384 345.727C305.305 343.898 305.916 341.547 307.74 340.472C308.489 340.03 309.325 339.873 310.131 339.965Z" fill="#DFA653"/>
    <path d="M283.083 318.978C284.161 320.805 283.553 323.16 281.725 324.238C279.898 325.316 277.543 324.708 276.465 322.88C275.387 321.053 275.995 318.698 277.823 317.62C279.65 316.543 282.005 317.151 283.083 318.978Z" fill="#DFA653"/>
    <path d="M289.311 349.802C290.389 351.629 289.781 353.984 287.953 355.062C286.126 356.14 283.771 355.532 282.693 353.704C281.615 351.877 282.223 349.522 284.051 348.444C285.879 347.367 288.234 347.975 289.311 349.802Z" fill="#DFA653"/>
    <path d="M271.076 346.653C271.361 346.671 271.544 346.749 271.704 346.842C271.857 346.938 271.972 347.056 272.054 347.194C272.136 347.332 272.184 347.49 272.194 347.67C272.198 347.854 272.177 348.052 272.054 348.311C271.768 348.294 271.584 348.216 271.425 348.123C271.272 348.027 271.157 347.909 271.076 347.77C270.995 347.631 270.947 347.474 270.937 347.293C270.934 347.109 270.954 346.911 271.076 346.653Z" fill="white"/>
    <path d="M273.968 347.752C274.254 347.771 274.438 347.851 274.598 347.944C274.752 348.041 274.868 348.161 274.95 348.3C275.033 348.439 275.082 348.598 275.092 348.78C275.097 348.965 275.077 349.165 274.954 349.425C274.667 349.406 274.483 349.327 274.323 349.233C274.169 349.136 274.053 349.016 273.972 348.876C273.89 348.736 273.841 348.577 273.831 348.396C273.827 348.211 273.847 348.012 273.968 347.752Z" fill="white"/>
    <path d="M284.643 297.367C284.943 297.41 285.141 297.513 285.315 297.631C285.483 297.752 285.613 297.896 285.71 298.059C285.807 298.222 285.87 298.405 285.894 298.61C285.913 298.819 285.907 299.043 285.798 299.327C285.497 299.285 285.299 299.182 285.125 299.064C284.957 298.943 284.827 298.8 284.732 298.636C284.636 298.472 284.573 298.29 284.549 298.084C284.53 297.874 284.536 297.651 284.643 297.367Z" fill="white"/>
    <path d="M287.639 298.07C287.892 298.034 288.044 298.059 288.171 298.097C288.293 298.139 288.376 298.204 288.426 298.288C288.476 298.372 288.493 298.476 288.471 298.603C288.443 298.733 288.391 298.878 288.236 299.083C287.981 299.119 287.829 299.095 287.702 299.057C287.581 299.015 287.497 298.95 287.448 298.865C287.399 298.78 287.382 298.676 287.404 298.55C287.433 298.418 287.485 298.274 287.639 298.07Z" fill="white"/>
    <path d="M300.154 345.549C300.427 345.547 300.599 345.605 300.746 345.677C300.887 345.753 300.99 345.851 301.061 345.969C301.131 346.087 301.168 346.224 301.166 346.385C301.158 346.549 301.126 346.727 300.99 346.966C300.715 346.969 300.544 346.911 300.397 346.838C300.256 346.762 300.152 346.664 300.084 346.545C300.015 346.427 299.979 346.289 299.981 346.128C299.988 345.965 300.02 345.787 300.154 345.549Z" fill="white"/>
    <path d="M302.496 323.076C302.773 323.081 302.948 323.146 303.1 323.225C303.245 323.308 303.352 323.413 303.427 323.537C303.501 323.661 303.541 323.806 303.544 323.973C303.54 324.144 303.512 324.329 303.38 324.574C303.102 324.57 302.926 324.505 302.775 324.426C302.63 324.343 302.523 324.238 302.45 324.113C302.377 323.988 302.337 323.843 302.335 323.676C302.338 323.506 302.366 323.321 302.496 323.076Z" fill="white"/>
    <path d="M304.995 323.51C305.256 323.487 305.415 323.525 305.55 323.576C305.679 323.631 305.77 323.709 305.828 323.806C305.886 323.903 305.91 324.02 305.896 324.16C305.876 324.303 305.831 324.461 305.684 324.679C305.422 324.702 305.262 324.665 305.127 324.614C304.998 324.559 304.907 324.481 304.85 324.383C304.793 324.285 304.769 324.168 304.783 324.029C304.805 323.884 304.849 323.727 304.995 323.51Z" fill="white"/>
  </g>
  <g filter="url(#filter1_dddd_0_1)" style="" transform="matrix(1.1130650043487549, 0, 0, 1.1130650043487549, 45.02619171142579, -0.4552320241928065)">
    <path d="M336.894 327.354C337.242 329.008 337.532 330.687 337.769 332.365C338.301 336.049 338.595 339.739 338.667 343.203C338.705 344.821 338.689 346.385 338.626 347.88C338.504 350.84 338.195 353.502 337.704 355.68C336.539 360.884 333.888 365.373 330.306 368.803C329.518 369.555 328.686 370.262 327.814 370.905C322.181 375.093 314.9 376.994 307.521 375.624C307.193 375.57 306.859 375.499 306.531 375.427C305.932 375.294 305.344 375.139 304.762 374.964C302.11 374.174 299.666 372.994 297.48 371.491C296.588 370.88 295.733 370.215 294.931 369.497C288.253 363.57 284.825 354.387 286.618 345.067C286.668 344.8 286.724 344.531 286.785 344.26C287.068 343.003 287.472 341.624 287.99 340.153C289.178 336.762 290.948 332.902 293.127 328.997C294.494 326.539 296.029 324.069 297.676 321.681C299.915 318.437 302.367 315.352 304.929 312.696C306.444 311.115 307.998 309.69 309.57 308.467C310.893 307.433 312.228 306.544 313.556 305.837C314.655 305.252 315.75 304.782 316.838 304.457C317.25 304.329 317.664 304.224 318.074 304.144C319.038 303.949 319.984 303.868 320.916 303.923C321.456 303.95 321.994 304.025 322.529 304.144C329.889 305.799 334.565 315.991 336.894 327.354Z" fill="#FAD4D3"/>
    <path d="M336.894 327.354C337.242 329.008 337.532 330.687 337.769 332.365C336.879 331.228 335.968 330.337 335.341 329.77C333.935 328.497 332.359 327.326 330.832 326.194C328.66 324.585 326.421 322.92 324.5 320.871C320.311 316.408 318.026 310.256 318.076 304.143C319.04 303.948 319.986 303.867 320.918 303.922C320.797 309.395 322.817 314.935 326.573 318.93C328.315 320.793 330.36 322.306 332.525 323.911C333.982 324.995 335.488 326.116 336.894 327.354Z" fill="#FFA998"/>
    <path d="M338.667 343.203C338.705 344.821 338.689 346.385 338.626 347.88C337.202 345.597 335.434 343.672 333.393 342.211C331.526 340.879 329.434 339.9 327.221 338.866C324.486 337.584 321.655 336.261 319.27 334.202C315.116 330.617 312.529 324.82 312.171 318.297C311.938 314.008 312.594 309.829 313.557 305.837C314.656 305.252 315.751 304.782 316.839 304.457C315.66 308.848 314.749 313.474 315.005 318.143C315.322 323.898 317.551 328.963 321.125 332.05C323.213 333.859 325.748 335.04 328.425 336.293C330.658 337.339 332.962 338.415 335.04 339.9C336.356 340.839 337.571 341.947 338.667 343.203Z" fill="#FFA998"/>
    <path d="M330.307 368.802C329.519 369.554 328.687 370.261 327.815 370.904C327.189 366.636 325.101 362.796 323.222 360.07C321.028 356.892 318.315 353.972 315.699 351.146C314.551 349.914 313.364 348.635 312.226 347.34C308.917 343.581 304.918 338.472 303.319 332.281C302.149 327.736 302.261 322.582 303.661 316.967C304.021 315.524 304.452 314.1 304.932 312.695C306.447 311.114 308.001 309.689 309.573 308.466C308.33 311.469 307.189 314.527 306.416 317.651C305.133 322.804 305.012 327.489 306.067 331.57C307.512 337.178 311.261 341.939 314.358 345.468C315.473 346.729 316.644 347.995 317.778 349.22C320.469 352.111 323.245 355.112 325.558 358.454C327.379 361.098 329.376 364.699 330.307 368.802Z" fill="#FFA998"/>
    <path d="M306.455 356.553C309.405 362.417 309.653 369.448 307.522 375.624C307.194 375.57 306.86 375.499 306.532 375.427C305.933 375.294 305.345 375.139 304.763 374.964C306.748 369.439 306.565 363.103 303.915 357.829C302.813 355.638 301.365 353.668 299.83 351.577C298.168 349.318 296.45 346.976 295.218 344.332C292.738 339.032 292.604 333.415 293.129 328.998C294.496 326.54 296.031 324.07 297.678 321.682C297.13 323.407 296.665 325.153 296.328 326.922C295.517 331.157 295.112 337.41 297.788 343.13C298.906 345.518 300.465 347.644 302.119 349.899C303.655 351.99 305.244 354.153 306.455 356.553Z" fill="#FFA998"/>
    <path d="M297.413 361.476C298.202 364.778 298.199 368.212 297.482 371.491C296.59 370.88 295.735 370.215 294.933 369.497C295.303 367.042 295.225 364.529 294.654 362.136C293.795 358.547 291.989 355.314 290.08 351.893C289.415 350.695 288.717 349.453 288.08 348.21C287.525 347.131 287.04 346.083 286.62 345.067C286.67 344.8 286.726 344.531 286.787 344.26C287.07 343.003 287.474 341.624 287.992 340.153C288.483 342.226 289.351 344.469 290.605 346.909C291.224 348.111 291.903 349.334 292.561 350.511C294.483 353.951 296.465 357.503 297.413 361.476Z" fill="#FFA998"/>
  </g>
  <g filter="url(#filter2_dddd_0_1)" style="" transform="matrix(1.1130650043487549, 0, 0, 1.1130650043487549, 45.02619171142579, -0.4552320241928065)">
    <path d="M28.7599 359.39C23.8547 360.162 18.5972 357.748 15.9849 353.526C15.6169 352.931 15.2928 352.287 15.222 351.591C15.1518 350.896 15.3779 350.136 15.9381 349.718C13.7417 347.681 12.6437 344.834 12.7871 341.842C12.8416 340.707 13.1035 339.541 13.8005 338.643C14.4969 337.745 15.6996 337.179 16.797 337.475C16.9481 336.299 17.3678 335.062 18.3391 334.381C19.3104 333.701 20.5723 333.452 21.729 333.712C23.2539 334.055 24.4943 335.227 25.2466 336.597C25.999 337.967 26.325 339.528 26.565 341.072C27.4899 347.022 26.6553 353.749 28.7599 359.39Z" fill="#CFCECC"/>
    <path d="M52.1875 273.595C51.5671 275.743 50.0949 277.88 48.8927 279.619C47.2991 281.924 45.7943 283.969 44.9922 286.652C41.2428 281.237 36.9595 276.212 33.1288 270.854C29.301 265.496 25.8895 259.721 24.172 253.362C22.4512 247.005 22.5502 239.974 25.497 234.084C26.0515 232.976 26.7188 231.896 27.6691 231.102C28.6198 230.305 29.8937 229.825 31.1107 230.06C32.5327 230.333 33.6082 231.495 34.4471 232.675C34.8587 233.255 35.242 233.852 35.5919 234.462C37.9752 238.571 39.1444 243.33 40.6319 247.876C43.3857 256.284 47.3942 264.279 52.4834 271.516C52.5002 272.203 52.3883 272.901 52.1875 273.595Z" fill="#CFCECC"/>
    <path d="M52.1874 273.595C48.9232 272.307 45.9821 270.151 43.5318 267.614C40.15 264.114 37.6047 259.902 35.2505 255.643C33.6048 252.661 32.0264 249.621 30.9676 246.383C29.9089 243.145 29.3821 239.685 29.8797 236.313C30.0164 235.385 30.2669 234.404 30.9691 233.78C31.9031 232.955 33.382 233.035 34.4762 233.635C34.8829 233.861 35.251 234.145 35.5932 234.462C37.9765 238.571 39.1457 243.33 40.6333 247.876C43.387 256.284 47.3955 264.279 52.4848 271.516C52.5001 272.203 52.3882 272.901 52.1874 273.595Z" fill="url(#paint0_linear_0_1)"/>
    <path d="M71.688 327.283C71.688 327.283 75.9709 346.743 81.7714 345.246C87.5719 343.749 83.4554 326.628 79.9937 319.611L71.688 327.283Z" fill="#CFCECC"/>
    <path d="M59.6921 333.816C59.6921 333.816 73.4456 332.319 76.1587 344.389C78.8718 356.458 75.6908 360.201 75.6908 360.201C75.6908 360.201 85.8889 358.703 86.1695 363.85C86.45 368.995 63.6213 372.457 54.7329 368.528C54.7329 368.528 50.1484 366.656 48.5581 361.043L59.6921 333.816Z" fill="#CFCECC"/>
    <path d="M79.2696 314.929C77.8681 311.306 76.1999 308.41 75.3505 306.043C73.4653 300.805 75.3505 298.07 75.3505 298.07L75.3409 298.072C76.1741 297.102 76.9456 295.968 77.6081 294.63C82.2863 285.18 81.3503 275.637 75.2692 272.456L73.5853 271.853C73.5853 271.853 69.9831 271.895 67.5739 271.333C65.1648 270.772 55.8085 266.479 48.9788 271.853C47.8034 272.778 46.7585 273.896 45.8336 275.131C39.7138 269.115 34.461 262.219 30.2972 254.715C27.9775 250.532 25.9302 246.08 22.8136 242.496C22.3548 241.963 21.8653 241.449 21.3514 240.957C20.3041 239.957 19.0288 239.02 17.5805 239.02C16.3411 239.02 15.181 239.731 14.398 240.693C13.6146 241.652 13.1638 242.84 12.8287 244.032C11.0477 250.373 12.279 257.296 15.1704 263.213C18.059 269.133 22.5001 274.16 27.2715 278.697C31.5228 282.738 36.0748 286.454 40.3438 290.474C40.2735 291.665 40.3141 292.705 40.4652 293.508C41.2156 297.511 45.1596 305.675 45.2791 309.82C44.9273 315.357 35.875 326.538 32.886 329.247C29.8933 331.96 21.8462 343.56 24.8389 353.666C27.8345 363.772 40.9331 369.291 40.9331 369.291C40.9331 369.291 53.0944 360.029 53.375 360.238C53.658 360.45 67.7847 365.267 67.7847 365.267C67.7847 365.267 68.1504 364.605 68.7632 363.442C71.5968 358.064 79.718 341.992 81.2571 331.68C82.2848 324.8 80.9737 319.332 79.2696 314.929Z" fill="url(#paint1_linear_0_1)"/>
    <path d="M45.3862 276.296C45.4192 275.87 45.5635 275.453 45.8259 275.121C39.7095 269.108 34.4591 262.215 30.2972 254.715C27.9775 250.532 25.9302 246.08 22.8136 242.496C22.4178 242.248 22.0029 242.04 21.5603 241.894C20.373 241.512 18.9055 241.712 18.1441 242.699C17.5724 243.444 17.5121 244.455 17.5533 245.393C17.7019 248.798 18.8725 252.096 20.524 255.075C22.1755 258.055 24.3002 260.742 26.4794 263.359C29.596 267.096 32.8913 270.752 36.8735 273.55C39.3094 275.262 42.0378 276.638 44.9034 277.416C44.9569 277.004 45.1166 276.608 45.3862 276.296Z" fill="url(#paint2_linear_0_1)"/>
    <path d="M81.2567 331.68C79.7175 341.992 71.5963 358.064 68.7628 363.442C67.2403 363.008 65.7973 362.318 64.5497 361.348C62.5459 359.795 61.0813 357.492 60.7596 354.977C60.4628 352.663 61.1143 350.341 61.8643 348.132C64.8656 339.304 69.5515 330.998 71.2828 321.835C71.6155 320.073 71.8492 318.254 72.6929 316.671C73.5337 315.088 75.1665 313.769 76.9528 313.906C77.838 313.975 78.599 314.368 79.2697 314.929C80.9737 319.332 82.2849 324.8 81.2567 331.68Z" fill="url(#paint3_linear_0_1)"/>
    <path d="M60.3208 327.283C60.3208 327.283 64.6037 346.743 70.4047 345.246C76.2052 343.749 72.0887 326.628 68.627 319.611L60.3208 327.283Z" fill="url(#paint4_linear_0_1)"/>
    <path d="M52.0661 342.065C52.0661 342.065 65.8196 340.568 68.5327 352.638C71.2459 364.707 68.0648 368.449 68.0648 368.449C68.0648 368.449 78.2629 366.952 78.5435 372.098C78.8241 377.244 55.9953 380.706 47.1069 376.777C47.1069 376.777 42.5224 374.905 40.9316 369.292L52.0661 342.065Z" fill="#DDDCDA"/>
    <path d="M67.5739 277.602C67.5739 278.571 66.7886 279.356 65.8197 279.356C64.8508 279.356 64.0654 278.571 64.0654 277.602C64.0654 276.633 64.8508 275.848 65.8197 275.848C66.7886 275.848 67.5739 276.633 67.5739 277.602Z" fill="#5A5A58"/>
    <path d="M60.0292 276.539C59.9059 276.873 59.7615 277.208 59.5259 277.476C59.2902 277.743 58.948 277.938 58.5919 277.919C58.1014 277.893 57.7013 277.462 57.5818 276.986C57.4619 276.51 57.5704 276.004 57.7396 275.544C57.969 274.918 58.7807 273.561 59.6463 273.829C60.6793 274.148 60.2835 275.847 60.0292 276.539Z" fill="#CFCECC"/>
    <path d="M64.0655 297.135C67.0787 297.135 69.5214 294.692 69.5214 291.679C69.5214 288.666 67.0787 286.223 64.0655 286.223C61.0523 286.223 58.6096 288.666 58.6096 291.679C58.6096 294.692 61.0523 297.135 64.0655 297.135Z" fill="url(#paint5_radial_0_1)"/>
    <path d="M76.5369 274.313C76.8271 274.507 77.1167 274.699 77.4212 274.865L77.6473 274.992C77.7224 275.037 77.7988 275.066 77.8844 275.129C78.0474 275.244 78.1406 275.469 78.1401 275.65C78.2114 276.369 78.0321 277.099 77.6913 277.732C77.5183 278.048 77.3027 278.34 77.0489 278.597C76.7917 278.85 76.4996 279.068 76.1808 279.232C75.862 279.396 75.5226 279.514 75.1751 279.586C74.8252 279.645 74.4691 279.665 74.1226 279.617C74.8204 279.596 75.4968 279.398 76.0771 279.047C76.6559 278.695 77.1344 278.196 77.4499 277.6C77.774 277.011 77.948 276.337 77.9298 275.663C77.9379 275.496 77.8878 275.366 77.7745 275.263C77.7238 275.217 77.6397 275.174 77.568 275.125C77.4944 275.077 77.4208 275.029 77.3491 274.978C77.0656 274.771 76.7884 274.556 76.5369 274.313Z" fill="#5A5A58"/>
    <path d="M69.0582 274.303C68.9736 273.835 69.0711 273.344 69.269 272.911C69.4726 272.48 69.7852 272.089 70.1987 271.853C69.9377 272.247 69.7035 272.621 69.518 273.026C69.3263 273.43 69.1911 273.849 69.0582 274.303Z" fill="#5A5A58"/>
    <path d="M72.7355 275.25C72.3694 275.193 72.1146 274.851 72.1772 274.486C72.3708 273.349 72.9301 271.024 74.299 270.655C76.1236 270.164 76.8955 273.637 76.8955 274.234C76.895 274.774 74.8215 275.574 72.7355 275.25Z" fill="#FAD4D3"/>
    <path d="M74.946 274.879C75.0569 274.586 75.317 274.371 75.6033 274.253C75.8915 274.14 76.2276 274.115 76.5105 274.251C76.2127 274.335 75.9575 274.404 75.7056 274.509C75.4513 274.607 75.2185 274.733 74.946 274.879Z" fill="#5A5A58"/>
    <path d="M76.4719 273.708C76.2305 273.556 76.1024 273.273 76.0775 272.994C76.057 272.715 76.1383 272.414 76.3529 272.226C76.3395 272.505 76.3304 272.734 76.3514 272.972C76.3682 273.21 76.4136 273.435 76.4719 273.708Z" fill="#5A5A58"/>
    <path d="M67.1777 300.423C67.9578 300.301 68.7298 300.154 69.4889 299.96C70.247 299.763 70.996 299.535 71.7268 299.257C72.4601 298.985 73.1742 298.664 73.8745 298.313L74.396 298.041L74.9084 297.752L75.4175 297.454C75.5829 297.347 75.7506 297.244 75.9199 297.141C75.6197 297.399 75.3013 297.632 74.9806 297.866L74.484 298.191L73.9754 298.499C73.2894 298.899 72.5657 299.232 71.8234 299.514C71.0787 299.79 70.3144 300.015 69.5357 300.166C68.7575 300.319 67.9683 300.414 67.1777 300.423Z" fill="white"/>
    <path d="M61.6468 289.843C60.9031 290.796 60.1751 291.758 59.482 292.744C58.7898 293.73 58.1158 294.729 57.4935 295.76C56.852 296.78 56.2607 297.83 55.691 298.891L55.2689 299.691L54.8621 300.499L54.4606 301.31C54.3334 301.583 54.2025 301.856 54.0696 302.127C54.2756 301.559 54.5074 301.001 54.7397 300.442L55.1131 299.615L55.5031 298.795C56.037 297.708 56.6336 296.653 57.2602 295.617C57.906 294.592 58.5805 293.585 59.3128 292.621C60.0441 291.655 60.817 290.723 61.6468 289.843Z" fill="#5A5A58"/>
    <path d="M64.0354 291.083C63.7658 291.741 63.4948 292.394 63.2457 293.056C62.9996 293.718 62.7586 294.382 62.5435 295.054C62.3222 295.724 62.1263 296.402 61.936 297.083C61.8414 297.423 61.7534 297.766 61.6688 298.109L61.4126 299.142C61.4394 298.788 61.4896 298.435 61.5364 298.083C61.5942 297.732 61.6597 297.382 61.73 297.033C61.8734 296.335 62.0646 295.648 62.2821 294.969C62.5058 294.293 62.7558 293.624 63.0507 292.976C63.3432 292.327 63.6645 291.69 64.0354 291.083Z" fill="#5A5A58"/>
    <path d="M70.8037 270.409C71.1139 269.302 71.5695 268.24 72.102 267.222C72.6416 266.208 73.2611 265.233 74.0006 264.352C73.4408 265.355 72.8734 266.341 72.3448 267.35C71.8089 268.356 71.3156 269.381 70.8037 270.409Z" fill="#5A5A58"/>
    <path d="M72.5811 270.305C72.8119 269.848 73.1504 269.46 73.528 269.122C73.9108 268.79 74.3391 268.505 74.8224 268.335C74.4548 268.689 74.0767 269 73.7091 269.329C73.3363 269.651 72.9797 269.986 72.5811 270.305Z" fill="#5A5A58"/>
    <path d="M44.2385 281.551C44.0636 280.503 44.1061 279.415 44.3183 278.362C44.5268 277.306 44.9149 276.286 45.434 275.341C45.9622 274.401 46.6242 273.533 47.411 272.799C48.1935 272.063 49.0964 271.453 50.0787 271.05C49.2073 271.654 48.4153 272.336 47.7164 273.1C47.021 273.867 46.411 274.706 45.9144 275.608C45.4091 276.506 45.0181 277.466 44.7337 278.462C44.4527 279.459 44.2911 280.492 44.2385 281.551Z" fill="white"/>
    <path d="M45.9382 300.711C46.0529 300.806 46.1098 300.901 46.1538 300.996C46.1939 301.091 46.213 301.186 46.213 301.281C46.2135 301.376 46.1949 301.471 46.1542 301.566C46.1107 301.661 46.0534 301.756 45.9382 301.851C45.823 301.756 45.7656 301.661 45.7221 301.566C45.682 301.471 45.6629 301.376 45.6633 301.281C45.6638 301.186 45.6825 301.091 45.7226 300.996C45.7666 300.901 45.8235 300.806 45.9382 300.711Z" fill="white"/>
    <path d="M46.9206 301.413C47.0353 301.499 47.0922 301.585 47.1362 301.671C47.1763 301.757 47.1955 301.843 47.1955 301.929C47.1959 302.015 47.1773 302.101 47.1367 302.187C47.0932 302.273 47.0358 302.359 46.9206 302.445C46.8054 302.359 46.7481 302.273 46.7046 302.187C46.6644 302.101 46.6453 302.015 46.6458 301.929C46.6462 301.843 46.6649 301.757 46.705 301.671C46.749 301.585 46.8059 301.499 46.9206 301.413Z" fill="white"/>
    <path d="M18.7119 261.322C18.8266 261.419 18.8835 261.515 18.9274 261.611C18.9676 261.708 18.9867 261.804 18.9867 261.9C18.9872 261.997 18.9681 262.094 18.9279 262.19C18.8844 262.286 18.8271 262.383 18.7119 262.479C18.5967 262.382 18.5393 262.286 18.4958 262.19C18.4557 262.093 18.4365 261.997 18.437 261.9C18.4375 261.804 18.4561 261.707 18.4963 261.611C18.5403 261.515 18.5976 261.419 18.7119 261.322Z" fill="white"/>
    <path d="M19.7409 262.539C19.8552 262.589 19.9125 262.64 19.9565 262.691C19.9967 262.741 20.0158 262.792 20.0158 262.843C20.0163 262.893 19.9971 262.944 19.957 262.995C19.9135 263.045 19.8561 263.096 19.7409 263.147C19.6257 263.096 19.5684 263.045 19.5249 262.995C19.4847 262.944 19.4656 262.893 19.4661 262.843C19.4666 262.792 19.4852 262.741 19.5253 262.691C19.5693 262.64 19.6267 262.589 19.7409 262.539Z" fill="white"/>
    <path d="M26.3369 235.64C26.4516 235.723 26.5085 235.807 26.5524 235.89C26.5926 235.973 26.6117 236.057 26.6117 236.14C26.6122 236.223 26.5936 236.307 26.5529 236.39C26.5094 236.473 26.4521 236.556 26.3369 236.64C26.2217 236.556 26.1643 236.473 26.1208 236.39C26.0807 236.307 26.0615 236.223 26.062 236.14C26.0625 236.057 26.0811 235.973 26.1213 235.89C26.1657 235.807 26.2226 235.723 26.3369 235.64Z" fill="white"/>
    <path d="M26.7582 236.341C26.873 236.384 26.9298 236.427 26.9733 236.47C27.0135 236.513 27.0326 236.556 27.0326 236.6C27.0331 236.643 27.0145 236.686 26.9738 236.729C26.9303 236.772 26.873 236.815 26.7578 236.858C26.6426 236.815 26.5852 236.772 26.5417 236.729C26.5016 236.686 26.4824 236.643 26.4829 236.6C26.4834 236.556 26.502 236.513 26.5422 236.47C26.5866 236.427 26.644 236.384 26.7582 236.341Z" fill="white"/>
    <path d="M71.8076 306.793C71.9223 306.871 71.9792 306.949 72.0232 307.028C72.0633 307.106 72.0824 307.185 72.0824 307.263C72.0829 307.341 72.0643 307.42 72.0236 307.498C71.9801 307.577 71.9228 307.655 71.8076 307.733C71.6924 307.655 71.635 307.577 71.5915 307.498C71.5514 307.42 71.5322 307.341 71.5327 307.263C71.5332 307.185 71.5518 307.106 71.592 307.028C71.636 306.949 71.6933 306.871 71.8076 306.793Z" fill="white"/>
    <path d="M72.9772 307.681C73.092 307.76 73.1489 307.839 73.1928 307.918C73.233 307.997 73.2521 308.076 73.2521 308.155C73.2526 308.233 73.2339 308.312 73.1933 308.391C73.1498 308.47 73.0924 308.549 72.9772 308.628C72.8621 308.549 72.8047 308.47 72.7612 308.391C72.721 308.312 72.7019 308.233 72.7024 308.155C72.7029 308.076 72.7215 307.997 72.7617 307.918C72.8057 307.839 72.8625 307.76 72.9772 307.681Z" fill="white"/>
    <path d="M70.5518 324.726C70.2755 324.351 70.0466 323.958 69.8319 323.56C69.6178 323.162 69.4175 322.758 69.2344 322.346C69.0495 321.936 68.8826 321.517 68.7282 321.092C68.5743 320.667 68.4347 320.234 68.3406 319.778C68.6408 320.134 68.8893 320.517 69.1169 320.911C69.3444 321.305 69.5523 321.708 69.7359 322.122C69.9213 322.536 70.0834 322.96 70.2244 323.392C70.3659 323.824 70.4858 324.265 70.5518 324.726Z" fill="white"/>
    <path d="M64.7257 340.533C64.4236 340.277 64.1669 339.991 63.926 339.695C63.6855 339.398 63.4609 339.092 63.2544 338.774C63.0465 338.456 62.8576 338.126 62.6846 337.786C62.5116 337.446 62.3548 337.095 62.2439 336.715C62.5465 336.971 62.8036 337.257 63.0441 337.552C63.2845 337.849 63.5096 338.155 63.7152 338.474C63.9226 338.792 64.1114 339.122 64.2845 339.462C64.4575 339.802 64.6143 340.153 64.7257 340.533Z" fill="white"/>
    <path d="M56.47 344.536C56.9991 344.335 57.5498 344.211 58.1057 344.131C58.6621 344.051 59.2252 344.015 59.7873 344.027C60.3494 344.036 60.9111 344.094 61.4641 344.194C62.0167 344.294 62.5625 344.439 63.0836 344.66C62.5181 344.663 61.967 344.639 61.4177 344.62L59.7772 344.576L58.1358 344.558C57.5861 344.556 57.035 344.559 56.47 344.536Z" fill="white"/>
    <path d="M40.9499 369.206C40.7606 368.96 40.6401 368.683 40.5493 368.397C40.4618 368.111 40.4126 367.814 40.3987 367.516C40.3849 367.217 40.4073 366.917 40.4685 366.624C40.5326 366.332 40.6282 366.045 40.7955 365.783C40.8547 366.087 40.8762 366.372 40.8997 366.655C40.9202 366.937 40.9355 367.214 40.9475 367.491C40.9599 367.768 40.9695 368.045 40.9742 368.328C40.9761 368.612 40.9814 368.898 40.9499 369.206Z" fill="white"/>
    <path d="M45.3298 369.01C45.4445 369.155 45.5014 369.299 45.5454 369.443C45.5855 369.587 45.6046 369.731 45.6046 369.876C45.6051 370.02 45.5865 370.164 45.5458 370.308C45.5023 370.453 45.445 370.597 45.3298 370.741C45.2146 370.596 45.1572 370.452 45.1137 370.308C45.0736 370.164 45.0545 370.02 45.0549 369.876C45.0554 369.731 45.0741 369.587 45.1142 369.443C45.1587 369.299 45.2155 369.155 45.3298 369.01Z" fill="white"/>
    <path d="M46.1252 371.022C46.2394 371.038 46.2968 371.053 46.3403 371.069C46.3804 371.085 46.3996 371.1 46.3996 371.116C46.4 371.131 46.3814 371.147 46.3408 371.162C46.2973 371.178 46.2399 371.194 46.1247 371.209C46.0095 371.194 45.9522 371.178 45.9087 371.162C45.8685 371.147 45.8494 371.131 45.8499 371.116C45.8503 371.1 45.869 371.085 45.9091 371.069C45.9536 371.053 46.0109 371.038 46.1252 371.022Z" fill="white"/>
    <path d="M78.8247 362.789C78.9394 362.851 78.9963 362.914 79.0402 362.976C79.0804 363.039 79.0995 363.101 79.0995 363.164C79.1 363.226 79.0809 363.289 79.0407 363.351C78.9972 363.414 78.9399 363.476 78.8247 363.538C78.7095 363.476 78.6521 363.413 78.6086 363.351C78.5685 363.288 78.5493 363.226 78.5498 363.164C78.5503 363.101 78.5689 363.039 78.6091 362.976C78.6531 362.914 78.7104 362.851 78.8247 362.789Z" fill="white"/>
    <path d="M79.5732 363.023C79.6874 363.085 79.7448 363.147 79.7888 363.21C79.8289 363.272 79.848 363.335 79.848 363.397C79.8485 363.459 79.8299 363.522 79.7893 363.584C79.7458 363.646 79.6884 363.709 79.5732 363.771C79.458 363.709 79.4006 363.646 79.3571 363.584C79.317 363.522 79.2979 363.459 79.2983 363.397C79.2988 363.335 79.3175 363.272 79.3576 363.21C79.4016 363.147 79.459 363.085 79.5732 363.023Z" fill="white"/>
    <path d="M72.0933 372.02C72.4155 372.336 72.643 372.747 72.7802 373.185C72.9178 373.625 72.968 374.096 72.9174 374.561C72.8691 375.025 72.7195 375.475 72.4919 375.876C72.2649 376.275 71.9551 376.628 71.5723 376.868C71.7859 376.472 71.9657 376.09 72.1019 375.696C72.2376 375.304 72.3261 374.904 72.371 374.501C72.4135 374.098 72.4121 373.689 72.3629 373.276C72.3132 372.864 72.219 372.452 72.0933 372.02Z" fill="white"/>
    <path d="M76.5183 370.57C76.8238 370.69 77.0776 370.915 77.2764 371.178C77.4734 371.443 77.6125 371.753 77.6851 372.078C77.7582 372.402 77.7649 372.742 77.6999 373.066C77.6325 373.388 77.4982 373.7 77.2726 373.939C77.2845 373.613 77.2908 373.321 77.2688 373.033C77.2497 372.747 77.209 372.47 77.1488 372.198C77.0881 371.925 77.0063 371.657 76.9017 371.39C76.7989 371.121 76.6684 370.859 76.5183 370.57Z" fill="white"/>
    <path d="M84.3809 362.334C84.6648 362.474 84.8914 362.705 85.0677 362.966C85.2422 363.23 85.3617 363.53 85.4215 363.842C85.4817 364.154 85.4812 364.478 85.4167 364.788C85.3498 365.096 85.2236 365.394 85.0109 365.628C85.0075 365.314 85.0075 365.032 84.986 364.754C84.9669 364.478 84.932 364.21 84.8818 363.946C84.8311 363.681 84.7652 363.419 84.6806 363.155C84.5988 362.89 84.4941 362.628 84.3809 362.334Z" fill="white"/>
    <path d="M17.4492 344.17C17.5639 344.268 17.6208 344.366 17.6648 344.464C17.7049 344.562 17.724 344.659 17.724 344.757C17.7245 344.855 17.7059 344.953 17.6652 345.051C17.6217 345.148 17.5644 345.246 17.4492 345.344C17.334 345.247 17.2766 345.149 17.2331 345.051C17.193 344.953 17.1738 344.855 17.1743 344.757C17.1748 344.66 17.1934 344.562 17.2336 344.464C17.2776 344.366 17.3345 344.268 17.4492 344.17Z" fill="white"/>
    <path d="M18.2907 345.106C18.4054 345.184 18.4623 345.262 18.5063 345.34C18.5465 345.417 18.5656 345.495 18.5656 345.573C18.5661 345.651 18.5474 345.729 18.5068 345.807C18.4633 345.885 18.4059 345.963 18.2907 346.041C18.1755 345.963 18.1182 345.885 18.0747 345.807C18.0345 345.729 18.0154 345.651 18.0159 345.573C18.0164 345.495 18.035 345.417 18.0751 345.34C18.1191 345.262 18.1765 345.184 18.2907 345.106Z" fill="white"/>
    <path d="M26.1501 347.819C26.2648 347.924 26.3217 348.029 26.3657 348.134C26.4058 348.239 26.425 348.344 26.425 348.449C26.4254 348.554 26.4068 348.659 26.3662 348.764C26.3227 348.869 26.2653 348.974 26.1501 349.079C26.0349 348.974 25.9775 348.869 25.934 348.764C25.8939 348.659 25.8748 348.554 25.8753 348.449C25.8757 348.344 25.8944 348.239 25.9345 348.134C25.9785 348.029 26.0354 347.924 26.1501 347.819Z" fill="white"/>
    <path d="M27.3198 347.913C27.4345 348.041 27.4914 348.17 27.5354 348.298C27.5755 348.427 27.5946 348.555 27.5946 348.684C27.5951 348.813 27.576 348.941 27.5358 349.07C27.4923 349.198 27.435 349.327 27.3198 349.456C27.2046 349.327 27.1472 349.198 27.1037 349.07C27.0636 348.941 27.0445 348.813 27.0449 348.684C27.0454 348.555 27.064 348.427 27.1042 348.298C27.1482 348.17 27.2051 348.041 27.3198 347.913Z" fill="white"/>
    <path d="M27.9444 359.449C27.2651 358.873 26.6939 358.171 26.1997 357.421C25.7193 356.661 25.3254 355.845 25.0233 354.997C24.411 353.297 24.15 351.499 24.021 349.719C23.9239 347.94 23.8288 346.151 24.0759 344.357C24.2016 343.465 24.4263 342.58 24.7862 341.752C25.1529 340.93 25.6414 340.154 26.2867 339.539C25.7355 340.237 25.3111 341.018 25.0372 341.85C24.747 342.676 24.5879 343.539 24.5018 344.407C24.4249 345.278 24.4091 346.155 24.4402 347.036C24.4655 347.916 24.5047 348.803 24.5687 349.681C24.6854 351.438 24.9172 353.187 25.4282 354.861C25.9478 356.528 26.7436 358.131 27.9444 359.449Z" fill="white"/>
  </g>
  <path d="M 61.897 327.74 C 59.137 326.657 56.213 325.445 54.54 322.997 C 54.067 322.304 53.71 321.391 54.092 320.644 C 54.537 319.771 55.735 319.614 56.695 319.81 C 58.319 320.14 59.786 321.179 60.637 322.601 C 60.839 321.661 61.12 320.802 61.556 319.945 C 61.991 319.087 62.689 318.321 63.6 318.011 C 64.51 317.7 65.639 317.944 66.192 318.731 C 66.768 319.552 66.597 320.674 66.29 321.628 C 65.547 323.928 63.758 326.203 61.897 327.74 Z" fill="#FFA998" style="" transform="matrix(1, 0, 0, 1, 0, 3.552713678800501e-15)"/>
  <path d="M 344.582 15.343 C 340.103 14.122 335.346 12.729 332.328 9.2 C 331.475 8.201 330.764 6.84 331.232 5.612 C 331.778 4.177 333.615 3.729 335.144 3.872 C 337.729 4.112 340.188 5.483 341.752 7.554 C 341.908 6.056 342.2 4.672 342.734 3.263 C 343.268 1.854 344.225 0.543 345.59 -0.094 C 346.956 -0.731 348.755 -0.543 349.748 0.591 C 350.783 1.772 350.707 3.548 350.389 5.086 C 349.623 8.791 347.221 12.636 344.582 15.343 Z" fill="#FFA998" style="" transform="matrix(1, 0, 0, 1, 0, 3.552713678800501e-15)"/>
</svg>