<svg width="98" height="134" viewBox="0 0 98 134" fill="none" xmlns="http://www.w3.org/2000/svg">
<g filter="url(#filter0_d_151_15259)">
<rect width="89.8686" height="125.907" rx="12" transform="matrix(0.999999 0.00121301 -0.000888466 1 4.13135 0)" fill="#160000"/>
</g>
<rect x="0.998955" y="1.00103" width="81.9395" height="118.303" rx="11" transform="matrix(0.999999 0.00103204 -0.00104426 0.999999 7.13093 2.72211)" fill="#160000" stroke="url(#paint0_linear_151_15259)" stroke-width="2"/>
<path d="M44.5752 81.6054C46.0306 81.6054 47.2105 80.5959 47.2105 79.3506C47.2105 78.1052 46.0306 77.0957 44.5752 77.0957C43.1198 77.0957 41.9399 78.1052 41.9399 79.3506C41.9399 80.5959 43.1198 81.6054 44.5752 81.6054Z" fill="url(#paint1_linear_151_15259)"/>
<path d="M58.8575 48.0842C57.9568 47.0736 56.8363 46.1902 55.5804 45.5107C51.2749 43.2701 44.8126 42.8043 40.2277 44.718C38.9561 45.2528 37.8148 46.0101 36.9005 46.9414C36.7373 47.0999 36.5856 47.2669 36.4847 47.4676C35.4249 49.6982 39.08 51.1155 40.3426 48.9668C41.0895 47.5766 42.8397 46.6902 44.5985 46.2679C47.8002 45.5113 51.7057 45.8547 54.5245 47.4071C55.4356 47.9338 56.2573 48.5949 56.9189 49.347C59.225 51.9659 59.7685 55.519 58.8823 58.662C58.4958 60.0039 57.7963 61.3037 56.7269 62.3413C56.5929 62.4746 56.4386 62.6039 56.2937 62.7283C56.2204 62.7852 56.1047 62.8756 56.032 62.933C55.9558 62.9862 55.8358 63.0709 55.7603 63.1247C54.9107 63.6977 53.9592 64.1619 52.946 64.4821C51.842 64.8317 50.6761 65.0136 49.4971 65.0571C47.9591 65.1094 46.4394 64.9453 44.9259 64.6328C44.9258 64.6328 44.3054 64.6275 44.3053 64.6275C43.2642 64.6179 42.4334 65.4282 42.5859 66.311L43.7124 73.2291C43.7639 73.5434 44.0518 73.805 44.4374 73.8529C44.9052 73.9109 45.3395 73.6335 45.4074 73.2331C45.4074 73.2331 45.9356 70.1172 46.2705 68.1414C47.4493 68.1864 48.6381 68.1612 49.8084 68.0333C52.5714 67.7482 55.2706 66.8185 57.4016 65.2726C59.5825 63.7383 60.9116 61.498 61.4837 59.1626C62.3956 55.3763 61.6297 51.2009 58.8575 48.0842Z" fill="url(#paint2_linear_151_15259)"/>
<path d="M61.2461 84.8946C56.6599 87.3453 51.4246 88.3312 46.2539 87.7175C41.0832 87.104 36.2288 84.9208 32.3526 81.4658C28.4764 78.0108 25.7671 73.4521 24.594 68.4112C23.4209 63.3704 23.8412 58.0927 25.7975 53.2978L26.0339 53.393C24.0972 58.1396 23.6812 63.3641 24.8425 68.3541C26.0037 73.3442 28.6858 77.857 32.5229 81.2772C36.3601 84.6974 41.1655 86.8585 46.2841 87.4659C51.4027 88.0734 56.5853 87.0975 61.1253 84.6714L61.2461 84.8946Z" fill="url(#paint3_linear_151_15259)"/>
<path d="M37.2656 40.5971C41.8518 38.1463 47.0871 37.1605 52.2578 37.7741C57.4285 38.3877 62.2829 40.5709 66.1591 44.0259C70.0353 47.4809 72.7446 52.0396 73.9177 57.0805C75.0908 62.1213 74.6705 67.399 72.7142 72.1938L72.4779 72.0987C74.4145 67.3521 74.8305 62.1276 73.6693 57.1375C72.508 52.1475 69.8259 47.6347 65.9888 44.2145C62.1517 40.7943 57.3462 38.6332 52.2276 38.0257C47.109 37.4183 41.9264 38.3942 37.3865 40.8203L37.2656 40.5971Z" fill="url(#paint4_linear_151_15259)"/>
<path d="M64.2128 67.5614C64.5712 68.939 65.6539 70.0141 67.0397 70.3702C67.5014 70.4887 67.5014 71.1401 67.0397 71.2586C65.6532 71.6148 64.5712 72.6905 64.2128 74.0675C64.0935 74.5262 63.438 74.5262 63.3187 74.0675C62.9603 72.6905 61.8776 71.6148 60.4918 71.2586C60.0301 71.1401 60.0301 70.4887 60.4918 70.3702C61.8776 70.0141 62.9603 68.9383 63.3187 67.5614C63.438 67.1032 64.0935 67.1032 64.2128 67.5614Z" fill="url(#paint5_linear_151_15259)"/>
<path d="M41.3476 55.2292C41.6428 56.3637 42.5344 57.2491 43.6756 57.5424C44.0559 57.64 44.0559 58.1764 43.6756 58.274C42.5338 58.5673 41.6428 59.4532 41.3476 60.5872C41.2494 60.965 40.7095 60.965 40.6113 60.5872C40.3161 59.4532 39.4245 58.5673 38.2832 58.274C37.903 58.1764 37.903 57.64 38.2832 57.5424C39.4245 57.2491 40.3161 56.3632 40.6113 55.2292C40.7095 54.852 41.2494 54.852 41.3476 55.2292Z" fill="url(#paint6_linear_151_15259)"/>
<defs>
<filter id="filter0_d_151_15259" x="0.0302734" y="0.0146484" width="97.959" height="133.987" filterUnits="userSpaceOnUse" color-interpolation-filters="sRGB">
<feFlood flood-opacity="0" result="BackgroundImageFix"/>
<feColorMatrix in="SourceAlpha" type="matrix" values="0 0 0 0 0 0 0 0 0 0 0 0 0 0 0 0 0 0 127 0" result="hardAlpha"/>
<feOffset dy="4"/>
<feGaussianBlur stdDeviation="2"/>
<feComposite in2="hardAlpha" operator="out"/>
<feColorMatrix type="matrix" values="0 0 0 0 0 0 0 0 0 0 0 0 0 0 0 0 0 0 0.25 0"/>
<feBlend mode="normal" in2="BackgroundImageFix" result="effect1_dropShadow_151_15259"/>
<feBlend mode="normal" in="SourceGraphic" in2="effect1_dropShadow_151_15259" result="shape"/>
</filter>
<linearGradient id="paint0_linear_151_15259" x1="-2.24529e-06" y1="-22.0739" x2="135.376" y2="95.4113" gradientUnits="userSpaceOnUse">
<stop offset="0.325" stop-color="#A27CFE"/>
<stop offset="0.665" stop-color="#71CCFF"/>
</linearGradient>
<linearGradient id="paint1_linear_151_15259" x1="41.9399" y1="76.2682" x2="46.7269" y2="83.2268" gradientUnits="userSpaceOnUse">
<stop offset="0.325" stop-color="#A27CFE"/>
<stop offset="0.665" stop-color="#71CCFF"/>
</linearGradient>
<linearGradient id="paint2_linear_151_15259" x1="36.2944" y1="37.9541" x2="70.7416" y2="74.0422" gradientUnits="userSpaceOnUse">
<stop offset="0.325" stop-color="#A27CFE"/>
<stop offset="0.665" stop-color="#71CCFF"/>
</linearGradient>
<linearGradient id="paint3_linear_151_15259" x1="23.9434" y1="28.3676" x2="79.7005" y2="98.1687" gradientUnits="userSpaceOnUse">
<stop offset="0.325" stop-color="#A27CFE"/>
<stop offset="0.665" stop-color="#71CCFF"/>
</linearGradient>
<linearGradient id="paint4_linear_151_15259" x1="74.5684" y1="97.1241" x2="18.8112" y2="27.323" gradientUnits="userSpaceOnUse">
<stop offset="0.325" stop-color="#A27CFE"/>
<stop offset="0.665" stop-color="#71CCFF"/>
</linearGradient>
<linearGradient id="paint5_linear_151_15259" x1="60.1455" y1="65.8978" x2="68.12" y2="75.8809" gradientUnits="userSpaceOnUse">
<stop offset="0.325" stop-color="#A27CFE"/>
<stop offset="0.665" stop-color="#71CCFF"/>
</linearGradient>
<linearGradient id="paint6_linear_151_15259" x1="37.998" y1="53.8593" x2="44.5653" y2="62.0806" gradientUnits="userSpaceOnUse">
<stop offset="0.325" stop-color="#A27CFE"/>
<stop offset="0.665" stop-color="#71CCFF"/>
</linearGradient>
</defs>
</svg>
