<svg width="119" height="119" viewBox="0 0 119 119" fill="none" xmlns="http://www.w3.org/2000/svg">
<path d="M87.5835 111.772C76.8156 117.564 64.5235 119.894 52.3831 118.444C40.2428 116.994 28.8451 111.834 19.7442 103.67C10.6432 95.505 4.28191 84.732 1.52761 72.8197C-1.22668 60.9073 -0.239921 48.4354 4.35336 37.1043L4.9083 37.3293C0.361301 48.5462 -0.615521 60.8924 2.11103 72.6848C4.83757 84.4771 11.1348 95.1415 20.1441 103.224C29.1533 111.306 40.4362 116.414 52.4542 117.849C64.4722 119.284 76.6404 116.978 87.2998 111.245L87.5835 111.772Z" fill="url(#paint0_linear_153_10404)"/>
<path d="M31.2795 7.09066C42.0474 1.29906 54.3396 -1.03055 66.4799 0.419479C78.6202 1.86951 90.0179 7.0286 99.1189 15.1933C108.22 23.358 114.581 34.131 117.335 46.0434C120.09 57.9557 119.103 70.4277 114.51 81.7587L113.955 81.5337C118.502 70.3169 119.479 57.9706 116.752 46.1783C114.025 34.3859 107.728 23.7215 98.719 15.6391C89.7097 7.55659 78.4269 2.44948 66.4089 1.01406C54.3909 -0.421364 42.2226 1.88477 31.5632 7.61802L31.2795 7.09066Z" fill="url(#paint1_linear_153_10404)"/>
<path d="M87.5835 111.772C76.8156 117.564 64.5235 119.894 52.3831 118.444C40.2428 116.994 28.8451 111.834 19.7442 103.67C10.6432 95.505 4.28191 84.732 1.52761 72.8197C-1.22668 60.9073 -0.239921 48.4354 4.35336 37.1043L4.9083 37.3293C0.361301 48.5462 -0.615521 60.8924 2.11103 72.6848C4.83757 84.4771 11.1348 95.1415 20.1441 103.224C29.1533 111.306 40.4362 116.414 52.4542 117.849C64.4722 119.284 76.6404 116.978 87.2998 111.245L87.5835 111.772Z" fill="url(#paint2_linear_153_10404)"/>
<path d="M31.2795 7.09066C42.0474 1.29906 54.3396 -1.03055 66.4799 0.419479C78.6202 1.86951 90.0179 7.0286 99.1189 15.1933C108.22 23.358 114.581 34.131 117.335 46.0434C120.09 57.9557 119.103 70.4277 114.51 81.7587L113.955 81.5337C118.502 70.3169 119.479 57.9706 116.752 46.1783C114.025 34.3859 107.728 23.7215 98.719 15.6391C89.7097 7.55659 78.4269 2.44948 66.4089 1.01406C54.3909 -0.421364 42.2226 1.88477 31.5632 7.61802L31.2795 7.09066Z" fill="url(#paint3_linear_153_10404)"/>
<path d="M104.55 93.8119C105.391 97.0675 107.933 99.6081 111.187 100.45C112.271 100.73 112.271 102.269 111.187 102.549C107.932 103.391 105.391 105.933 104.55 109.187C104.27 110.271 102.73 110.271 102.45 109.187C101.609 105.933 99.0668 103.391 95.813 102.549C94.729 102.269 94.729 100.73 95.813 100.45C99.0668 99.6081 101.609 97.0659 102.45 93.8119C102.73 92.7294 104.27 92.7294 104.55 93.8119Z" fill="url(#paint4_linear_153_10404)"/>
<path d="M13.8644 7.66865C14.5575 10.3497 16.6509 12.4419 19.3304 13.135C20.2232 13.3657 20.2232 14.6334 19.3304 14.864C16.6496 15.5571 14.5575 17.6507 13.8644 20.3304C13.6338 21.2232 12.3662 21.2232 12.1356 20.3304C11.4425 17.6507 9.34911 15.5571 6.66957 14.864C5.77681 14.6334 5.77681 13.3657 6.66957 13.135C9.34911 12.4419 11.4425 10.3484 12.1356 7.66865C12.3662 6.77712 13.6338 6.77712 13.8644 7.66865Z" fill="url(#paint5_linear_153_10404)"/>
<defs>
<linearGradient id="paint0_linear_153_10404" x1="-3.17946e-06" y1="-21.8097" x2="131.949" y2="142.308" gradientUnits="userSpaceOnUse">
<stop offset="0.325" stop-color="#A27CFE"/>
<stop offset="0.665" stop-color="#71CCFF"/>
</linearGradient>
<linearGradient id="paint1_linear_153_10404" x1="118.863" y1="140.673" x2="-13.0858" y2="-23.4454" gradientUnits="userSpaceOnUse">
<stop offset="0.325" stop-color="#A27CFE"/>
<stop offset="0.665" stop-color="#71CCFF"/>
</linearGradient>
<linearGradient id="paint2_linear_153_10404" x1="-3.17946e-06" y1="-21.8097" x2="131.949" y2="142.308" gradientUnits="userSpaceOnUse">
<stop offset="0.325" stop-color="#A27CFE"/>
<stop offset="0.665" stop-color="#71CCFF"/>
</linearGradient>
<linearGradient id="paint3_linear_153_10404" x1="118.863" y1="140.673" x2="-13.0858" y2="-23.4454" gradientUnits="userSpaceOnUse">
<stop offset="0.325" stop-color="#A27CFE"/>
<stop offset="0.665" stop-color="#71CCFF"/>
</linearGradient>
<linearGradient id="paint4_linear_153_10404" x1="95" y1="89.8807" x2="113.872" y2="113.353" gradientUnits="userSpaceOnUse">
<stop offset="0.325" stop-color="#A27CFE"/>
<stop offset="0.665" stop-color="#71CCFF"/>
</linearGradient>
<linearGradient id="paint5_linear_153_10404" x1="6" y1="4.43119" x2="21.5413" y2="23.7615" gradientUnits="userSpaceOnUse">
<stop offset="0.325" stop-color="#A27CFE"/>
<stop offset="0.665" stop-color="#71CCFF"/>
</linearGradient>
</defs>
</svg>
