<svg width="109" height="80" viewBox="0 0 109 80" fill="none" xmlns="http://www.w3.org/2000/svg">
<path d="M100.078 35.6871C100.369 19.6006 80.2495 6.19043 55.141 5.73472C30.0324 5.27902 9.44244 17.9503 9.15195 34.0368C8.86146 50.1234 28.9805 63.5335 54.089 63.9892C79.1975 64.4449 99.7875 51.7736 100.078 35.6871Z" fill="#E9B522"/>
<path d="M53.9878 69.6933C24.003 69.1493 -0.109228 53.0776 0.237831 33.8668C0.584627 14.6563 25.2611 -0.529907 55.2459 0.0141752C85.2307 0.558257 109.343 16.6297 108.996 35.8402C108.649 55.0512 83.9726 70.2374 53.9878 69.6933ZM55.1427 5.72558C30.0733 5.27073 9.442 17.9673 9.15208 34.0287C8.86216 50.09 29.0216 63.5271 54.091 63.9819C79.1603 64.4368 99.7917 51.74 100.082 35.6786C100.371 19.6175 80.2121 6.18044 55.1427 5.72558Z" fill="#F7DE61"/>
<path d="M3.55385 33.927C3.89433 15.0721 27.6729 0.0954838 56.9035 0.0619572C56.3529 0.041366 55.8007 0.0242068 55.2459 0.0141752C25.2614 -0.529907 0.584621 14.6563 0.237825 33.8668C-0.108971 53.0773 24.0032 69.1493 53.9878 69.6933C54.5426 69.7034 55.095 69.7063 55.6459 69.7058C26.4358 68.6118 3.21338 52.7822 3.55385 33.927Z" fill="#FFF2BD"/>
<path d="M55.1428 5.72601C54.6569 5.7173 54.1732 5.71518 53.6908 5.71597C78.0818 6.65182 97.4627 19.8764 97.1783 35.6265C96.8939 51.3766 77.0486 63.8897 52.6399 63.9399C53.122 63.9583 53.6052 63.9739 54.0911 63.9826C79.1604 64.4375 99.7917 51.7407 100.082 35.6793C100.372 19.6179 80.2121 6.18086 55.1428 5.72601Z" fill="#CE9811"/>
<path d="M108.714 47.1358L108.792 47.1372L108.996 35.8403C108.649 55.0508 83.9725 70.2373 53.988 69.6932C24.0032 69.1491 -0.109028 53.0772 0.238031 33.8667C0.238031 33.8672 0.013409 46.3059 0.00313937 46.8824C-0.316534 64.5908 23.818 79.4405 53.8026 79.9846C83.7871 80.5286 108.441 66.5644 108.761 48.856C108.772 48.2795 108.755 47.7061 108.714 47.1358Z" fill="#B27E09"/>
<path d="M54.6134 33.5861C54.8691 31.549 53.8179 14.5789 46.0701 15.5562C40.2145 16.2949 42.7147 23.5967 42.7147 23.5967C42.7147 23.5967 35.6147 23.5995 34.7538 26.8526C33.893 30.1058 38.7286 37.4671 54.5537 33.7907C54.5509 33.7992 54.551 33.8021 54.5481 33.8078C54.5396 33.839 54.639 33.9186 54.8094 34.0294C52.9314 34.4527 37.2711 41.4675 40.9419 48.3999C43.7035 53.6162 49.65 48.6953 49.65 48.6953C49.65 48.6953 52.1615 55.3351 55.5112 54.9913C58.841 54.6475 63.975 47.5901 55.1334 34.2226C58.1393 35.9244 71.9955 41.8084 74.6293 34.9414C76.7431 29.4296 69.126 28.188 69.126 28.188C69.126 28.188 72.4757 21.9289 70.0153 19.6333C67.5634 17.349 58.8666 18.1218 54.6134 33.5861Z" fill="url(#paint0_linear_153_18787)"/>
<path d="M51.5422 31.4185C51.5422 31.4185 68.6402 46.1583 69.9585 48.9994L71.3848 47.2095C71.3848 47.2095 61.5743 37.6263 51.8037 31.6429" fill="url(#paint1_linear_153_18787)"/>
<path d="M54.0112 34.0717C54.0339 34.1512 53.7071 34.3331 53.1105 34.603C52.8178 34.7564 52.4485 34.9127 52.0366 35.1229C51.8292 35.228 51.6075 35.3388 51.3746 35.4553C51.1444 35.5803 50.9001 35.7139 50.6472 35.8531C50.1415 36.14 49.5988 36.4639 49.0306 36.839C48.4624 37.214 47.8771 37.6401 47.2776 38.1089C46.6895 38.5919 46.0759 39.1062 45.4877 39.6915C44.8883 40.2625 44.3143 40.9018 43.7546 41.5723C43.2006 42.2513 42.6948 42.9446 42.2459 43.6378C41.7885 44.331 41.4135 44.9959 41.2572 45.655C41.0981 46.3198 41.118 46.9989 41.2657 47.6012C41.4135 48.2064 41.6862 48.732 42.013 49.1496C42.3425 49.5701 42.7261 49.8912 43.0926 50.1241C43.4591 50.3599 43.8114 50.519 44.1069 50.6242C44.7007 50.8344 45.0701 50.8799 45.0701 50.9708C45.0729 51.0418 44.695 51.1583 43.9989 51.0702C43.6523 51.0247 43.2318 50.9168 42.7744 50.7009C42.3198 50.4906 41.8255 50.1667 41.3794 49.6951C40.9334 49.2235 40.547 48.5984 40.3197 47.8654C40.0924 47.1324 40.0157 46.2857 40.189 45.422C40.3623 44.5441 40.8027 43.7486 41.263 43.0213C41.7232 42.2797 42.2516 41.5411 42.8369 40.8251C43.4307 40.1148 44.0415 39.4471 44.6836 38.8562C45.3144 38.251 45.9736 37.7282 46.61 37.2452C47.2577 36.7764 47.8942 36.3588 48.5107 36.0065C49.1272 35.6514 49.7181 35.3559 50.2665 35.1087C50.5421 34.9922 50.8063 34.8786 51.0564 34.7734C51.3092 34.6825 51.5507 34.5973 51.778 34.5149C52.2269 34.3558 52.6303 34.2592 52.9514 34.1711C53.619 34.029 53.9884 33.995 54.0112 34.0717Z" fill="#CE9811"/>
<path d="M42.5179 23.7218C42.5122 23.8042 42.3247 23.8667 42.0008 23.9264C41.677 23.9889 41.2139 24.0542 40.6543 24.165C39.5407 24.3809 38.0265 24.8099 36.555 25.6706C36.1913 25.8837 35.8192 26.1138 35.5606 26.3325C35.2936 26.5626 35.1629 26.7586 35.0947 27.0314C35.0294 27.3069 35.038 27.6365 35.0664 27.9632C35.0976 28.2956 35.1288 28.6081 35.1572 28.8978C35.2169 29.4575 35.3163 29.8807 35.4158 30.1734C35.5124 30.466 35.5891 30.6421 35.5266 30.7018C35.4726 30.7557 35.2709 30.6819 35.0237 30.412C34.7737 30.1449 34.5181 29.6677 34.342 29.0711C34.2511 28.77 34.1743 28.4575 34.1004 28.1052C34.0294 27.7473 33.9584 27.3297 34.0294 26.8325C34.0692 26.5882 34.1516 26.3212 34.2908 26.0825C34.43 25.8439 34.6061 25.6422 34.7936 25.4717C35.1743 25.1308 35.555 24.8979 35.9669 24.6536C37.6174 23.6906 39.3504 23.3525 40.5748 23.3411C41.1913 23.3326 41.6855 23.3951 42.0179 23.4746C42.3475 23.5485 42.5236 23.6394 42.5179 23.7218Z" fill="#CE9811"/>
<path d="M53.1701 23.6902C53.0024 23.7385 52.6474 22.7953 52.0166 21.3605C51.6956 20.6474 51.2835 19.8178 50.7068 19.0024C50.13 18.1927 49.3715 17.3857 48.4168 16.8175C47.9452 16.5334 47.4367 16.3288 46.9508 16.2067C46.4678 16.0902 46.0502 16.1101 45.6297 16.2521C44.7944 16.5448 44.0983 17.1954 43.5329 17.7181C42.9704 18.2438 42.6124 18.7183 42.4306 19.0876C42.2487 19.4541 42.2062 19.7041 42.1181 19.707C42.047 19.7155 41.922 19.4513 41.993 18.9541C42.0584 18.4597 42.3879 17.7977 42.9192 17.1556C43.1806 16.8346 43.4789 16.4936 43.8511 16.1527C44.2262 15.8174 44.6722 15.4708 45.249 15.235C45.8172 14.9907 46.5559 14.9338 47.1952 15.0787C47.8316 15.2179 48.4453 15.4595 49.0192 15.8032C50.1727 16.4908 51.0165 17.4539 51.6103 18.3972C52.2013 19.3518 52.5593 20.2809 52.7951 21.0679C53.028 21.8549 53.1503 22.5027 53.2042 22.9572C53.2639 23.4118 53.2496 23.6704 53.1701 23.6902Z" fill="#CE9811"/>
<path d="M63.5404 19.4996C63.5887 19.565 63.4978 19.7355 63.2932 19.9884C63.1796 20.1219 63.0517 20.2696 62.9125 20.4315C62.7562 20.6049 62.5829 20.7952 62.3982 20.9998C62.0147 21.4146 61.5743 21.9203 61.097 22.4857C60.8668 22.7755 60.6111 23.0681 60.3725 23.392C60.1224 23.7074 59.881 24.0455 59.6281 24.3893C59.3866 24.7416 59.1479 25.0796 58.9292 25.4206C58.7047 25.753 58.5087 26.0883 58.3126 26.4036C57.9348 27.0401 57.6052 27.6225 57.3353 28.1197C57.2018 28.3612 57.0796 28.5856 56.9659 28.7902C56.858 28.9749 56.7614 29.1425 56.6704 29.2959C56.5 29.5715 56.3665 29.7164 56.2898 29.6908C56.2131 29.6653 56.196 29.4721 56.2386 29.1425C56.2585 28.9777 56.2926 28.7788 56.3495 28.5515C56.4063 28.3242 56.4688 28.0657 56.5682 27.7873C56.7472 27.2276 57.0142 26.577 57.358 25.878C57.537 25.5343 57.7245 25.1678 57.949 24.8069C58.1621 24.4404 58.4093 24.0768 58.665 23.7046C58.9321 23.3409 59.1934 22.9886 59.469 22.6675C59.7361 22.338 60.0202 22.0425 60.2872 21.7584C60.8356 21.2044 61.3612 20.7384 61.8328 20.3861C62.063 20.2043 62.2874 20.0594 62.4835 19.9315C62.6795 19.8037 62.8556 19.7042 63.0062 19.6332C63.3045 19.4826 63.4921 19.4343 63.5404 19.4996Z" fill="#CE9811"/>
<defs>
<linearGradient id="paint0_linear_153_18787" x1="35.7997" y1="24.3542" x2="79.1599" y2="46.6406" gradientUnits="userSpaceOnUse">
<stop offset="0.0015" stop-color="#FADC4E"/>
<stop offset="1" stop-color="#F5D132"/>
</linearGradient>
<linearGradient id="paint1_linear_153_18787" x1="34.568" y1="26.7503" x2="77.9283" y2="49.0364" gradientUnits="userSpaceOnUse">
<stop offset="0.0015" stop-color="#FADC4E"/>
<stop offset="1" stop-color="#F5D132"/>
</linearGradient>
</defs>
</svg>
