<svg width="109" height="80" viewBox="0 0 109 80" fill="none" xmlns="http://www.w3.org/2000/svg">
<path d="M100.078 35.6871C100.369 19.6006 80.2495 6.19043 55.141 5.73472C30.0324 5.27902 9.44244 17.9503 9.15195 34.0368C8.86146 50.1234 28.9805 63.5335 54.089 63.9892C79.1975 64.4449 99.7875 51.7736 100.078 35.6871Z" fill="#E9B522"/>
<path d="M53.9878 69.6933C24.003 69.1493 -0.109228 53.0776 0.237831 33.8668C0.584627 14.6563 25.2611 -0.529907 55.2459 0.0141752C85.2307 0.558257 109.343 16.6297 108.996 35.8402C108.649 55.0512 83.9726 70.2374 53.9878 69.6933ZM55.1427 5.72558C30.0733 5.27073 9.442 17.9673 9.15208 34.0287C8.86216 50.09 29.0216 63.5271 54.091 63.9819C79.1603 64.4368 99.7917 51.74 100.082 35.6786C100.371 19.6175 80.2121 6.18044 55.1427 5.72558Z" fill="#F7DE61"/>
<path d="M68.9175 47.8504C66.511 49.3047 63.3048 50.1845 59.298 50.4892L59.217 54.9815L52.7748 54.8645L52.8543 50.4533C50.0354 50.2669 47.4204 49.8693 45.0099 49.2585C42.5981 48.6481 40.4963 47.8409 38.7039 46.8369L41.5517 43.0838C45.1816 44.9847 49.1209 46.0682 53.3707 46.3337L53.5226 37.917C50.7095 37.4077 48.3394 36.8584 46.4129 36.2705C44.4859 35.6826 42.8791 34.8293 41.5943 33.7137C40.3088 32.5973 39.6824 31.1625 39.714 29.4091C39.7403 27.9522 40.3322 26.6341 41.4909 25.454C42.6495 24.2745 44.2565 23.3054 46.3136 22.5465C48.3699 21.7883 50.7266 21.3247 53.3833 21.1565L53.4644 16.665L59.9066 16.782L59.8263 21.2331C62.2644 21.4667 64.5532 21.886 66.6903 22.4913C68.8274 23.0971 70.6244 23.845 72.0832 24.7347L69.2353 28.4878C66.1905 26.8136 62.8811 25.7822 59.3088 25.3931L59.1503 34.1741C61.9624 34.6847 64.2906 35.2185 66.1342 35.7784C67.9772 36.3378 69.5208 37.1551 70.7652 38.2303C72.0092 39.3053 72.6161 40.6925 72.5856 42.3921C72.5463 44.5772 71.3229 46.3968 68.9175 47.8504ZM49.341 31.5876C50.3409 32.1863 51.7633 32.7042 53.609 33.1427L53.7501 25.3326C51.9348 25.543 50.5052 25.9894 49.4614 26.6715C48.4163 27.355 47.8857 28.222 47.8667 29.274C47.8496 30.2188 48.3412 30.9894 49.341 31.5876ZM62.9993 44.9507C63.9367 44.3066 64.4163 43.4581 64.4352 42.4061C64.4502 41.5703 63.9984 40.8874 63.0823 40.3578C62.1649 39.8288 60.8253 39.3726 59.0634 38.989L58.9326 46.2329C60.7055 46.0217 62.0608 45.5948 62.9993 44.9507Z" fill="#CE9811"/>
<path d="M3.55385 33.927C3.89433 15.0721 27.6729 0.0954838 56.9035 0.0619572C56.3529 0.041366 55.8007 0.0242068 55.2459 0.0141752C25.2614 -0.529907 0.584621 14.6563 0.237825 33.8668C-0.108971 53.0773 24.0032 69.1493 53.9878 69.6933C54.5426 69.7034 55.095 69.7063 55.6459 69.7058C26.4358 68.6118 3.21338 52.7822 3.55385 33.927Z" fill="#FFF2BD"/>
<path d="M55.1428 5.72601C54.6569 5.7173 54.1732 5.71518 53.6908 5.71597C78.0818 6.65182 97.4627 19.8764 97.1783 35.6265C96.8939 51.3766 77.0486 63.8897 52.6399 63.9399C53.122 63.9583 53.6052 63.9739 54.0911 63.9826C79.1604 64.4375 99.7917 51.7407 100.082 35.6793C100.372 19.6179 80.2121 6.18086 55.1428 5.72601Z" fill="#CE9811"/>
<path d="M48.1543 30.6278C49.1541 31.2265 50.5765 31.7445 52.4222 32.183L52.5631 24.3729C50.7477 24.5833 49.3181 25.0299 48.2743 25.7118C47.2292 26.3953 46.6986 27.2622 46.6796 28.3142C46.6628 29.2588 47.1542 30.0296 48.1543 30.6278ZM61.8125 43.991C62.7499 43.3468 63.2295 42.4984 63.2484 41.4464C63.2634 40.6106 62.8116 39.9276 61.8955 39.3981C60.9781 38.869 59.6385 38.4129 57.8766 38.0293L57.7458 45.2731C59.5185 45.062 60.874 44.6348 61.8125 43.991ZM67.7307 46.8906C65.3242 48.3449 62.118 49.2248 58.1113 49.5294L58.0302 54.0218L51.5882 53.9048L51.6678 49.4935C48.8489 49.3072 46.2338 48.9096 43.8234 48.2987C41.4116 47.6886 39.3098 46.8811 37.5173 45.8774L40.3652 42.1243C43.9951 44.0253 47.9344 45.1087 52.1841 45.3743L52.3361 36.9575C49.523 36.4483 47.1528 35.8989 45.2264 35.311C43.2994 34.7231 41.6926 33.8699 40.4078 32.7543C39.1223 31.6378 38.4958 30.2031 38.5274 28.4496C38.5538 26.9927 39.1457 25.6746 40.3043 24.4946C41.463 23.3151 43.07 22.346 45.1271 21.587C47.1834 20.8288 49.5401 20.3652 52.1968 20.1971L52.2779 15.7056L58.7198 15.8225L58.6395 20.2734C61.0779 20.507 63.3664 20.9262 65.5035 21.5315C67.6406 22.1374 69.4376 22.8853 70.8964 23.7749L68.0485 27.5281C65.0037 25.8538 61.6943 24.8224 58.1221 24.4333L57.9635 33.2144C60.7756 33.7249 63.1039 34.2587 64.9474 34.8186C66.7904 35.378 68.334 36.1954 69.5784 37.2706C70.8224 38.3455 71.4293 39.7328 71.3988 41.4321C71.3596 43.6171 70.1362 45.4371 67.7307 46.8906Z" fill="#F7DE61"/>
<path d="M108.714 47.1358L108.792 47.1372L108.996 35.8403C108.649 55.0508 83.9725 70.2373 53.988 69.6932C24.0032 69.1491 -0.109028 53.0772 0.238031 33.8667C0.238031 33.8672 0.013409 46.3059 0.00313937 46.8824C-0.316534 64.5908 23.818 79.4405 53.8026 79.9846C83.7871 80.5286 108.441 66.5644 108.761 48.856C108.772 48.2795 108.755 47.7061 108.714 47.1358Z" fill="#B27E09"/>
</svg>
