<svg width="66" height="60" viewBox="0 0 66 60" fill="none" xmlns="http://www.w3.org/2000/svg">
<path d="M29.791 50.458C41.2051 50.458 50.458 41.2051 50.458 29.791C50.458 18.3769 41.2051 9.12399 29.791 9.12399C18.3769 9.12399 9.12402 18.3769 9.12402 29.791C9.12402 41.2051 18.3769 50.458 29.791 50.458Z" fill="#FDC453"/>
<path d="M65.214 29.791L54.208 18.785C50 9.488 40.642 3 29.791 3C15.019 3 3 15.018 3 29.792C3 44.565 15.019 56.584 29.791 56.584C40.642 56.584 50 50.096 54.208 40.799L65.214 29.791ZM29.79 53.583C16.672 53.583 5.99899 42.91 5.99899 29.791C5.99899 16.672 16.672 5.99899 29.79 5.99899C42.909 5.99899 53.582 16.672 53.582 29.791C53.582 42.91 42.909 53.583 29.79 53.583Z" fill="#FDC453"/>
<path d="M45 45.0001C53.2843 36.7158 53.2843 23.2843 45 15.0001C36.7157 6.71579 23.2843 6.71579 15 15.0001C6.71573 23.2843 6.71573 36.7158 15 45.0001C23.2843 53.2843 36.7157 53.2843 45 45.0001Z" fill="#FFD05D"/>
<path d="M41.0997 11.8948C43.2122 15.193 44.4371 19.1141 44.4371 23.3213C44.4371 35.0373 34.9397 44.5348 23.2237 44.5348C19.1548 44.5348 15.3539 43.3882 12.125 41.4021C15.895 47.2878 22.4925 51.189 30.0009 51.189C41.7169 51.189 51.2144 41.6913 51.2144 29.9756C51.2146 22.3288 47.1678 15.6278 41.0997 11.8948Z" fill="#FDC453"/>
<path d="M11.671 32.2386C11.671 21.3611 20.489 12.5431 31.3665 12.5431C37.7246 12.5431 43.3778 15.5568 46.9789 20.2324C43.5779 14.3283 37.2034 10.3535 29.9006 10.3535C19.0231 10.3535 10.2051 19.1715 10.2051 30.049C10.2051 34.5683 11.7285 38.7316 14.2882 42.0551C12.6234 39.1651 11.671 35.8132 11.671 32.2386Z" fill="#FFD77F"/>
<path d="M21.3062 34.4547C20.7599 33.9238 19.8841 34.5109 20.1673 35.2182C21.7347 39.1346 25.5635 41.9014 30.0398 41.9014C34.4415 41.9014 38.2167 39.2264 39.8317 35.4136C40.1264 34.718 39.2439 34.1159 38.7015 34.6416C35.5968 37.6515 29.006 41.9345 21.3062 34.4547Z" fill="#5E4939"/>
<path d="M44.9743 21.9528L36.3598 22.6663C36.258 22.6663 36.1575 22.6716 36.0547 22.682C35.9768 22.6915 33.2021 23.0225 30.111 23.2034C30.0383 23.2077 29.9646 23.2077 29.892 23.2034C26.8002 23.0222 24.0247 22.6912 23.9445 22.6818C23.8455 22.6716 23.7449 22.6663 23.6431 22.6663L15.0287 21.9528C13.3341 21.9197 12.3991 22.7532 12.4872 24.2273C12.4906 24.2838 13.0962 27.6372 13.0962 27.6372C13.293 28.7883 13.5081 29.7337 14.2124 30.7743C14.579 31.3159 15.1235 31.7233 15.7064 32.0222C16.0026 32.174 16.3166 32.291 16.6407 32.3684C16.9125 32.4333 17.2129 32.4301 17.5033 32.4463C17.7599 32.4605 18.1795 32.4806 18.4363 32.4806H20.4037C20.9557 32.4806 21.1561 32.4806 21.2208 32.4806C22.1312 32.4806 23.0578 32.2661 23.8724 31.8597C25.1521 31.2213 25.893 30.166 26.4246 28.8818C26.9266 27.6691 27.9301 26.7517 28.999 26.0511C29.609 25.6512 30.3945 25.6512 31.0045 26.0511C31.5811 26.4291 32.1167 26.8744 32.5806 27.3856C32.9218 27.7616 33.1978 28.235 33.4758 28.6685C33.7904 29.1588 33.9918 29.7412 34.3183 30.2402C34.6473 30.7432 35.0124 31.1543 35.5179 31.5008C36.3643 32.0809 37.3882 32.3985 38.4083 32.4679C38.5328 32.4764 38.6577 32.4811 38.7824 32.4811C38.8471 32.4811 39.0475 32.4811 39.5995 32.4811H41.5669C41.824 32.4811 42.2433 32.4612 42.4999 32.4468C42.7906 32.4306 43.0907 32.4338 43.3625 32.3689C43.6863 32.2917 44.0004 32.1748 44.2968 32.0227C44.8797 31.724 45.4242 31.3166 45.7908 30.7748C46.4952 29.7345 46.7102 28.789 46.9071 27.6377C46.9071 27.6377 47.5128 24.2843 47.5161 24.2278C47.6039 22.7532 46.6689 21.9197 44.9743 21.9528Z" fill="#2D292A"/>
<path d="M38.7821 32.4804C38.8468 32.4804 39.0472 32.4804 39.5992 32.4804H41.5666C41.8234 32.4804 42.243 32.4605 42.4996 32.446C42.7903 32.4298 43.0904 32.4331 43.3622 32.3681C43.686 32.291 44.0001 32.174 44.2965 32.0219C44.8794 31.7233 45.4239 31.3159 45.7905 30.7741C46.4948 29.7338 46.7099 28.7883 46.9067 27.6369C46.9067 27.6369 47.5125 24.2836 47.5157 24.2271C47.5279 24.0215 47.5185 23.8296 47.4916 23.6494C43.5245 29.7925 38.7119 31.2778 35.6211 31.565C36.4471 32.1021 37.4284 32.4002 38.408 32.4667C38.5325 32.4759 38.6574 32.4804 38.7821 32.4804Z" fill="#414042"/>
<path d="M15.7062 32.022C16.0023 32.1738 16.3164 32.2908 16.6405 32.3682C16.9122 32.4332 17.2126 32.4299 17.5031 32.4461C17.7597 32.4603 18.1793 32.4805 18.4361 32.4805H20.4035C20.9555 32.4805 21.1559 32.4805 21.2206 32.4805C22.131 32.4805 23.0575 32.2659 23.8721 31.8595C25.1519 31.2211 25.8928 30.1659 26.4244 28.8817C26.6912 28.2373 27.1016 27.6786 27.5859 27.1893C21.8482 30.9909 17.0738 31.5892 15.0972 31.6547C15.2908 31.7918 15.4959 31.9143 15.7062 32.022Z" fill="#414042"/>
</svg>
