<svg width="63" height="54" viewBox="0 0 63 54" fill="none" xmlns="http://www.w3.org/2000/svg">
<path d="M26.791 47.458C38.2051 47.458 47.458 38.2051 47.458 26.791C47.458 15.3769 38.2051 6.12399 26.791 6.12399C15.3769 6.12399 6.12402 15.3769 6.12402 26.791C6.12402 38.2051 15.3769 47.458 26.791 47.458Z" fill="#FDC453"/>
<path d="M62.214 26.791L51.208 15.785C47 6.488 37.642 0 26.791 0C12.019 0 0 12.018 0 26.792C0 41.565 12.019 53.584 26.791 53.584C37.642 53.584 47 47.096 51.208 37.799L62.214 26.791ZM26.79 50.583C13.672 50.583 2.99899 39.91 2.99899 26.791C2.99899 13.672 13.672 2.99899 26.79 2.99899C39.909 2.99899 50.582 13.672 50.582 26.791C50.582 39.91 39.909 50.583 26.79 50.583Z" fill="#FDC453"/>
<path d="M25.1585 23.7904C25.1585 23.7904 19.5713 14.1687 22.5199 9.51321C25.4686 4.85705 30.5896 7.3409 31.6762 11.5301C32.7627 15.7207 29.3484 23.7904 29.3484 23.7904C29.3484 23.7904 33.5383 13.5477 39.1256 13.7031C44.7121 13.8585 44.7122 19.4451 41.7642 21.9282C38.8155 24.4114 31.6769 25.6526 31.6769 25.6526C31.6769 25.6526 41.9189 23.9458 45.023 27.6702C48.1271 31.3946 43.9365 34.3433 39.281 33.7223C34.6255 33.1014 30.1248 29.2223 30.1248 29.2223C30.1248 29.2223 37.4188 34.0332 38.1945 39.465C38.9709 44.8968 31.9096 44.9742 30.2802 42.4137C28.6508 39.8532 28.3016 31.3563 28.3016 31.3563C28.3016 31.3563 30.6294 45.0906 25.0428 46.72C19.4563 48.3494 19.2235 39.2705 22.9479 32.5201C16.4295 42.0638 11.774 41.4819 10.3774 38.5722C8.98077 35.6626 12.356 29.7269 20.6194 29.8432C10.3774 29.9596 7.11789 27.3991 7.00151 24.3731C6.88512 21.347 13.5192 18.5537 21.8997 25.4205C12.9372 17.0407 12.2389 14.945 15.7305 13.3156C19.2228 11.6855 22.8301 18.9015 25.1585 23.7904Z" fill="#F6F2F6"/>
<path d="M30.8756 28.4104C30.8756 30.8015 28.9367 32.7403 26.5456 32.7403C24.1537 32.7403 22.2156 30.8015 22.2156 28.4104C22.2156 26.0185 24.1544 24.0797 26.5456 24.0797C28.9374 24.0797 30.8756 26.0185 30.8756 28.4104Z" fill="#FFCE00"/>
</svg>
