<svg width="66" height="60" viewBox="0 0 66 60" fill="none" xmlns="http://www.w3.org/2000/svg">
<path d="M29.791 51.458C41.2051 51.458 50.458 42.2051 50.458 30.791C50.458 19.3769 41.2051 10.124 29.791 10.124C18.3769 10.124 9.12402 19.3769 9.12402 30.791C9.12402 42.2051 18.3769 51.458 29.791 51.458Z" fill="white"/>
<path d="M65.214 30.791L54.208 19.785C50 10.488 40.642 4 29.791 4C15.019 4 3 16.018 3 30.792C3 45.565 15.019 57.584 29.791 57.584C40.642 57.584 50 51.096 54.208 41.799L65.214 30.791ZM29.79 54.583C16.672 54.583 5.99899 43.91 5.99899 30.791C5.99899 17.672 16.672 6.99899 29.79 6.99899C42.909 6.99899 53.582 17.672 53.582 30.791C53.582 43.91 42.909 54.583 29.79 54.583Z" fill="#FFD05D"/>
<path d="M45 45C53.2843 36.7157 53.2843 23.2843 45 15C36.7157 6.71573 23.2843 6.71573 15 15C6.71572 23.2843 6.71573 36.7157 15 45C23.2843 53.2843 36.7157 53.2843 45 45Z" fill="#FFCB27"/>
<path d="M41.1019 11.8944C43.2144 15.1925 44.4393 19.1136 44.4393 23.3209C44.4393 35.0369 34.9417 44.5343 23.2259 44.5343C19.157 44.5343 15.3561 43.3877 12.1272 41.4017C15.8972 47.2874 22.4947 51.1886 30.0031 51.1886C41.7191 51.1886 51.2166 41.6911 51.2166 29.9752C51.2166 22.3284 47.17 15.6273 41.1019 11.8944Z" fill="#F9C021"/>
<path d="M11.6729 32.2382C11.6729 21.3607 20.4909 12.5427 31.3684 12.5427C37.7265 12.5427 43.3798 15.5564 46.9808 20.232C43.5799 14.3279 37.2054 10.3531 29.9025 10.3531C19.025 10.3531 10.207 19.1711 10.207 30.0486C10.207 34.5679 11.7304 38.7312 14.2901 42.0547C12.6254 39.1648 11.6729 35.8128 11.6729 32.2382Z" fill="#FFD95F"/>
<path d="M43.8933 26.2902C43.7753 25.9278 43.4679 25.6687 43.0909 25.614L35.1487 24.4597L31.5969 17.2631C31.4282 16.9214 31.0867 16.7088 30.7054 16.7088C30.3244 16.7088 29.9829 16.9214 29.8142 17.2631L26.2625 24.4597L18.3207 25.6137C17.9432 25.6687 17.6358 25.9278 17.5179 26.2902C17.4002 26.6528 17.4965 27.0433 17.7695 27.3093L23.5166 32.9113L22.1599 40.8214C22.0955 41.1972 22.2473 41.5698 22.5557 41.7936C22.8635 42.0173 23.265 42.0464 23.602 41.8692L30.7057 38.1345L37.8094 41.8692C37.956 41.9464 38.1148 41.9844 38.2728 41.9844C38.4779 41.9844 38.6818 41.9202 38.856 41.7936C39.1643 41.5696 39.3161 41.1972 39.2517 40.8212L37.895 32.9113L43.6419 27.3093C43.9147 27.0435 44.0112 26.6528 43.8933 26.2902Z" fill="white"/>
</svg>
