<svg width="66" height="60" viewBox="0 0 66 60" fill="none" xmlns="http://www.w3.org/2000/svg">
<path d="M29.791 50.458C41.2051 50.458 50.458 41.2051 50.458 29.791C50.458 18.3769 41.2051 9.12399 29.791 9.12399C18.3769 9.12399 9.12402 18.3769 9.12402 29.791C9.12402 41.2051 18.3769 50.458 29.791 50.458Z" fill="#FFD05D"/>
<path d="M65.214 29.791L54.208 18.785C50 9.488 40.642 3 29.791 3C15.019 3 3 15.018 3 29.792C3 44.565 15.019 56.584 29.791 56.584C40.642 56.584 50 50.096 54.208 40.799L65.214 29.791ZM29.79 53.583C16.672 53.583 5.99899 42.91 5.99899 29.791C5.99899 16.672 16.672 5.99899 29.79 5.99899C42.909 5.99899 53.582 16.672 53.582 29.791C53.582 42.91 42.909 53.583 29.79 53.583Z" fill="#FFD05D"/>
<path d="M45 45C53.2843 36.7157 53.2843 23.2843 45 15C36.7157 6.71574 23.2843 6.71574 15 15C6.71573 23.2843 6.71573 36.7157 15 45C23.2843 53.2843 36.7157 53.2843 45 45Z" fill="#FFD05D"/>
<path d="M41.0992 11.8943C43.2117 15.1924 44.4367 19.1135 44.4367 23.3208C44.4367 35.0368 34.9392 44.5342 23.2233 44.5342C19.1543 44.5342 15.3535 43.3876 12.1245 41.4016C15.8945 47.2876 22.492 51.1885 30.0005 51.1885C41.7164 51.1885 51.2139 41.691 51.2139 29.9751C51.2141 22.328 47.1674 15.627 41.0992 11.8943Z" fill="#FDC453"/>
<path d="M11.6702 32.2381C11.6702 21.3607 20.4883 12.5426 31.3657 12.5426C37.7238 12.5426 43.3771 15.5563 46.9781 20.232C43.5772 14.3279 37.2027 10.353 29.8998 10.353C19.0224 10.353 10.2043 19.171 10.2043 30.0485C10.2043 34.5679 11.7277 38.7311 14.2874 42.0547C12.6227 39.1647 11.6702 35.8125 11.6702 32.2381Z" fill="#FFD77F"/>
<path d="M23.7482 24.8534C23.7482 26.3086 23.0484 27.488 22.1853 27.488C21.3222 27.488 20.6223 26.3086 20.6223 24.8534C20.6223 23.3982 21.3222 22.2188 22.1853 22.2188C23.0484 22.2188 23.7482 23.3982 23.7482 24.8534Z" fill="#303030"/>
<path d="M39.3788 24.8534C39.3788 26.3086 38.679 27.488 37.8159 27.488C36.9528 27.488 36.2527 26.3086 36.2527 24.8534C36.2527 23.3982 36.9525 22.2188 37.8159 22.2188C38.6793 22.2188 39.3788 23.3982 39.3788 24.8534Z" fill="#303030"/>
<path d="M15.7461 32.0064C16.554 39.1649 22.6261 44.7291 30.0006 44.7291C37.3751 44.7291 43.4473 39.1649 44.2551 32.0064H15.7461Z" fill="#695342"/>
<path d="M20.1543 40.811C22.7235 43.2383 26.1866 44.7293 30.0007 44.7293C33.6502 44.7293 36.9795 43.3652 39.5108 41.1209L39.3792 40.8125C29.8065 36.1448 20.2845 40.7475 20.1543 40.811Z" fill="#F06669"/>
</svg>
