<svg width="36" height="36" viewBox="0 0 36 36" fill="none" xmlns="http://www.w3.org/2000/svg">
<path d="M34.6257 18.054C34.6257 13.5854 32.8142 9.53968 29.8857 6.6111C26.9571 3.68252 22.9113 1.87109 18.4427 1.87109C13.9741 1.87109 9.92835 3.68252 6.99977 6.6111C4.07119 9.53968 2.25977 13.5854 2.25977 18.054C2.25977 22.5227 4.07119 26.5684 6.99977 29.497C9.92835 32.4256 13.9741 34.237 18.4427 34.237C22.9113 34.237 26.9571 32.4256 29.8857 29.497C32.8142 26.5684 34.6257 22.5227 34.6257 18.054Z" fill="#89C8FD"/>
<path d="M23.9111 2.81843C22.2029 2.20574 20.3624 1.87109 18.4427 1.87109C13.9741 1.87109 9.92835 3.68252 6.99977 6.6111C4.07119 9.53968 2.25977 13.5854 2.25977 18.054C2.25977 21.3656 3.25455 24.4448 4.96192 27.0096C4.98606 26.9655 5.00937 26.9214 5.03185 26.8764C5.03767 26.8664 5.0435 26.8564 5.04849 26.8456C5.11925 26.7008 5.18335 26.5443 5.23996 26.3753C5.36649 25.9998 5.43059 25.6186 5.46306 25.2373C5.49219 24.9043 5.49552 24.5447 5.49885 24.1884C5.49969 24.1751 5.50052 24.1618 5.50135 24.1476H5.49969V24.1085C5.50302 23.6531 5.50718 23.1986 5.51051 22.7308C5.51384 22.2987 5.6795 21.9483 5.9309 21.6994C6.12486 21.5071 6.3696 21.3739 6.63099 21.3073C6.89572 21.2399 7.17459 21.2407 7.43348 21.3164C7.76064 21.413 8.06199 21.6336 8.26844 21.9982C8.27093 22.0041 8.27426 22.0099 8.27759 22.0165H8.27843L8.28009 22.0199L8.28592 22.0307C8.29008 22.039 8.29424 22.0482 8.29841 22.0565L8.29924 22.0557L8.30007 22.0565H8.3009C8.45241 22.3395 8.60392 22.6617 8.75709 22.9855C9.30318 24.1443 9.85593 25.3156 11.0114 25.9649C11.5308 26.2562 12.0828 26.3853 12.6355 26.5143C13.1308 26.63 13.6253 26.7457 14.0315 26.9771C14.4561 27.2186 14.8115 27.5982 15.1687 27.9794C15.4342 28.2633 15.6998 28.5472 16.0036 28.7961C16.4565 29.1682 17.0625 29.4404 17.6452 29.4912C18.1963 29.5386 18.7341 29.3971 19.1395 28.9767C19.5166 28.5863 19.649 28.0968 19.6623 27.579C19.6739 27.1212 19.5907 26.6591 19.5124 26.2354C19.3126 25.1507 19.2277 24.0461 19.2552 22.9439C19.2827 21.8534 19.4225 20.7612 19.6739 19.6915C19.6756 19.684 19.6781 19.6765 19.6798 19.669H19.6789C19.7106 19.535 19.7455 19.3993 19.7921 19.2852C19.8296 19.192 19.8762 19.1096 19.9361 19.0497C20.046 18.9398 20.2417 18.8657 20.4373 18.7916C20.4972 18.7691 20.558 18.7458 20.6354 18.7142C20.6487 18.71 20.6621 18.705 20.6745 18.7C21.2756 18.4478 21.7884 18.0091 22.153 17.4705C22.5176 16.9336 22.7349 16.2951 22.7474 15.6408C22.7598 14.9873 22.5659 14.3413 22.2229 13.7927C21.8783 13.2424 21.3813 12.7846 20.7877 12.5091C19.6023 11.9588 18.3528 12.1594 17.095 12.3609C16.0594 12.5274 15.0172 12.6947 14.1123 12.3792C13.9774 12.3317 13.8467 12.2718 13.7219 12.2002C14.4652 11.5209 15.192 10.8433 15.8896 10.1823C16.3358 10.4887 16.8086 10.7426 17.3797 10.7884C17.3905 10.79 17.4013 10.7909 17.4121 10.7917V10.7909C17.5403 10.7992 17.6752 10.7959 17.8084 10.7701C17.9441 10.7434 18.0773 10.6951 18.2005 10.616C18.2163 10.6069 18.2313 10.5977 18.2463 10.5869V10.5861C18.7799 10.1998 18.7166 9.64873 18.655 9.10181C18.6408 8.97861 18.6267 8.85624 18.6234 8.75967C18.6242 8.74802 18.6242 8.73553 18.6242 8.72388H18.6225C18.6192 8.31347 18.8565 7.98299 19.2069 7.73242C19.7172 7.36697 20.4498 7.16468 21.1057 7.10974L21.2098 7.10142C22.0223 7.03399 22.913 6.9599 23.5041 6.26979C23.7779 5.9493 23.9145 5.57053 23.9752 5.17345C24.0302 4.81882 24.0218 4.45004 24.0035 4.10208C23.9852 3.75161 23.9636 3.42196 23.9394 3.11229C23.9344 3.05734 23.9244 2.95412 23.9111 2.81843Z" fill="#BAEB6C"/>
<path d="M11.8157 32.8219C13.8385 33.731 16.0812 34.2371 18.4429 34.2371C20.2301 34.2371 21.95 33.9474 23.5575 33.4121C23.3252 33.05 23.0638 32.7087 22.7641 32.4074C22.3637 32.0044 21.9009 31.6765 21.359 31.4708C20.3508 31.0871 19.3244 31.2003 18.2905 31.3143C17.5754 31.3934 16.8554 31.4733 16.1911 31.3668C16.0371 31.3418 15.8639 31.3018 15.6908 31.2619C15.2987 31.172 14.9074 31.0821 14.4754 31.1037C13.8227 31.1354 13.2675 31.4051 12.7813 31.7997C12.4225 32.0927 12.1054 32.449 11.8157 32.8219Z" fill="#BAEB6C"/>
<path d="M34.6257 18.054C34.6257 14.0982 33.2063 10.4737 30.8488 7.66248C31.0727 8.36757 30.7697 7.41024 30.9903 8.10201C31.0844 8.3967 30.7689 7.40858 31.1568 8.62979V8.63062C31.161 8.64311 31.1651 8.65476 31.1701 8.66642C31.2126 8.79878 31.2542 8.93364 31.2842 9.07266C31.3116 9.19919 31.3275 9.32323 31.32 9.4406H31.3191C31.3183 9.44893 31.3183 9.45642 31.3183 9.46474C31.2692 10.0033 30.7356 10.4487 30.2186 10.8799C30.0871 10.9898 29.9564 11.0989 29.7957 11.2445C29.0732 11.898 28.5396 12.7438 28.2324 13.6653C27.9252 14.5868 27.8453 15.585 28.0309 16.539L28.0301 16.5406C28.0318 16.5481 28.0334 16.5548 28.0351 16.5623C28.1891 17.3365 28.4388 17.8501 28.6611 18.3063C28.945 18.889 29.1731 19.3577 28.9641 20.2476C28.915 20.4565 28.8226 20.6488 28.6977 20.8194C28.5595 21.0084 28.3831 21.1724 28.1816 21.3056C27.8536 21.5229 27.5473 21.9016 27.3125 22.3062C27.0561 22.7491 26.8738 23.2477 26.8414 23.6098C26.8022 24.0535 26.9071 24.4789 27.1044 24.8644C27.3184 25.2831 27.6414 25.6527 28.0001 25.9432L28.021 25.9599C28.2615 26.153 28.5595 26.3927 28.5246 26.5301C28.5071 26.5992 28.3914 26.6991 28.2807 26.7948L28.2357 26.8339L28.2341 26.8331C28.2224 26.8431 28.2108 26.8539 28.2008 26.8656C27.3292 27.6572 27.4699 28.7253 27.618 29.8458C27.6838 30.3452 27.7512 30.858 27.7104 31.3226C28.4888 30.7781 29.2164 30.1671 29.8865 29.4978C32.8142 26.5684 34.6257 22.5227 34.6257 18.054Z" fill="#BAEB6C"/>
<path d="M9.33236 27.614C9.42227 27.718 9.55463 27.7838 9.7028 27.7838C9.97252 27.7838 10.1906 27.5648 10.1906 27.296V25.164C10.7167 25.1299 11.1904 24.9018 11.5409 24.5513C11.9221 24.1701 12.1577 23.6431 12.1577 23.0612V15.1554C12.1577 14.5735 11.9221 14.0466 11.5409 13.6653C11.1596 13.284 10.6327 13.0485 10.0508 13.0485V13.0501H2.14577V13.0485C1.56388 13.0485 1.03693 13.284 0.655669 13.6653C0.274404 14.0466 0.0388184 14.5735 0.0388184 15.1554V23.0612C0.0388184 23.6431 0.274404 24.1701 0.655669 24.5513C1.03693 24.9326 1.56388 25.1682 2.14577 25.1682V25.1665H6.88577L9.33236 27.614Z" fill="#FFAE06"/>
<path d="M36 5.9143V13.8201C36 14.402 35.7644 14.929 35.3832 15.3102C35.0019 15.6915 34.4749 15.9271 33.8931 15.9271H29.1531L26.6815 18.3986C26.4909 18.5893 26.182 18.5893 25.9914 18.3986C25.8965 18.3037 25.8482 18.178 25.8482 18.0532V15.9221C25.3221 15.888 24.8484 15.6599 24.498 15.3094C24.1167 14.9281 23.8811 14.4012 23.8811 13.8193V5.91347C23.8811 5.33241 24.1175 4.8063 24.4996 4.42337C24.8809 4.0421 25.407 3.80652 25.9881 3.80652H33.8931C34.4741 3.80652 35.0002 4.0421 35.3815 4.42337C35.7636 4.8063 36 5.33324 36 5.9143Z" fill="#EF5350"/>
<path d="M31.6662 13.0751C31.6662 13.3449 31.8852 13.563 32.154 13.563C32.4238 13.563 32.6419 13.344 32.6419 13.0751V8.87208C32.6419 8.12619 32.3397 7.45024 31.8502 6.96159C31.3615 6.47294 30.6856 6.16992 29.9397 6.16992C29.1938 6.16992 28.5179 6.4721 28.0292 6.96159C27.5406 7.45024 27.2375 8.12619 27.2375 8.87208V13.0751C27.2375 13.3449 27.4565 13.563 27.7254 13.563C27.9951 13.563 28.2132 13.344 28.2132 13.0751V8.87208C28.2132 8.39508 28.4063 7.96387 28.7185 7.65169C29.0307 7.33952 29.4619 7.14639 29.9389 7.14639C30.4159 7.14639 30.8471 7.33952 31.1592 7.65169C31.4714 7.96387 31.6646 8.39508 31.6646 8.87208V13.0751H31.6662Z" fill="white"/>
<path d="M32.1539 10.3554C32.4237 10.3554 32.6418 10.1365 32.6418 9.86758C32.6418 9.5987 32.4228 9.37976 32.1539 9.37976H27.7261C27.4564 9.37976 27.2383 9.5987 27.2383 9.86758C27.2383 10.1365 27.4572 10.3554 27.7261 10.3554H32.1539Z" fill="white"/>
<path d="M2.75003 16.5847C2.48031 16.5847 2.26221 16.8037 2.26221 17.0725C2.26221 17.3414 2.48114 17.5604 2.75003 17.5604H9.44631C9.71602 17.5604 9.93413 17.3414 9.93413 17.0725C9.93413 16.8037 9.71519 16.5847 9.44631 16.5847H2.75003Z" fill="white"/>
<path d="M5.60938 17.0726C5.60938 17.3423 5.82831 17.5604 6.09719 17.5604C6.36691 17.5604 6.58501 17.3414 6.58501 17.0726V15.5841C6.58501 15.3144 6.36608 15.0963 6.09719 15.0963C5.82748 15.0963 5.60938 15.3152 5.60938 15.5841V17.0726Z" fill="white"/>
<path d="M4.68121 16.9701C4.6246 16.7071 4.36488 16.5397 4.10182 16.5963C3.83876 16.6529 3.67144 16.9127 3.72805 17.1757C3.73138 17.1899 4.78943 22.2237 8.87013 23.1095C9.13319 23.1661 9.39291 22.9988 9.44952 22.7357C9.50613 22.4726 9.3388 22.2129 9.07575 22.1563C5.61523 21.4054 4.68371 16.9826 4.68121 16.9701Z" fill="white"/>
<path d="M8.46807 17.1757C8.52468 16.9127 8.35736 16.6529 8.0943 16.5963C7.83125 16.5397 7.57152 16.7071 7.51491 16.9701C7.51241 16.9826 6.5809 21.4054 3.12037 22.1563C2.85732 22.2129 2.68999 22.4726 2.7466 22.7357C2.80321 22.9988 3.06294 23.1661 3.32599 23.1095C7.40669 22.2237 8.46475 17.1899 8.46807 17.1757Z" fill="white"/>
</svg>
