<svg width="186" height="217" viewBox="0 0 186 217" fill="none" xmlns="http://www.w3.org/2000/svg">
<g filter="url(#filter0_dddd_157_26683)">
<path d="M126.4 9.51693C117.116 5.32747 106.845 3 96.0001 3C90.9061 3 85.949 3.52026 81.1562 4.47863L96.0001 76.9863L126.4 9.51693Z" fill="#27AE60"/>
<path d="M81.156 4.47861C65.6275 7.65493 51.8792 15.6779 41.5269 26.9045L95.9998 76.9863L81.156 4.47861Z" fill="#6FCF97"/>
<path d="M169.343 86.8986C169.781 83.6675 170 80.3543 170 76.9863C170 64.3632 166.85 52.5068 161.263 42.1016L96 76.9863L169.343 86.8986Z" fill="#9B51E0"/>
<path d="M41.5272 26.9045C31.257 38.0764 24.3829 52.3972 22.4932 68.2514L95.9728 76.9863L41.5272 26.9045Z" fill="#EB5757"/>
<path d="M161.264 42.1016C153.568 27.7534 141.298 16.2255 126.4 9.51694L96 76.9863L161.264 42.1016Z" fill="#BB6BD9"/>
<path d="M64.5596 143.99C74.1177 148.481 84.7713 151 96.0274 151C100.711 151 105.284 150.562 109.721 149.74L96.0274 77.0137L64.5596 143.99Z" fill="#2F80ED"/>
<path d="M96 76.9863L149.679 127.917C160.141 116.909 167.234 102.671 169.343 86.8712L96 76.9863Z" fill="#56CCF2"/>
<path d="M109.721 149.713C125.332 146.783 139.189 138.979 149.679 127.944L96 77.0137L109.721 149.713Z" fill="#2D9CDB"/>
<path d="M22.5204 68.2514C22.1917 71.1265 22 74.029 22 76.9863C22 90.0202 25.3686 102.26 31.2842 112.884L96 76.9863L22.5204 68.2514Z" fill="#F2994A"/>
<path d="M31.2842 112.912C38.8156 126.438 50.4552 137.364 64.5321 143.99L96 77.0137L31.2842 112.912Z" fill="#F2C94C"/>
<path d="M95.1761 85.6573C100.679 85.6573 105.139 81.1966 105.139 75.694C105.139 70.1915 100.679 65.7308 95.1761 65.7308C89.6736 65.7308 85.2129 70.1915 85.2129 75.694C85.2129 81.1966 89.6736 85.6573 95.1761 85.6573Z" fill="#FFD05D"/>
<path d="M112.253 75.694L106.947 70.3882C104.919 65.9063 100.407 62.7785 95.1763 62.7785C88.0549 62.7785 82.2607 68.5722 82.2607 75.6945C82.2607 82.8163 88.0549 88.6105 95.1763 88.6105C100.407 88.6105 104.919 85.4828 106.947 81.0008L112.253 75.694ZM95.1758 87.1638C88.8518 87.1638 83.7065 82.0185 83.7065 75.694C83.7065 69.3696 88.8518 64.2243 95.1758 64.2243C101.5 64.2243 106.646 69.3696 106.646 75.694C106.646 82.0185 101.5 87.1638 95.1758 87.1638Z" fill="#FFD05D"/>
<path d="M102.508 83.0261C106.502 79.0323 106.502 72.5572 102.508 68.5635C98.5145 64.5698 92.0394 64.5698 88.0457 68.5635C84.052 72.5572 84.052 79.0323 88.0457 83.0261C92.0394 87.0198 98.5145 87.0198 102.508 83.0261Z" fill="#FFD05D"/>
<path d="M100.628 67.0663C101.646 68.6563 102.237 70.5466 102.237 72.5749C102.237 78.2229 97.6583 82.8015 92.0102 82.8015C90.0486 82.8015 88.2163 82.2488 86.6597 81.2913C88.4771 84.1289 91.6577 86.0094 95.2774 86.0094C100.925 86.0094 105.504 81.4309 105.504 75.7828C105.504 72.0963 103.553 68.8658 100.628 67.0663Z" fill="#FDC453"/>
<path d="M86.4406 76.8738C86.4406 71.6299 90.6916 67.3789 95.9355 67.3789C99.0006 67.3789 101.726 68.8317 103.462 71.0858C101.822 68.2395 98.7494 66.3233 95.2288 66.3233C89.9849 66.3233 85.7339 70.5743 85.7339 75.8182C85.7339 77.9969 86.4683 80.0039 87.7023 81.6062C86.8997 80.2129 86.4406 78.5969 86.4406 76.8738Z" fill="#FFD77F"/>
<path d="M92.2633 73.3137C92.2633 74.0152 91.9259 74.5838 91.5098 74.5838C91.0937 74.5838 90.7563 74.0152 90.7563 73.3137C90.7563 72.6122 91.0937 72.0436 91.5098 72.0436C91.9259 72.0436 92.2633 72.6122 92.2633 73.3137Z" fill="#303030"/>
<path d="M99.7986 73.3137C99.7986 74.0152 99.4612 74.5838 99.0451 74.5838C98.629 74.5838 98.2915 74.0152 98.2915 73.3137C98.2915 72.6122 98.6289 72.0436 99.0451 72.0436C99.4613 72.0436 99.7986 72.6122 99.7986 73.3137Z" fill="#303030"/>
<path d="M88.4053 76.7621C88.7947 80.2131 91.722 82.8955 95.2772 82.8955C98.8323 82.8955 101.76 80.2131 102.149 76.7621H88.4053Z" fill="#695342"/>
<path d="M90.5303 81.0066C91.7688 82.1768 93.4384 82.8956 95.2771 82.8956C97.0365 82.8956 98.6414 82.238 99.8618 81.156L99.7983 81.0073C95.1835 78.7571 90.593 80.976 90.5303 81.0066Z" fill="#F06669"/>
</g>
<defs>
<filter id="filter0_dddd_157_26683" x="0" y="0" width="186" height="217" filterUnits="userSpaceOnUse" color-interpolation-filters="sRGB">
<feFlood flood-opacity="0" result="BackgroundImageFix"/>
<feColorMatrix in="SourceAlpha" type="matrix" values="0 0 0 0 0 0 0 0 0 0 0 0 0 0 0 0 0 0 127 0" result="hardAlpha"/>
<feOffset dy="3"/>
<feGaussianBlur stdDeviation="3"/>
<feColorMatrix type="matrix" values="0 0 0 0 0 0 0 0 0 0 0 0 0 0 0 0 0 0 0.1 0"/>
<feBlend mode="normal" in2="BackgroundImageFix" result="effect1_dropShadow_157_26683"/>
<feColorMatrix in="SourceAlpha" type="matrix" values="0 0 0 0 0 0 0 0 0 0 0 0 0 0 0 0 0 0 127 0" result="hardAlpha"/>
<feOffset dx="-1" dy="12"/>
<feGaussianBlur stdDeviation="6"/>
<feColorMatrix type="matrix" values="0 0 0 0 0 0 0 0 0 0 0 0 0 0 0 0 0 0 0.09 0"/>
<feBlend mode="normal" in2="effect1_dropShadow_157_26683" result="effect2_dropShadow_157_26683"/>
<feColorMatrix in="SourceAlpha" type="matrix" values="0 0 0 0 0 0 0 0 0 0 0 0 0 0 0 0 0 0 127 0" result="hardAlpha"/>
<feOffset dx="-2" dy="26"/>
<feGaussianBlur stdDeviation="8"/>
<feColorMatrix type="matrix" values="0 0 0 0 0 0 0 0 0 0 0 0 0 0 0 0 0 0 0.05 0"/>
<feBlend mode="normal" in2="effect2_dropShadow_157_26683" result="effect3_dropShadow_157_26683"/>
<feColorMatrix in="SourceAlpha" type="matrix" values="0 0 0 0 0 0 0 0 0 0 0 0 0 0 0 0 0 0 127 0" result="hardAlpha"/>
<feOffset dx="-3" dy="47"/>
<feGaussianBlur stdDeviation="9.5"/>
<feColorMatrix type="matrix" values="0 0 0 0 0 0 0 0 0 0 0 0 0 0 0 0 0 0 0.01 0"/>
<feBlend mode="normal" in2="effect3_dropShadow_157_26683" result="effect4_dropShadow_157_26683"/>
<feBlend mode="normal" in="SourceGraphic" in2="effect4_dropShadow_157_26683" result="shape"/>
</filter>
</defs>
</svg>
