<svg width="148" height="148" viewBox="0 0 148 148" fill="none" xmlns="http://www.w3.org/2000/svg">
<path d="M104.4 6.51693C95.1155 2.32747 84.8454 0 74.0001 0C68.9061 0 63.949 0.520259 59.1562 1.47863L74.0001 73.9863L104.4 6.51693Z" fill="#333333"/>
<path d="M59.156 1.4786C43.6275 4.65492 29.8792 12.6779 19.5269 23.9045L73.9999 73.9863L59.156 1.4786Z" fill="#F2F2F2"/>
<path d="M147.343 83.8986C147.781 80.6675 148 77.3543 148 73.9863C148 61.3632 144.85 49.5068 139.264 39.1016L74 73.9863L147.343 83.8986Z" fill="#333333"/>
<path d="M19.5267 23.9045C9.25656 35.0764 2.38239 49.3972 0.492676 65.2514L73.9723 73.9863L19.5267 23.9045Z" fill="#333333"/>
<path d="M139.264 39.1016C131.568 24.7534 119.298 13.2256 104.4 6.51695L74 73.9863L139.264 39.1016Z" fill="#F2F2F2"/>
<path d="M42.5596 140.99C52.1177 145.481 62.7713 148 74.0274 148C78.7106 148 83.2842 147.562 87.7209 146.74L74.0274 74.0137L42.5596 140.99Z" fill="#F2F2F2"/>
<path d="M74 73.9863L127.679 124.917C138.141 113.909 145.234 99.6706 147.343 83.8712L74 73.9863Z" fill="#F2F2F2"/>
<path d="M87.4797 146.94C103.09 144.011 116.948 136.207 127.438 125.172L73.7588 74.241L87.4797 146.94Z" fill="#333333"/>
<path d="M0.520355 65.2514C0.19171 68.1266 0 71.0291 0 73.9863C0 87.0202 3.36862 99.26 9.28424 109.884L74 73.9863L0.520355 65.2514Z" fill="#F2F2F2"/>
<path d="M9.28418 109.912C16.8156 123.438 28.4552 134.364 42.5322 140.99L74 74.0137L9.28418 109.912Z" fill="#333333"/>
<path d="M73.6581 83.1394C79.1606 83.1394 83.6213 78.6787 83.6213 73.1761C83.6213 67.6736 79.1606 63.2129 73.6581 63.2129C68.1555 63.2129 63.6948 67.6736 63.6948 73.1761C63.6948 78.6787 68.1555 83.1394 73.6581 83.1394Z" fill="#FDC453"/>
<path d="M90.7351 73.1761L85.4293 67.8703C83.4006 63.3884 78.8893 60.2606 73.6582 60.2606C66.5368 60.2606 60.7427 66.0543 60.7427 73.1766C60.7427 80.2984 66.5368 86.0926 73.6582 86.0926C78.8893 86.0926 83.4006 82.9649 85.4293 78.4829L90.7351 73.1761ZM73.6577 84.6459C67.3337 84.6459 62.1884 79.5006 62.1884 73.1761C62.1884 66.8517 67.3337 61.7064 73.6577 61.7064C79.9822 61.7064 85.1275 66.8517 85.1275 73.1761C85.1275 79.5006 79.9822 84.6459 73.6577 84.6459Z" fill="#FDC453"/>
<path d="M80.9902 80.5082C84.9839 76.5145 84.9839 70.0394 80.9902 66.0456C76.9965 62.0519 70.5214 62.0519 66.5277 66.0456C62.5339 70.0394 62.5339 76.5145 66.5277 80.5082C70.5214 84.5019 76.9965 84.5019 80.9902 80.5082Z" fill="#FFD05D"/>
<path d="M79.1099 64.5487C80.1283 66.1386 80.7188 68.0289 80.7188 70.0572C80.7188 75.7053 76.1402 80.2839 70.4921 80.2839C68.5306 80.2839 66.6982 79.7311 65.1416 78.7737C66.9591 81.6111 70.1396 83.4918 73.7593 83.4918C79.4074 83.4918 83.986 78.9131 83.986 73.2651C83.9861 69.5787 82.0352 66.3482 79.1099 64.5487Z" fill="#FDC453"/>
<path d="M64.923 74.3561C64.923 69.1122 69.174 64.8612 74.4179 64.8612C77.483 64.8612 80.2084 66.314 81.9444 68.5681C80.3049 65.7218 77.2318 63.8056 73.7112 63.8056C68.4673 63.8056 64.2163 68.0566 64.2163 73.3005C64.2163 75.4792 64.9507 77.4862 66.1847 79.0885C65.3822 77.6952 64.923 76.0793 64.923 74.3561Z" fill="#FFD77F"/>
<path d="M69.5677 75.4244C69.3044 75.1685 68.8822 75.4515 69.0187 75.7925C69.7743 77.6805 71.6201 79.0143 73.7781 79.0143C75.9001 79.0143 77.7201 77.7248 78.4986 75.8867C78.6407 75.5513 78.2152 75.2611 77.9538 75.5145C76.457 76.9655 73.2797 79.0303 69.5677 75.4244Z" fill="#5E4939"/>
<path d="M80.9778 69.3974L76.8249 69.7414C76.7758 69.7414 76.7273 69.744 76.6778 69.749C76.6402 69.7536 75.3026 69.9131 73.8124 70.0004C73.7774 70.0024 73.7419 70.0024 73.7068 70.0004C72.2163 69.913 70.8783 69.7534 70.8397 69.7489C70.7919 69.744 70.7434 69.7414 70.6944 69.7414L66.5415 69.3974C65.7245 69.3815 65.2738 69.7833 65.3162 70.494C65.3179 70.5212 65.6098 72.1378 65.6098 72.1378C65.7047 72.6927 65.8084 73.1485 66.1479 73.6502C66.3247 73.9112 66.5872 74.1076 66.8682 74.2517C67.011 74.3249 67.1624 74.3813 67.3186 74.4186C67.4496 74.4499 67.5944 74.4484 67.7344 74.4562C67.8581 74.463 68.0604 74.4727 68.1842 74.4727H69.1327C69.3988 74.4727 69.4954 74.4727 69.5266 74.4727C69.9655 74.4727 70.4122 74.3693 70.8049 74.1734C71.4218 73.8656 71.779 73.3569 72.0353 72.7378C72.2773 72.1532 72.761 71.7109 73.2763 71.3732C73.5704 71.1804 73.9491 71.1804 74.2431 71.3732C74.5211 71.5554 74.7793 71.7701 75.003 72.0165C75.1675 72.1978 75.3005 72.426 75.4345 72.635C75.5862 72.8714 75.6833 73.1521 75.8407 73.3927C75.9993 73.6352 76.1753 73.8334 76.419 74.0004C76.827 74.2801 77.3206 74.4331 77.8124 74.4666C77.8724 74.4707 77.9327 74.473 77.9928 74.473C78.024 74.473 78.1205 74.473 78.3867 74.473H79.3351C79.4591 74.473 79.6612 74.4634 79.7849 74.4564C79.9251 74.4486 80.0698 74.4502 80.2008 74.4189C80.3569 74.3817 80.5083 74.3253 80.6512 74.252C80.9322 74.108 81.1947 73.9116 81.3714 73.6504C81.711 73.1489 81.8146 72.6931 81.9095 72.138C81.9095 72.138 82.2016 70.5214 82.2031 70.4942C82.2455 69.7833 81.7947 69.3815 80.9778 69.3974Z" fill="#2D292A"/>
<path d="M77.9926 74.4726C78.0238 74.4726 78.1204 74.4726 78.3865 74.4726H79.335C79.4588 74.4726 79.6611 74.463 79.7848 74.4561C79.9249 74.4483 80.0696 74.4498 80.2006 74.4185C80.3567 74.3813 80.5081 74.3249 80.651 74.2516C80.932 74.1076 81.1945 73.9112 81.3713 73.65C81.7108 73.1485 81.8145 72.6927 81.9094 72.1377C81.9094 72.1377 82.2014 70.5211 82.203 70.4938C82.2089 70.3947 82.2043 70.3022 82.1913 70.2154C80.2789 73.1768 77.9588 73.8929 76.4688 74.0313C76.867 74.2903 77.34 74.434 77.8123 74.466C77.8723 74.4705 77.9325 74.4726 77.9926 74.4726Z" fill="#414042"/>
<path d="M66.8678 74.2517C67.0106 74.3249 67.162 74.3812 67.3182 74.4186C67.4492 74.4499 67.5941 74.4483 67.7341 74.4561C67.8578 74.463 68.0601 74.4727 68.1839 74.4727H69.1323C69.3984 74.4727 69.495 74.4727 69.5262 74.4727C69.9651 74.4727 70.4118 74.3692 70.8045 74.1733C71.4214 73.8656 71.7786 73.3568 72.0349 72.7377C72.1635 72.4271 72.3614 72.1578 72.5948 71.9219C69.8288 73.7546 67.5271 74.043 66.5742 74.0746C66.6676 74.1407 66.7664 74.1997 66.8678 74.2517Z" fill="#414042"/>
</svg>
