<svg width="185" height="222" viewBox="0 0 185 222" fill="none" xmlns="http://www.w3.org/2000/svg">
<g clip-path="url(#clip0_157_26765)">
<path d="M91.832 82.4182H92.6463V84.4549H91.832V82.4182Z" fill="black"/>
<path d="M92.6463 78.4011V71.4188H91.8324V78.4011C91.4486 78.5002 91.114 78.7361 90.8915 79.0644C90.669 79.3926 90.5739 79.7908 90.6238 80.1843C90.6738 80.5778 90.8655 80.9395 91.163 81.2017C91.4605 81.4639 91.8433 81.6085 92.2398 81.6085C92.6363 81.6085 93.0191 81.4639 93.3166 81.2017C93.6141 80.9395 93.8058 80.5778 93.8557 80.1843C93.9057 79.7908 93.8105 79.3926 93.588 79.0644C93.3655 78.7361 93.031 78.5002 92.6471 78.4011M92.2398 80.7886C92.1313 80.791 92.0234 80.7718 91.9224 80.7319C91.8214 80.6921 91.7294 80.6325 91.6518 80.5566C91.5742 80.4807 91.5125 80.39 91.4704 80.2899C91.4283 80.1898 91.4066 80.0823 91.4066 79.9738C91.4066 79.8652 91.4283 79.7577 91.4704 79.6576C91.5125 79.5575 91.5742 79.4669 91.6518 79.3909C91.7294 79.315 91.8214 79.2554 91.9224 79.2156C92.0234 79.1757 92.1313 79.1565 92.2398 79.1589C92.4526 79.1638 92.6551 79.2517 92.8039 79.404C92.9527 79.5563 93.036 79.7608 93.036 79.9738C93.036 80.1867 92.9527 80.3912 92.8039 80.5435C92.6551 80.6958 92.4526 80.7837 92.2398 80.7886Z" fill="black"/>
<path d="M96.7183 78.3444H97.5325V84.4549H96.7183V78.3444Z" fill="black"/>
<path d="M97.5329 74.3277V71.4188H96.7182V74.3277C96.3343 74.4269 95.9998 74.6627 95.7773 74.991C95.5548 75.3192 95.4596 75.7174 95.5096 76.1109C95.5595 76.5044 95.7512 76.8661 96.0487 77.1283C96.3462 77.3905 96.7291 77.5351 97.1255 77.5351C97.522 77.5351 97.9049 77.3905 98.2023 77.1283C98.4998 76.8661 98.6915 76.5044 98.7415 76.1109C98.7915 75.7174 98.6963 75.3192 98.4738 74.991C98.2513 74.6627 97.9167 74.4269 97.5329 74.3277ZM97.1255 76.7147C97.017 76.7172 96.9091 76.698 96.8081 76.6581C96.7072 76.6183 96.6152 76.5587 96.5375 76.4827C96.4599 76.4068 96.3983 76.3162 96.3561 76.2161C96.314 76.116 96.2924 76.0085 96.2924 75.8999C96.2924 75.7914 96.314 75.6839 96.3561 75.5838C96.3983 75.4837 96.4599 75.393 96.5375 75.3171C96.6152 75.2412 96.7072 75.1816 96.8081 75.1418C96.9091 75.1019 97.017 75.0827 97.1255 75.0851C97.3416 75.0851 97.5488 75.171 97.7016 75.3238C97.8544 75.4767 97.9402 75.684 97.9402 75.9001C97.9402 76.1163 97.8544 76.3236 97.7016 76.4764C97.5488 76.6293 97.3416 76.7152 97.1255 76.7152" fill="black"/>
<path d="M101.605 82.4182H102.419V84.4549H101.605V82.4182Z" fill="black"/>
<path d="M102.42 78.4011V71.4188H101.605V78.4011C101.221 78.5002 100.887 78.7361 100.664 79.0644C100.442 79.3926 100.346 79.7908 100.396 80.1843C100.446 80.5778 100.638 80.9395 100.935 81.2017C101.233 81.4639 101.616 81.6085 102.012 81.6085C102.409 81.6085 102.792 81.4639 103.089 81.2017C103.387 80.9395 103.578 80.5778 103.628 80.1843C103.678 79.7908 103.583 79.3926 103.36 79.0644C103.138 78.7361 102.803 78.5002 102.42 78.4011ZM102.012 80.7886C101.904 80.791 101.796 80.7718 101.695 80.7319C101.594 80.6921 101.502 80.6325 101.424 80.5566C101.347 80.4807 101.285 80.39 101.243 80.2899C101.201 80.1898 101.179 80.0823 101.179 79.9738C101.179 79.8652 101.201 79.7577 101.243 79.6576C101.285 79.5575 101.347 79.4669 101.424 79.3909C101.502 79.315 101.594 79.2554 101.695 79.2156C101.796 79.1757 101.904 79.1565 102.012 79.1589C102.225 79.1638 102.428 79.2517 102.576 79.404C102.725 79.5563 102.808 79.7608 102.808 79.9738C102.808 80.1867 102.725 80.3912 102.576 80.5435C102.428 80.6958 102.225 80.7837 102.012 80.7886Z" fill="black"/>
</g>
<g filter="url(#filter0_dddd_157_26765)">
<path d="M124.02 19.5428C115.933 15.8919 106.986 13.8636 97.5392 13.8636C93.1019 13.8636 88.7838 14.317 84.6089 15.1522L97.5392 78.3387L124.02 19.5428Z" fill="#13C5CE"/>
<path d="M84.609 15.1522C71.0823 17.9202 59.1062 24.9117 50.0884 34.6951L97.5393 78.3387L84.609 15.1522Z" fill="#5BE8EF"/>
<path d="M161.428 86.9768C161.809 84.161 162 81.2738 162 78.3387C162 67.3384 159.257 57.0061 154.39 47.9386L97.5396 78.3387L161.428 86.9768Z" fill="#13C5CE"/>
<path d="M50.0882 34.6952C41.1419 44.4308 35.1539 56.9107 33.5078 70.7267L97.5153 78.3387L50.0882 34.6952Z" fill="#13C5CE"/>
<path d="M154.39 47.9386C147.686 35.4349 136.998 25.389 124.02 19.5428L97.5396 78.3387L154.39 47.9386Z" fill="#5BE8EF"/>
<path d="M70.1519 136.729C78.4778 140.642 87.7581 142.838 97.5632 142.838C101.643 142.838 105.627 142.456 109.492 141.74L97.5632 78.3626L70.1519 136.729Z" fill="#5BE8EF"/>
<path d="M97.5396 78.3387L144.299 122.722C153.412 113.129 159.591 100.721 161.428 86.9529L97.5396 78.3387Z" fill="#5BE8EF"/>
<path d="M109.282 141.494C122.88 138.941 134.952 132.14 144.089 122.524L97.3296 78.1406L109.282 141.494Z" fill="#13C5CE"/>
<path d="M33.5319 70.7268C33.2456 73.2323 33.0786 75.7617 33.0786 78.3388C33.0786 89.6971 36.013 100.363 41.166 109.622L97.5394 78.3388L33.5319 70.7268Z" fill="#5BE8EF"/>
<path d="M41.166 109.646C47.7266 121.433 57.8657 130.954 70.128 136.729L97.5393 78.3626L41.166 109.646Z" fill="#13C5CE"/>
<path d="M97.2419 85.4749C102.035 85.4749 105.921 81.5877 105.921 76.7925C105.921 71.9973 102.035 68.11 97.2419 68.11C92.4487 68.11 88.563 71.9973 88.563 76.7925C88.563 81.5877 92.4487 85.4749 97.2419 85.4749Z" fill="#FDC453"/>
<path d="M112.117 76.7925L107.495 72.1687C105.728 68.263 101.799 65.5373 97.2418 65.5373C91.0385 65.5373 85.9912 70.5862 85.9912 76.7929C85.9912 82.9992 91.0385 88.0485 97.2418 88.0485C101.799 88.0485 105.728 85.3228 107.495 81.4171L112.117 76.7925ZM97.2414 86.7878C91.7326 86.7878 87.2506 82.3039 87.2506 76.7925C87.2506 71.2811 91.7326 66.7972 97.2414 66.7972C102.751 66.7972 107.233 71.2811 107.233 76.7925C107.233 82.3039 102.751 86.7878 97.2414 86.7878Z" fill="#FDC453"/>
<path d="M96.5561 75.5319C96.5561 75.5319 94.2098 71.4897 95.4481 69.5339C96.6864 67.5778 98.8369 68.6213 99.2932 70.3812C99.7494 72.1417 98.3157 75.5319 98.3157 75.5319C98.3157 75.5319 100.075 71.2288 102.421 71.2941C104.767 71.3594 104.767 73.7064 103.53 74.7496C102.291 75.7928 99.2935 76.3142 99.2935 76.3142C99.2935 76.3142 103.594 75.5972 104.898 77.1618C106.202 78.7265 104.442 79.9653 102.487 79.7044C100.532 79.4435 98.6417 77.8139 98.6417 77.8139C98.6417 77.8139 101.705 79.835 102.03 82.117C102.356 84.3989 99.3912 84.4314 98.7069 83.3557C98.0227 82.28 97.8761 78.7104 97.8761 78.7104C97.8761 78.7104 98.8536 84.4803 96.5076 85.1648C94.1615 85.8494 94.0638 82.0353 95.6278 79.1993C92.8905 83.2087 90.9355 82.9643 90.349 81.7419C89.7625 80.5195 91.1799 78.0259 94.65 78.0747C90.349 78.1236 88.9802 77.0479 88.9313 75.7767C88.8824 74.5054 91.6683 73.3319 95.1876 76.2167C91.4239 72.6963 91.1307 71.8159 92.5969 71.1313C94.0635 70.4465 95.5783 73.478 96.5561 75.5319Z" fill="#F6F2F6"/>
<path d="M98.957 77.4728C98.957 78.4773 98.1428 79.2919 97.1386 79.2919C96.1342 79.2919 95.3203 78.4773 95.3203 77.4728C95.3203 76.4679 96.1345 75.6534 97.1386 75.6534C98.1431 75.6534 98.957 76.4679 98.957 77.4728Z" fill="#FFCE00"/>
<path d="M61.197 137.169C61.197 138.679 60.9241 139.903 60.5873 139.903C60.2505 139.903 59.9775 138.679 59.9775 137.169C59.9775 135.659 60.2505 134.435 60.5873 134.435C60.9237 134.435 61.197 135.66 61.197 137.169Z" fill="#EDE576"/>
<path d="M60.5875 137.779C59.0783 137.779 57.855 137.506 57.855 137.169C57.855 136.832 59.0783 136.559 60.5875 136.559C62.0968 136.559 63.3201 136.832 63.3201 137.169C63.3201 137.506 62.0964 137.779 60.5875 137.779Z" fill="#EDE576"/>
<path d="M152.324 122.465C152.324 123.975 152.051 125.199 151.714 125.199C151.377 125.199 151.104 123.975 151.104 122.465C151.104 120.955 151.377 119.732 151.714 119.732C152.051 119.732 152.324 120.956 152.324 122.465Z" fill="#EDE576"/>
<path d="M151.714 123.075C150.205 123.075 148.982 122.802 148.982 122.465C148.982 122.128 150.205 121.855 151.714 121.855C153.224 121.855 154.447 122.128 154.447 122.465C154.447 122.802 153.224 123.075 151.714 123.075Z" fill="#EDE576"/>
<path d="M34.7814 26.5056C34.7814 26.5056 31.4148 20.7055 33.1915 17.8992C34.9683 15.0929 38.054 16.5893 38.7087 19.1154C39.3634 21.6411 37.3061 26.506 37.3061 26.506C37.3061 26.506 39.8308 20.3316 43.1974 20.4253C46.5637 20.519 46.5637 23.8866 44.7873 25.3835C43.0106 26.8803 38.7091 27.6285 38.7091 27.6285C38.7091 27.6285 44.8806 26.5997 46.751 28.8448C48.6214 31.0898 46.0963 32.8673 43.2911 32.493C40.4859 32.1187 37.7739 29.7803 37.7739 29.7803C37.7739 29.7803 42.169 32.6804 42.6364 35.9547C43.1042 39.2291 38.8494 39.2757 37.8676 37.7322C36.8858 36.1887 36.6754 31.0667 36.6754 31.0667C36.6754 31.0667 38.078 39.3459 34.7117 40.3281C31.3455 41.3103 31.2052 35.8375 33.4494 31.7683C29.5221 37.5213 26.7165 37.1705 25.8749 35.4166C25.0334 33.6626 27.0672 30.0845 32.0464 30.1547C25.8749 30.2248 23.9109 28.6813 23.8408 26.8572C23.7706 25.0331 27.768 23.3493 32.8178 27.4886C27.4174 22.4372 26.9966 21.174 29.1005 20.1917C31.2048 19.2087 33.3788 23.5589 34.7814 26.5056Z" fill="#F6F2F6"/>
<path d="M38.2264 29.2905C38.2264 30.7319 37.0581 31.9007 35.6173 31.9007C34.1761 31.9007 33.0078 30.7319 33.0078 29.2905C33.0078 27.8487 34.1761 26.6804 35.6173 26.6804C37.0586 26.6804 38.2264 27.8487 38.2264 29.2905Z" fill="#FFCE00"/>
<path d="M53.0637 17.3994C53.0637 17.3994 51.0491 13.9287 52.1126 12.2494C53.1758 10.5701 55.0222 11.4658 55.414 12.9772C55.8057 14.4885 54.5747 17.3996 54.5747 17.3996C54.5747 17.3996 56.0854 13.705 58.1 13.761C60.1143 13.8171 60.1143 15.8322 59.0514 16.7279C57.9882 17.6236 55.4142 18.0713 55.4142 18.0713C55.4142 18.0713 59.1071 17.4557 60.2264 18.7991C61.3456 20.1425 59.8346 21.2062 58.156 20.9822C56.4774 20.7582 54.8546 19.359 54.8546 19.359C54.8546 19.359 57.4846 21.0943 57.7643 23.0536C58.0442 25.013 55.4982 25.0409 54.9106 24.1173C54.3231 23.1937 54.1972 20.1287 54.1972 20.1287C54.1972 20.1287 55.0365 25.0829 53.0222 25.6706C51.0079 26.2584 50.924 22.9835 52.2668 20.5485C49.9168 23.9911 48.238 23.7812 47.7344 22.7316C47.2308 21.6821 48.4478 19.5407 51.4273 19.5829C47.7344 19.6249 46.5594 18.7013 46.5171 17.6098C46.4752 16.5183 48.8672 15.5104 51.8889 17.9876C48.6574 14.9649 48.4056 14.209 49.6645 13.6212C50.9235 13.0332 52.2244 15.6361 53.0637 17.3994Z" fill="#F6F2F6"/>
<path d="M55.1252 19.0659C55.1252 19.9284 54.4261 20.6277 53.5639 20.6277C52.7015 20.6277 52.0024 19.9284 52.0024 19.0659C52.0024 18.2031 52.7015 17.504 53.5639 17.504C54.4261 17.504 55.1252 18.2031 55.1252 19.0659Z" fill="#FFCE00"/>
<path d="M154.801 42.7145C153.767 42.5943 148.254 41.4904 148.715 31.6528C152.159 33.9582 153.912 36.3297 154.722 38.3025C154.571 36.3956 154.245 34.2822 153.663 32.0472C151.993 32.326 146.859 32.4491 143.831 24.3817C148.265 25.2273 150.934 26.7819 152.458 28.2883C151.608 26.0667 150.474 23.7745 148.978 21.4758C146.98 21.6889 141.53 19.7967 138.483 10.5027C149.373 13.018 149.604 19.1223 149.427 20.9033C150.584 22.6593 151.535 24.4136 152.307 26.1377C152.248 23.7876 152.925 20.4425 155.285 16.0755C159.816 25.4088 154.431 29.8043 153.877 30.2241C154.134 30.769 154.24 31.2451 154.242 31.6004C154.758 33.5335 155.084 35.3805 155.27 37.088C155.977 34.6851 157.834 31.3639 161.981 27.5436C162.374 37.7049 156.674 40.426 155.486 40.8818C155.509 45.0903 154.802 47.8281 154.784 47.8926L154.151 47.8152C154.165 47.7614 154.665 45.8205 154.801 42.7145Z" fill="#AFDFD1"/>
</g>
<path d="M42.2996 8.61522C42.2996 10.1251 42.0266 11.3489 41.6898 11.3489C41.353 11.3489 41.0801 10.1251 41.0801 8.61522C41.0801 7.10534 41.353 5.88156 41.6898 5.88156C42.0262 5.88156 42.2996 7.10576 42.2996 8.61522Z" fill="#EDE576"/>
<path d="M41.6901 9.22522C40.1808 9.22522 38.9575 8.95215 38.9575 8.61522C38.9575 8.27829 40.1808 8.00522 41.6901 8.00522C43.1993 8.00522 44.4226 8.27829 44.4226 8.61522C44.4226 8.95215 43.1989 9.22522 41.6901 9.22522Z" fill="#EDE576"/>
<g filter="url(#filter1_dddd_157_26765)">
<path d="M147.718 133.046C148.708 134.924 149.434 136.713 149.778 138.138C150.16 139.726 150.176 141.317 149.877 142.823C149.675 143.862 149.32 144.861 148.835 145.789C147.42 148.493 144.891 150.593 141.696 151.366C137.971 152.264 134.232 151.142 131.631 148.705C130.851 147.975 130.173 147.129 129.63 146.181C129.12 145.296 128.727 144.324 128.474 143.28C128.054 141.539 127.897 139.051 128.032 136.374C128.085 135.327 128.182 134.253 128.328 133.181C129.069 127.719 131.036 122.364 134.5 121.527C135.282 121.337 136.102 121.389 136.936 121.635C137.877 121.908 138.837 122.427 139.79 123.124C142.129 124.833 144.419 127.615 146.235 130.489C146.777 131.342 147.273 132.203 147.718 133.046Z" fill="#AFDFD1"/>
<path d="M133.713 127.651C134.165 128.418 133.91 129.408 133.142 129.86C132.375 130.313 131.386 130.058 130.933 129.29C130.481 128.522 130.736 127.533 131.504 127.08C132.271 126.628 133.26 126.883 133.713 127.651Z" fill="#DFA653"/>
<path d="M142.084 128.545C142.536 129.313 142.281 130.302 141.513 130.755C140.746 131.208 139.757 130.952 139.305 130.184C138.852 129.417 139.107 128.427 139.875 127.975C140.642 127.522 141.631 127.777 142.084 128.545Z" fill="#DFA653"/>
<path d="M133.747 139.578C134.199 140.346 133.944 141.335 133.176 141.788C132.409 142.241 131.42 141.985 130.968 141.217C130.515 140.45 130.77 139.46 131.538 139.008C132.305 138.555 133.294 138.811 133.747 139.578Z" fill="#DFA653"/>
<path d="M145.175 137.926C145.628 138.694 145.372 139.683 144.605 140.136C143.837 140.589 142.849 140.333 142.396 139.565C141.943 138.798 142.198 137.809 142.966 137.356C143.734 136.903 144.723 137.159 145.175 137.926Z" fill="#DFA653"/>
<path d="M147.718 133.046C147.106 133.116 146.482 132.828 146.149 132.263C145.811 131.69 145.867 130.995 146.235 130.49C146.777 131.342 147.273 132.203 147.718 133.046Z" fill="#DFA653"/>
<path d="M139.791 123.124C139.657 123.353 139.466 123.549 139.223 123.692C138.455 124.145 137.466 123.89 137.014 123.123C136.736 122.651 136.724 122.096 136.937 121.635C137.878 121.908 138.837 122.427 139.791 123.124Z" fill="#DFA653"/>
<path d="M131.958 146.673C132.359 147.353 132.205 148.205 131.631 148.705C130.851 147.974 130.173 147.128 129.63 146.18C129.667 146.153 129.707 146.127 129.748 146.102C130.516 145.649 131.505 145.905 131.958 146.673Z" fill="#DFA653"/>
<path d="M129.4 133.942C129.853 134.711 129.597 135.698 128.829 136.151C128.578 136.299 128.305 136.371 128.033 136.374C128.085 135.327 128.183 134.253 128.329 133.181C128.761 133.267 129.158 133.531 129.4 133.942Z" fill="#DFA653"/>
<path d="M149.877 142.823C149.676 143.861 149.32 144.86 148.835 145.789C148.622 145.657 148.439 145.474 148.304 145.244C147.85 144.475 148.107 143.488 148.873 143.036C149.188 142.85 149.539 142.784 149.877 142.823Z" fill="#DFA653"/>
<path d="M138.519 134.006C138.971 134.774 138.716 135.763 137.948 136.216C137.181 136.669 136.192 136.413 135.74 135.645C135.287 134.878 135.542 133.888 136.31 133.436C137.077 132.983 138.066 133.239 138.519 134.006Z" fill="#DFA653"/>
<path d="M141.134 146.956C141.587 147.723 141.331 148.713 140.564 149.165C139.796 149.618 138.807 149.363 138.355 148.595C137.902 147.827 138.157 146.838 138.925 146.385C139.693 145.933 140.682 146.188 141.134 146.956Z" fill="#DFA653"/>
<path d="M133.476 145.633C133.596 145.64 133.673 145.673 133.74 145.712C133.804 145.752 133.852 145.802 133.887 145.86C133.921 145.918 133.941 145.984 133.945 146.06C133.947 146.137 133.938 146.22 133.887 146.329C133.767 146.322 133.689 146.289 133.623 146.25C133.558 146.21 133.51 146.16 133.476 146.102C133.442 146.044 133.422 145.978 133.418 145.902C133.416 145.824 133.425 145.741 133.476 145.633Z" fill="white"/>
<path d="M134.691 146.094C134.811 146.102 134.888 146.136 134.955 146.175C135.02 146.216 135.068 146.266 135.103 146.325C135.138 146.383 135.158 146.45 135.163 146.526C135.165 146.604 135.156 146.688 135.105 146.797C134.984 146.789 134.907 146.756 134.84 146.717C134.775 146.676 134.726 146.625 134.692 146.567C134.658 146.508 134.637 146.441 134.633 146.365C134.631 146.287 134.64 146.204 134.691 146.094Z" fill="white"/>
<path d="M139.174 124.927C139.3 124.945 139.383 124.988 139.456 125.038C139.527 125.089 139.581 125.149 139.622 125.218C139.663 125.286 139.689 125.363 139.699 125.449C139.707 125.537 139.705 125.631 139.659 125.751C139.533 125.733 139.449 125.69 139.376 125.64C139.306 125.589 139.251 125.529 139.211 125.46C139.171 125.391 139.144 125.315 139.134 125.228C139.126 125.14 139.129 125.046 139.174 124.927Z" fill="white"/>
<path d="M140.431 125.222C140.538 125.207 140.601 125.218 140.655 125.234C140.706 125.251 140.741 125.279 140.762 125.314C140.783 125.349 140.79 125.393 140.781 125.446C140.769 125.501 140.747 125.562 140.682 125.648C140.575 125.663 140.511 125.653 140.458 125.637C140.407 125.619 140.372 125.592 140.351 125.556C140.33 125.521 140.323 125.477 140.333 125.424C140.345 125.369 140.367 125.308 140.431 125.222Z" fill="white"/>
<path d="M145.687 145.169C145.802 145.168 145.874 145.192 145.936 145.223C145.995 145.255 146.038 145.296 146.068 145.345C146.097 145.395 146.113 145.452 146.112 145.52C146.109 145.589 146.095 145.664 146.038 145.764C145.923 145.765 145.851 145.741 145.789 145.71C145.73 145.678 145.686 145.637 145.658 145.587C145.629 145.538 145.613 145.48 145.614 145.412C145.617 145.344 145.631 145.269 145.687 145.169Z" fill="white"/>
<path d="M146.671 135.728C146.787 135.73 146.861 135.757 146.925 135.79C146.986 135.825 147.031 135.869 147.062 135.921C147.093 135.974 147.11 136.034 147.111 136.105C147.11 136.176 147.098 136.254 147.042 136.357C146.926 136.355 146.852 136.328 146.788 136.295C146.727 136.26 146.682 136.216 146.652 136.163C146.621 136.111 146.604 136.05 146.604 135.98C146.605 135.908 146.617 135.831 146.671 135.728Z" fill="white"/>
<path d="M147.721 135.91C147.83 135.9 147.897 135.916 147.954 135.938C148.008 135.961 148.046 135.994 148.07 136.034C148.095 136.075 148.105 136.124 148.099 136.183C148.091 136.243 148.072 136.31 148.01 136.401C147.9 136.411 147.833 136.395 147.776 136.374C147.722 136.351 147.684 136.318 147.66 136.277C147.636 136.236 147.626 136.187 147.632 136.128C147.641 136.067 147.659 136.001 147.721 135.91Z" fill="white"/>
</g>
<g filter="url(#filter2_dddd_157_26765)">
<path d="M161.115 137.525C161.262 138.22 161.383 138.925 161.483 139.63C161.706 141.178 161.83 142.728 161.86 144.183C161.876 144.863 161.869 145.52 161.843 146.148C161.792 147.392 161.662 148.51 161.456 149.425C160.966 151.611 159.853 153.497 158.349 154.938C158.018 155.254 157.669 155.551 157.302 155.821C154.937 157.581 151.879 158.379 148.781 157.804C148.643 157.781 148.503 157.751 148.365 157.721C148.113 157.665 147.866 157.6 147.622 157.526C146.508 157.195 145.482 156.699 144.564 156.067C144.189 155.811 143.83 155.531 143.493 155.23C140.689 152.74 139.25 148.882 140.003 144.966C140.024 144.854 140.047 144.741 140.073 144.627C140.192 144.099 140.361 143.52 140.579 142.902C141.078 141.477 141.821 139.856 142.736 138.215C143.31 137.183 143.955 136.145 144.646 135.142C145.586 133.779 146.616 132.483 147.692 131.367C148.328 130.703 148.981 130.104 149.641 129.59C150.197 129.156 150.757 128.782 151.315 128.485C151.776 128.24 152.236 128.042 152.693 127.906C152.866 127.852 153.04 127.808 153.212 127.774C153.617 127.692 154.014 127.658 154.406 127.681C154.632 127.693 154.858 127.724 155.083 127.774C158.174 128.469 160.137 132.751 161.115 137.525Z" fill="#FAD4D3"/>
<path d="M161.116 137.525C161.262 138.22 161.384 138.925 161.483 139.63C161.109 139.152 160.727 138.778 160.463 138.54C159.873 138.005 159.211 137.513 158.57 137.038C157.658 136.362 156.718 135.662 155.911 134.801C154.152 132.926 153.192 130.342 153.213 127.774C153.618 127.692 154.015 127.658 154.407 127.681C154.356 129.98 155.204 132.308 156.781 133.986C157.513 134.769 158.372 135.404 159.281 136.079C159.893 136.534 160.525 137.005 161.116 137.525Z" fill="#FFA998"/>
<path d="M161.86 144.183C161.876 144.863 161.869 145.52 161.843 146.148C161.245 145.189 160.502 144.38 159.645 143.767C158.861 143.207 157.983 142.796 157.053 142.361C155.905 141.823 154.716 141.267 153.714 140.402C151.97 138.896 150.884 136.46 150.733 133.72C150.635 131.918 150.911 130.163 151.315 128.485C151.777 128.24 152.237 128.042 152.693 127.906C152.198 129.75 151.816 131.694 151.923 133.655C152.056 136.073 152.992 138.201 154.493 139.498C155.37 140.258 156.435 140.754 157.559 141.28C158.497 141.72 159.464 142.172 160.337 142.796C160.889 143.19 161.4 143.656 161.86 144.183Z" fill="#FFA998"/>
<path d="M158.349 154.938C158.018 155.254 157.669 155.551 157.303 155.821C157.04 154.028 156.163 152.415 155.374 151.269C154.452 149.934 153.313 148.707 152.215 147.52C151.733 147.003 151.234 146.465 150.756 145.921C149.367 144.342 147.687 142.196 147.016 139.595C146.524 137.685 146.571 135.52 147.159 133.161C147.311 132.555 147.492 131.957 147.693 131.367C148.329 130.702 148.982 130.104 149.642 129.59C149.12 130.851 148.641 132.136 148.316 133.449C147.778 135.613 147.727 137.582 148.17 139.296C148.777 141.652 150.351 143.652 151.651 145.135C152.12 145.665 152.611 146.196 153.088 146.711C154.218 147.926 155.383 149.186 156.355 150.59C157.12 151.701 157.958 153.214 158.349 154.938Z" fill="#FFA998"/>
<path d="M148.333 149.792C149.572 152.255 149.676 155.209 148.781 157.804C148.643 157.781 148.503 157.751 148.365 157.721C148.114 157.665 147.867 157.6 147.623 157.526C148.456 155.205 148.379 152.544 147.266 150.328C146.804 149.407 146.196 148.58 145.551 147.701C144.853 146.752 144.132 145.768 143.614 144.658C142.573 142.431 142.517 140.071 142.737 138.216C143.311 137.183 143.956 136.145 144.647 135.142C144.417 135.867 144.222 136.6 144.08 137.343C143.74 139.123 143.57 141.75 144.694 144.153C145.163 145.156 145.818 146.049 146.512 146.996C147.157 147.875 147.825 148.784 148.333 149.792Z" fill="#FFA998"/>
<path d="M144.536 151.86C144.867 153.247 144.866 154.69 144.565 156.067C144.19 155.811 143.831 155.531 143.494 155.23C143.65 154.198 143.617 153.143 143.377 152.137C143.016 150.629 142.258 149.271 141.456 147.834C141.177 147.331 140.884 146.809 140.617 146.287C140.383 145.834 140.18 145.393 140.003 144.966C140.024 144.854 140.048 144.741 140.074 144.627C140.192 144.099 140.362 143.52 140.58 142.902C140.786 143.773 141.15 144.715 141.677 145.74C141.937 146.245 142.222 146.759 142.498 147.253C143.305 148.699 144.138 150.191 144.536 151.86Z" fill="#FFA998"/>
</g>
<g filter="url(#filter3_dddd_157_26765)">
<path d="M31.7177 150.984C29.6578 151.308 27.45 150.294 26.353 148.52C26.1984 148.27 26.0623 148 26.0326 147.707C26.0031 147.415 26.0981 147.096 26.3333 146.92C25.411 146.065 24.9499 144.869 25.0101 143.612C25.033 143.135 25.143 142.645 25.4357 142.268C25.7281 141.89 26.2332 141.652 26.694 141.777C26.7575 141.283 26.9337 140.763 27.3416 140.477C27.7495 140.191 28.2794 140.087 28.7652 140.196C29.4055 140.34 29.9264 140.833 30.2424 141.408C30.5583 141.984 30.6952 142.639 30.796 143.288C31.1844 145.788 30.8339 148.614 31.7177 150.984Z" fill="#CFCECC"/>
<path d="M41.5559 114.94C41.2953 115.843 40.6771 116.741 40.1722 117.471C39.503 118.439 38.8711 119.298 38.5343 120.426C36.9597 118.151 35.161 116.04 33.5523 113.789C31.9449 111.538 30.5123 109.112 29.791 106.44C29.0684 103.77 29.11 100.816 30.3475 98.3413C30.5803 97.8759 30.8605 97.4218 31.2596 97.0883C31.6588 96.7535 32.1938 96.5521 32.7048 96.6505C33.302 96.7654 33.7537 97.2533 34.1059 97.7491C34.2788 97.9929 34.4398 98.2437 34.5867 98.5002C35.5875 100.226 36.0785 102.225 36.7032 104.135C37.8596 107.668 39.5429 111.026 41.6801 114.067C41.6871 114.355 41.6402 114.649 41.5559 114.94Z" fill="#CFCECC"/>
<path d="M41.5557 114.94C40.1849 114.399 38.9498 113.493 37.9209 112.428C36.5007 110.957 35.4318 109.188 34.4432 107.398C33.7521 106.146 33.0893 104.868 32.6446 103.508C32.2 102.148 31.9788 100.694 32.1878 99.2777C32.2452 98.8878 32.3504 98.4755 32.6453 98.2134C33.0375 97.8668 33.6585 97.9006 34.118 98.1524C34.2888 98.2476 34.4434 98.3666 34.5871 98.5002C35.588 100.226 36.0789 102.225 36.7036 104.135C37.86 107.668 39.5434 111.026 41.6805 114.067C41.687 114.355 41.64 114.649 41.5557 114.94Z" fill="url(#paint0_linear_157_26765)"/>
<path d="M49.7451 137.495C49.7451 137.495 51.5437 145.671 53.9795 145.042C56.4154 144.413 54.6867 137.22 53.233 134.272L49.7451 137.495Z" fill="#CFCECC"/>
<path d="M44.7074 140.24C44.7074 140.24 50.483 139.611 51.6223 144.681C52.7617 149.752 51.4258 151.324 51.4258 151.324C51.4258 151.324 55.7084 150.695 55.8262 152.857C55.9441 155.019 46.3574 156.473 42.6248 154.822C42.6248 154.822 40.6996 154.036 40.0317 151.678L44.7074 140.24Z" fill="#CFCECC"/>
<path d="M52.9289 132.305C52.3403 130.783 51.6398 129.566 51.2831 128.572C50.4914 126.371 51.2831 125.223 51.2831 125.223L51.2791 125.223C51.6289 124.816 51.9529 124.34 52.2311 123.777C54.1957 119.807 53.8026 115.798 51.2489 114.462L50.5418 114.209C50.5418 114.209 49.0291 114.226 48.0174 113.99C47.0057 113.754 43.0766 111.951 40.2086 114.209C39.715 114.597 39.2762 115.067 38.8878 115.586C36.3178 113.058 34.112 110.161 32.3634 107.009C31.3893 105.251 30.5295 103.381 29.2208 101.875C29.0281 101.651 28.8225 101.435 28.6067 101.229C28.1669 100.808 27.6314 100.415 27.0232 100.415C26.5027 100.415 26.0155 100.714 25.6867 101.118C25.3577 101.521 25.1684 102.02 25.0277 102.521C24.2798 105.184 24.7969 108.093 26.0111 110.579C27.2241 113.066 29.0891 115.177 31.0928 117.084C32.8781 118.781 34.7896 120.342 36.5824 122.031C36.5529 122.532 36.5699 122.968 36.6333 123.306C36.9485 124.988 38.6047 128.417 38.6549 130.159C38.5072 132.485 34.7057 137.182 33.4506 138.32C32.1938 139.46 28.8145 144.333 30.0713 148.579C31.3292 152.825 36.8299 155.143 36.8299 155.143C36.8299 155.143 41.9368 151.252 42.0547 151.34C42.1735 151.429 48.1059 153.453 48.1059 153.453C48.1059 153.453 48.2595 153.174 48.5168 152.686C49.7067 150.427 53.1171 143.674 53.7635 139.342C54.1951 136.452 53.6445 134.155 52.9289 132.305Z" fill="url(#paint1_linear_157_26765)"/>
<path d="M38.6998 116.075C38.7136 115.896 38.7743 115.721 38.8845 115.582C36.3159 113.055 34.1111 110.159 32.3633 107.008C31.3892 105.251 30.5294 103.381 29.2207 101.875C29.0545 101.771 28.8802 101.683 28.6944 101.622C28.1958 101.462 27.5795 101.546 27.2597 101.961C27.0197 102.273 26.9944 102.698 27.0116 103.092C27.0741 104.523 27.5657 105.908 28.2592 107.16C28.9527 108.411 29.845 109.541 30.7601 110.64C32.0689 112.21 33.4527 113.746 35.125 114.921C36.1479 115.641 37.2937 116.219 38.4971 116.546C38.5195 116.372 38.5866 116.206 38.6998 116.075Z" fill="url(#paint2_linear_157_26765)"/>
<path d="M53.7633 139.342C53.117 143.674 49.7066 150.427 48.5166 152.686C47.8773 152.504 47.2713 152.214 46.7474 151.806C45.9059 151.154 45.2909 150.186 45.1558 149.13C45.0311 148.158 45.3047 147.182 45.6197 146.254C46.8801 142.545 48.8478 139.056 49.5749 135.207C49.7146 134.466 49.8128 133.702 50.167 133.037C50.5201 132.372 51.2058 131.818 51.956 131.875C52.3277 131.904 52.6473 132.069 52.9289 132.305C53.6445 134.155 54.1951 136.452 53.7633 139.342Z" fill="url(#paint3_linear_157_26765)"/>
<path d="M44.9712 137.495C44.9712 137.495 46.7697 145.671 49.2058 145.042C51.6417 144.413 49.913 137.22 48.4593 134.272L44.9712 137.495Z" fill="url(#paint4_linear_157_26765)"/>
<path d="M41.5049 143.705C41.5049 143.705 47.2805 143.076 48.4199 148.147C49.5592 153.217 48.2234 154.79 48.2234 154.79C48.2234 154.79 52.506 154.161 52.6238 156.323C52.7416 158.484 43.1549 159.939 39.4223 158.288C39.4223 158.288 37.4971 157.502 36.8291 155.143L41.5049 143.705Z" fill="#DDDCDA"/>
<path d="M48.0173 116.624C48.0173 117.031 47.6875 117.36 47.2806 117.36C46.8737 117.36 46.5439 117.031 46.5439 116.624C46.5439 116.216 46.8737 115.887 47.2806 115.887C47.6875 115.887 48.0173 116.216 48.0173 116.624Z" fill="#5A5A58"/>
<path d="M44.8489 116.177C44.7971 116.317 44.7365 116.458 44.6375 116.571C44.5386 116.683 44.3948 116.765 44.2453 116.757C44.0393 116.746 43.8713 116.565 43.8212 116.365C43.7708 116.165 43.8163 115.952 43.8874 115.759C43.9837 115.496 44.3246 114.926 44.6881 115.039C45.1219 115.173 44.9557 115.886 44.8489 116.177Z" fill="#CFCECC"/>
<path d="M46.5441 124.83C47.8094 124.83 48.8352 123.803 48.8352 122.537C48.8352 121.272 47.8094 120.245 46.5441 120.245C45.2787 120.245 44.2529 121.272 44.2529 122.537C44.2529 123.803 45.2787 124.83 46.5441 124.83Z" fill="url(#paint5_radial_157_26765)"/>
<path d="M51.781 115.242C51.9028 115.323 52.0245 115.404 52.1523 115.474L52.2473 115.527C52.2788 115.546 52.3109 115.558 52.3468 115.585C52.4153 115.633 52.4544 115.727 52.4542 115.804C52.4841 116.106 52.4089 116.412 52.2657 116.678C52.1931 116.811 52.1025 116.934 51.996 117.042C51.888 117.148 51.7653 117.239 51.6314 117.308C51.4975 117.377 51.355 117.427 51.2091 117.457C51.0622 117.482 50.9126 117.49 50.7671 117.47C51.0602 117.461 51.3442 117.378 51.5879 117.231C51.831 117.083 52.0319 116.873 52.1644 116.623C52.3005 116.376 52.3735 116.092 52.3659 115.809C52.3693 115.739 52.3482 115.684 52.3007 115.641C52.2794 115.622 52.2441 115.603 52.214 115.583C52.183 115.563 52.1521 115.543 52.122 115.521C52.003 115.434 51.8866 115.344 51.781 115.242Z" fill="#5A5A58"/>
<path d="M48.6403 115.238C48.6048 115.041 48.6457 114.835 48.7288 114.653C48.8143 114.472 48.9456 114.308 49.1192 114.208C49.0096 114.374 48.9113 114.531 48.8334 114.701C48.7529 114.871 48.6961 115.047 48.6403 115.238Z" fill="#5A5A58"/>
<path d="M50.1847 115.635C50.031 115.611 49.924 115.468 49.9503 115.314C50.0316 114.837 50.2664 113.86 50.8413 113.705C51.6075 113.499 51.9317 114.958 51.9317 115.209C51.9315 115.436 51.0607 115.771 50.1847 115.635Z" fill="#FAD4D3"/>
<path d="M51.1133 115.48C51.1599 115.356 51.269 115.266 51.3893 115.217C51.5103 115.169 51.6514 115.159 51.7703 115.216C51.6452 115.251 51.538 115.28 51.4322 115.324C51.3255 115.365 51.2277 115.418 51.1133 115.48Z" fill="#5A5A58"/>
<path d="M51.7543 114.988C51.6529 114.924 51.5991 114.805 51.5887 114.688C51.5801 114.57 51.6142 114.444 51.7043 114.365C51.6987 114.482 51.6949 114.578 51.7037 114.678C51.7107 114.779 51.7298 114.873 51.7543 114.988Z" fill="#5A5A58"/>
<path d="M47.8506 126.211C48.1782 126.16 48.5024 126.098 48.8211 126.017C49.1395 125.934 49.454 125.838 49.7609 125.721C50.0689 125.607 50.3688 125.472 50.6628 125.325L50.8818 125.21L51.097 125.089L51.3108 124.963C51.3802 124.919 51.4507 124.875 51.5217 124.832C51.3957 124.94 51.262 125.039 51.1273 125.137L50.9188 125.273L50.7052 125.403C50.4171 125.571 50.1132 125.711 49.8015 125.829C49.4888 125.945 49.1678 126.04 48.8408 126.103C48.514 126.167 48.1826 126.207 47.8506 126.211Z" fill="white"/>
<path d="M45.5282 121.766C45.2158 122.167 44.9101 122.571 44.6191 122.985C44.3284 123.399 44.0454 123.819 43.784 124.252C43.5146 124.681 43.2663 125.122 43.0271 125.568L42.8498 125.903L42.679 126.243L42.5104 126.584C42.457 126.698 42.402 126.813 42.3462 126.927C42.4327 126.688 42.5301 126.454 42.6276 126.219L42.7844 125.872L42.9482 125.527C43.1724 125.07 43.4229 124.627 43.6861 124.192C43.9573 123.761 44.2405 123.338 44.548 122.933C44.8551 122.528 45.1797 122.136 45.5282 121.766Z" fill="#5A5A58"/>
<path d="M46.5311 122.287C46.4179 122.563 46.3041 122.838 46.1995 123.116C46.0961 123.394 45.9949 123.673 45.9046 123.955C45.8117 124.237 45.7294 124.522 45.6495 124.808C45.6097 124.951 45.5728 125.095 45.5373 125.239L45.4297 125.673C45.4409 125.524 45.462 125.376 45.4817 125.228C45.506 125.08 45.5335 124.933 45.563 124.787C45.6232 124.494 45.7035 124.205 45.7948 123.92C45.8888 123.636 45.9937 123.355 46.1176 123.082C46.2404 122.81 46.3753 122.542 46.5311 122.287Z" fill="#5A5A58"/>
<path d="M49.3735 113.602C49.5038 113.137 49.6951 112.691 49.9187 112.263C50.1453 111.837 50.4055 111.427 50.716 111.057C50.481 111.479 50.2427 111.893 50.0207 112.317C49.7957 112.739 49.5885 113.17 49.3735 113.602Z" fill="#5A5A58"/>
<path d="M50.1196 113.558C50.2166 113.366 50.3587 113.203 50.5173 113.061C50.6781 112.922 50.8579 112.802 51.0609 112.73C50.9065 112.879 50.7477 113.01 50.5934 113.148C50.4368 113.283 50.287 113.424 50.1196 113.558Z" fill="#5A5A58"/>
<path d="M38.2181 118.282C38.1446 117.842 38.1625 117.385 38.2516 116.943C38.3391 116.499 38.5021 116.071 38.7201 115.674C38.9419 115.279 39.2199 114.914 39.5503 114.606C39.8789 114.297 40.2581 114.04 40.6706 113.871C40.3047 114.125 39.9721 114.411 39.6786 114.732C39.3865 115.054 39.1304 115.407 38.9218 115.786C38.7097 116.163 38.5455 116.567 38.426 116.985C38.308 117.404 38.2402 117.838 38.2181 118.282Z" fill="white"/>
<path d="M38.9318 126.332C38.98 126.372 39.0039 126.412 39.0224 126.452C39.0392 126.492 39.0473 126.531 39.0473 126.571C39.0475 126.611 39.0396 126.651 39.0226 126.691C39.0043 126.731 38.9802 126.771 38.9318 126.811C38.8835 126.771 38.8594 126.731 38.8411 126.691C38.8242 126.651 38.8162 126.611 38.8164 126.571C38.8166 126.531 38.8244 126.492 38.8413 126.452C38.8598 126.412 38.8837 126.372 38.9318 126.332Z" fill="white"/>
<path d="M39.3439 126.627C39.3921 126.663 39.416 126.699 39.4345 126.735C39.4513 126.771 39.4594 126.807 39.4594 126.844C39.4596 126.88 39.4517 126.916 39.4347 126.952C39.4164 126.988 39.3923 127.024 39.3439 127.061C39.2956 127.024 39.2715 126.988 39.2532 126.952C39.2363 126.916 39.2283 126.88 39.2285 126.844C39.2287 126.807 39.2365 126.771 39.2534 126.735C39.2719 126.699 39.2958 126.663 39.3439 126.627Z" fill="white"/>
<path d="M27.4982 109.784C27.5464 109.825 27.5703 109.865 27.5888 109.906C27.6056 109.946 27.6137 109.987 27.6137 110.027C27.6139 110.068 27.6058 110.108 27.589 110.149C27.5707 110.189 27.5466 110.23 27.4982 110.27C27.4499 110.23 27.4258 110.189 27.4075 110.149C27.3906 110.108 27.3826 110.068 27.3828 110.027C27.383 109.987 27.3908 109.946 27.4077 109.906C27.4262 109.865 27.4503 109.825 27.4982 109.784Z" fill="white"/>
<path d="M27.9304 110.295C27.9783 110.317 28.0024 110.338 28.0209 110.359C28.0378 110.38 28.0458 110.402 28.0458 110.423C28.046 110.444 28.038 110.466 28.0211 110.487C28.0028 110.508 27.9787 110.529 27.9304 110.551C27.882 110.529 27.8579 110.508 27.8396 110.487C27.8228 110.466 27.8147 110.444 27.8149 110.423C27.8151 110.402 27.823 110.38 27.8398 110.359C27.8583 110.338 27.8824 110.317 27.9304 110.295Z" fill="white"/>
<path d="M30.7004 98.9948C30.7486 99.0297 30.7724 99.0649 30.7909 99.0998C30.8078 99.1347 30.8158 99.1699 30.8158 99.2048C30.816 99.2398 30.8082 99.2749 30.7911 99.3099C30.7728 99.3448 30.7488 99.3799 30.7004 99.4149C30.652 99.3799 30.6279 99.3448 30.6097 99.3099C30.5928 99.2749 30.5848 99.2398 30.585 99.2048C30.5852 99.1699 30.593 99.1347 30.6099 99.0998C30.6285 99.0649 30.6524 99.0299 30.7004 98.9948Z" fill="white"/>
<path d="M30.8773 99.2896C30.9255 99.3077 30.9494 99.3257 30.9677 99.3438C30.9845 99.3619 30.9926 99.3799 30.9926 99.398C30.9928 99.4161 30.9849 99.4342 30.9679 99.4522C30.9496 99.4703 30.9255 99.4884 30.8771 99.5065C30.8288 99.4884 30.8047 99.4703 30.7864 99.4522C30.7696 99.4342 30.7615 99.4161 30.7617 99.398C30.7619 99.3799 30.7698 99.3619 30.7866 99.3438C30.8053 99.3257 30.8294 99.3077 30.8773 99.2896Z" fill="white"/>
<path d="M49.7951 128.887C49.8433 128.92 49.8672 128.953 49.8856 128.986C49.9025 129.019 49.9105 129.052 49.9105 129.085C49.9107 129.117 49.9029 129.15 49.8858 129.183C49.8676 129.216 49.8435 129.249 49.7951 129.282C49.7467 129.249 49.7226 129.216 49.7044 129.183C49.6875 129.15 49.6795 129.117 49.6797 129.085C49.6799 129.052 49.6877 129.019 49.7046 128.986C49.723 128.953 49.7471 128.92 49.7951 128.887Z" fill="white"/>
<path d="M50.2863 129.26C50.3345 129.293 50.3584 129.327 50.3769 129.36C50.3937 129.393 50.4017 129.426 50.4017 129.459C50.4019 129.492 50.3941 129.525 50.3771 129.558C50.3588 129.592 50.3347 129.625 50.2863 129.658C50.2379 129.625 50.2139 129.592 50.1956 129.558C50.1787 129.525 50.1707 129.492 50.1709 129.459C50.1711 129.426 50.1789 129.393 50.1958 129.36C50.2143 129.327 50.2381 129.293 50.2863 129.26Z" fill="white"/>
<path d="M49.2679 136.421C49.1519 136.263 49.0558 136.098 48.9656 135.931C48.8757 135.764 48.7916 135.594 48.7147 135.421C48.637 135.249 48.567 135.073 48.5021 134.894C48.4375 134.716 48.3789 134.534 48.3394 134.342C48.4654 134.492 48.5698 134.653 48.6653 134.818C48.7609 134.984 48.8482 135.153 48.9253 135.327C49.0032 135.501 49.0712 135.679 49.1304 135.86C49.1899 136.042 49.2402 136.227 49.2679 136.421Z" fill="white"/>
<path d="M46.821 143.061C46.6941 142.954 46.5863 142.834 46.4852 142.709C46.3842 142.585 46.2899 142.456 46.2032 142.322C46.1158 142.189 46.0365 142.051 45.9639 141.908C45.8912 141.765 45.8254 141.617 45.7788 141.458C45.9059 141.565 46.0139 141.685 46.1148 141.809C46.2158 141.934 46.3103 142.063 46.3967 142.197C46.4838 142.33 46.5631 142.469 46.6357 142.611C46.7084 142.755 46.7742 142.902 46.821 143.061Z" fill="white"/>
<path d="M43.3545 144.743C43.5767 144.659 43.8079 144.607 44.0414 144.573C44.275 144.54 44.5115 144.525 44.7476 144.529C44.9836 144.533 45.2195 144.558 45.4517 144.6C45.6838 144.642 45.913 144.703 46.1318 144.796C45.8943 144.797 45.6629 144.787 45.4323 144.779L44.7433 144.76L44.054 144.752C43.8232 144.752 43.5918 144.753 43.3545 144.743Z" fill="white"/>
<path d="M36.8366 155.107C36.7571 155.004 36.7065 154.888 36.6684 154.768C36.6317 154.647 36.611 154.523 36.6052 154.397C36.5994 154.272 36.6088 154.146 36.6345 154.023C36.6614 153.9 36.7015 153.779 36.7718 153.669C36.7967 153.797 36.8057 153.917 36.8155 154.036C36.8242 154.154 36.8306 154.27 36.8356 154.387C36.8408 154.503 36.8448 154.62 36.8469 154.739C36.8477 154.858 36.8499 154.978 36.8366 155.107Z" fill="white"/>
<path d="M38.676 155.025C38.7241 155.086 38.748 155.147 38.7665 155.207C38.7834 155.268 38.7914 155.328 38.7914 155.389C38.7916 155.449 38.7838 155.51 38.7667 155.57C38.7484 155.631 38.7243 155.692 38.676 155.752C38.6276 155.692 38.6035 155.631 38.5852 155.57C38.5684 155.51 38.5603 155.449 38.5606 155.389C38.5608 155.328 38.5686 155.268 38.5854 155.207C38.6041 155.147 38.628 155.086 38.676 155.025Z" fill="white"/>
<path d="M39.0102 155.87C39.0581 155.877 39.0822 155.883 39.1005 155.89C39.1173 155.897 39.1254 155.903 39.1254 155.91C39.1256 155.916 39.1177 155.923 39.1007 155.929C39.0824 155.936 39.0583 155.942 39.01 155.949C38.9616 155.942 38.9375 155.936 38.9192 155.929C38.9024 155.923 38.8943 155.916 38.8945 155.91C38.8947 155.903 38.9026 155.897 38.9194 155.89C38.9381 155.883 38.9622 155.877 39.0102 155.87Z" fill="white"/>
<path d="M52.7419 152.411C52.7901 152.438 52.814 152.464 52.8324 152.49C52.8493 152.517 52.8573 152.543 52.8573 152.569C52.8575 152.595 52.8495 152.622 52.8326 152.648C52.8144 152.674 52.7903 152.7 52.7419 152.726C52.6935 152.7 52.6694 152.674 52.6512 152.648C52.6343 152.621 52.6263 152.595 52.6265 152.569C52.6267 152.543 52.6345 152.517 52.6514 152.49C52.6698 152.464 52.6939 152.438 52.7419 152.411Z" fill="white"/>
<path d="M53.0563 152.51C53.1043 152.536 53.1284 152.562 53.1469 152.588C53.1637 152.615 53.1718 152.641 53.1718 152.667C53.172 152.693 53.1641 152.719 53.1471 152.746C53.1288 152.772 53.1047 152.798 53.0563 152.824C53.008 152.798 52.9839 152.772 52.9656 152.746C52.9487 152.72 52.9407 152.693 52.9409 152.667C52.9411 152.641 52.9489 152.615 52.9658 152.588C52.9843 152.562 53.0084 152.536 53.0563 152.51Z" fill="white"/>
<path d="M49.9151 156.29C50.0504 156.423 50.1459 156.595 50.2035 156.779C50.2613 156.964 50.2824 157.162 50.2611 157.357C50.2409 157.552 50.178 157.741 50.0825 157.909C49.9871 158.077 49.8571 158.225 49.6963 158.326C49.786 158.16 49.8615 157.999 49.9187 157.834C49.9757 157.669 50.0128 157.501 50.0317 157.332C50.0496 157.163 50.049 156.991 50.0283 156.817C50.0074 156.644 49.9679 156.471 49.9151 156.29Z" fill="white"/>
<path d="M51.7734 155.681C51.9017 155.731 52.0083 155.825 52.0918 155.936C52.1745 156.047 52.2329 156.178 52.2634 156.314C52.2941 156.45 52.2969 156.593 52.2696 156.729C52.2413 156.865 52.1849 156.995 52.0902 157.096C52.0952 156.959 52.0978 156.836 52.0886 156.715C52.0806 156.595 52.0635 156.479 52.0382 156.364C52.0127 156.25 51.9784 156.137 51.9344 156.025C51.8913 155.912 51.8365 155.802 51.7734 155.681Z" fill="white"/>
<path d="M55.0752 152.221C55.1944 152.279 55.2896 152.376 55.3636 152.486C55.4369 152.597 55.4871 152.723 55.5122 152.854C55.5375 152.985 55.5373 153.121 55.5102 153.251C55.4821 153.381 55.4291 153.506 55.3398 153.604C55.3384 153.472 55.3383 153.354 55.3293 153.237C55.3213 153.121 55.3066 153.009 55.2856 152.898C55.2643 152.786 55.2366 152.676 55.2011 152.565C55.1667 152.454 55.1228 152.344 55.0752 152.221Z" fill="white"/>
<path d="M26.968 144.59C27.0161 144.631 27.04 144.672 27.0585 144.713C27.0754 144.754 27.0834 144.795 27.0834 144.836C27.0836 144.877 27.0758 144.918 27.0587 144.96C27.0404 145.001 27.0163 145.042 26.968 145.083C26.9196 145.042 26.8955 145.001 26.8772 144.96C26.8604 144.918 26.8523 144.877 26.8525 144.836C26.8527 144.795 26.8606 144.754 26.8774 144.713C26.8959 144.672 26.9198 144.631 26.968 144.59Z" fill="white"/>
<path d="M27.3215 144.983C27.3697 145.015 27.3935 145.048 27.412 145.081C27.4289 145.114 27.4369 145.146 27.4369 145.179C27.4371 145.212 27.4293 145.245 27.4122 145.277C27.3939 145.31 27.3699 145.343 27.3215 145.375C27.2731 145.343 27.249 145.31 27.2307 145.277C27.2139 145.245 27.2059 145.212 27.2061 145.179C27.2063 145.146 27.2141 145.114 27.2309 145.081C27.2494 145.048 27.2735 145.015 27.3215 144.983Z" fill="white"/>
<path d="M30.6218 146.122C30.6699 146.167 30.6938 146.211 30.7123 146.255C30.7292 146.299 30.7372 146.343 30.7372 146.387C30.7374 146.431 30.7296 146.475 30.7125 146.52C30.6942 146.564 30.6701 146.608 30.6218 146.652C30.5734 146.608 30.5493 146.564 30.531 146.52C30.5142 146.475 30.5062 146.431 30.5064 146.387C30.5066 146.343 30.5144 146.299 30.5312 146.255C30.5497 146.211 30.5736 146.167 30.6218 146.122Z" fill="white"/>
<path d="M31.113 146.162C31.1612 146.216 31.185 146.27 31.2035 146.324C31.2204 146.378 31.2284 146.432 31.2284 146.486C31.2286 146.54 31.2206 146.594 31.2037 146.648C31.1854 146.702 31.1614 146.756 31.113 146.81C31.0646 146.756 31.0405 146.702 31.0223 146.648C31.0054 146.594 30.9974 146.54 30.9976 146.486C30.9978 146.432 31.0056 146.378 31.0225 146.324C31.0409 146.27 31.0648 146.216 31.113 146.162Z" fill="white"/>
<path d="M31.3755 151.008C31.0903 150.766 30.8504 150.471 30.6428 150.156C30.4411 149.837 30.2757 149.494 30.1488 149.138C29.8917 148.424 29.7821 147.669 29.7279 146.921C29.6871 146.173 29.6472 145.422 29.751 144.668C29.8038 144.293 29.8981 143.921 30.0493 143.574C30.2032 143.229 30.4084 142.902 30.6794 142.644C30.4479 142.937 30.2697 143.265 30.1546 143.615C30.0328 143.962 29.966 144.324 29.9298 144.689C29.8975 145.055 29.8909 145.424 29.9039 145.794C29.9146 146.163 29.931 146.536 29.9579 146.905C30.0069 147.643 30.1043 148.378 30.3188 149.081C30.537 149.781 30.8713 150.455 31.3755 151.008Z" fill="white"/>
</g>
<path d="M26.0053 123.873C24.9643 123.464 23.8611 123.007 23.2299 122.083C23.0515 121.821 22.9167 121.477 23.0607 121.195C23.2287 120.865 23.6805 120.806 24.043 120.88C24.6556 121.005 25.2091 121.397 25.53 121.934C25.6064 121.579 25.7122 121.255 25.8768 120.931C26.041 120.607 26.3043 120.318 26.6478 120.201C26.9913 120.084 27.4172 120.176 27.6259 120.473C27.8434 120.783 27.7787 121.206 27.6628 121.566C27.3827 122.434 26.7075 123.293 26.0053 123.873Z" fill="#FFA998"/>
<path d="M132.658 5.96313C130.968 5.50227 129.173 4.97629 128.035 3.64454C127.713 3.26728 127.445 2.75391 127.621 2.2901C127.827 1.74858 128.52 1.5797 129.097 1.63347C130.072 1.72421 131 2.24137 131.59 3.0232C131.649 2.45773 131.759 1.93553 131.961 1.40367C132.162 0.87181 132.523 0.376923 133.038 0.13662C133.553 -0.103684 134.232 -0.0326889 134.607 0.394984C134.997 0.840721 134.969 1.51122 134.849 2.09181C134.56 3.48994 133.653 4.94142 132.658 5.96313Z" fill="#FFA998"/>
<defs>
<filter id="filter0_dddd_157_26765" x="0.839844" y="6.50275" width="184.161" height="215.335" filterUnits="userSpaceOnUse" color-interpolation-filters="sRGB">
<feFlood flood-opacity="0" result="BackgroundImageFix"/>
<feColorMatrix in="SourceAlpha" type="matrix" values="0 0 0 0 0 0 0 0 0 0 0 0 0 0 0 0 0 0 127 0" result="hardAlpha"/>
<feOffset dy="4"/>
<feGaussianBlur stdDeviation="4"/>
<feColorMatrix type="matrix" values="0 0 0 0 0 0 0 0 0 0 0 0 0 0 0 0 0 0 0.1 0"/>
<feBlend mode="normal" in2="BackgroundImageFix" result="effect1_dropShadow_157_26765"/>
<feColorMatrix in="SourceAlpha" type="matrix" values="0 0 0 0 0 0 0 0 0 0 0 0 0 0 0 0 0 0 127 0" result="hardAlpha"/>
<feOffset dy="14"/>
<feGaussianBlur stdDeviation="7"/>
<feColorMatrix type="matrix" values="0 0 0 0 0 0 0 0 0 0 0 0 0 0 0 0 0 0 0.09 0"/>
<feBlend mode="normal" in2="effect1_dropShadow_157_26765" result="effect2_dropShadow_157_26765"/>
<feColorMatrix in="SourceAlpha" type="matrix" values="0 0 0 0 0 0 0 0 0 0 0 0 0 0 0 0 0 0 127 0" result="hardAlpha"/>
<feOffset dy="32"/>
<feGaussianBlur stdDeviation="9.5"/>
<feColorMatrix type="matrix" values="0 0 0 0 0 0 0 0 0 0 0 0 0 0 0 0 0 0 0.05 0"/>
<feBlend mode="normal" in2="effect2_dropShadow_157_26765" result="effect3_dropShadow_157_26765"/>
<feColorMatrix in="SourceAlpha" type="matrix" values="0 0 0 0 0 0 0 0 0 0 0 0 0 0 0 0 0 0 127 0" result="hardAlpha"/>
<feOffset dy="56"/>
<feGaussianBlur stdDeviation="11.5"/>
<feColorMatrix type="matrix" values="0 0 0 0 0 0 0 0 0 0 0 0 0 0 0 0 0 0 0.01 0"/>
<feBlend mode="normal" in2="effect3_dropShadow_157_26765" result="effect4_dropShadow_157_26765"/>
<feBlend mode="normal" in="SourceGraphic" in2="effect4_dropShadow_157_26765" result="shape"/>
</filter>
<filter id="filter1_dddd_157_26765" x="116.985" y="119.412" width="44.1001" height="71.2614" filterUnits="userSpaceOnUse" color-interpolation-filters="sRGB">
<feFlood flood-opacity="0" result="BackgroundImageFix"/>
<feColorMatrix in="SourceAlpha" type="matrix" values="0 0 0 0 0 0 0 0 0 0 0 0 0 0 0 0 0 0 127 0" result="hardAlpha"/>
<feOffset dy="2"/>
<feGaussianBlur stdDeviation="2"/>
<feColorMatrix type="matrix" values="0 0 0 0 0 0 0 0 0 0 0 0 0 0 0 0 0 0 0.1 0"/>
<feBlend mode="normal" in2="BackgroundImageFix" result="effect1_dropShadow_157_26765"/>
<feColorMatrix in="SourceAlpha" type="matrix" values="0 0 0 0 0 0 0 0 0 0 0 0 0 0 0 0 0 0 127 0" result="hardAlpha"/>
<feOffset dy="7"/>
<feGaussianBlur stdDeviation="3.5"/>
<feColorMatrix type="matrix" values="0 0 0 0 0 0 0 0 0 0 0 0 0 0 0 0 0 0 0.09 0"/>
<feBlend mode="normal" in2="effect1_dropShadow_157_26765" result="effect2_dropShadow_157_26765"/>
<feColorMatrix in="SourceAlpha" type="matrix" values="0 0 0 0 0 0 0 0 0 0 0 0 0 0 0 0 0 0 127 0" result="hardAlpha"/>
<feOffset dy="16"/>
<feGaussianBlur stdDeviation="4.5"/>
<feColorMatrix type="matrix" values="0 0 0 0 0 0 0 0 0 0 0 0 0 0 0 0 0 0 0.05 0"/>
<feBlend mode="normal" in2="effect2_dropShadow_157_26765" result="effect3_dropShadow_157_26765"/>
<feColorMatrix in="SourceAlpha" type="matrix" values="0 0 0 0 0 0 0 0 0 0 0 0 0 0 0 0 0 0 127 0" result="hardAlpha"/>
<feOffset dy="28"/>
<feGaussianBlur stdDeviation="5.5"/>
<feColorMatrix type="matrix" values="0 0 0 0 0 0 0 0 0 0 0 0 0 0 0 0 0 0 0.01 0"/>
<feBlend mode="normal" in2="effect3_dropShadow_157_26765" result="effect4_dropShadow_157_26765"/>
<feBlend mode="normal" in="SourceGraphic" in2="effect4_dropShadow_157_26765" result="shape"/>
</filter>
<filter id="filter2_dddd_157_26765" x="131.804" y="125.674" width="40.0645" height="63.3146" filterUnits="userSpaceOnUse" color-interpolation-filters="sRGB">
<feFlood flood-opacity="0" result="BackgroundImageFix"/>
<feColorMatrix in="SourceAlpha" type="matrix" values="0 0 0 0 0 0 0 0 0 0 0 0 0 0 0 0 0 0 127 0" result="hardAlpha"/>
<feOffset dy="1"/>
<feGaussianBlur stdDeviation="1.5"/>
<feColorMatrix type="matrix" values="0 0 0 0 0 0 0 0 0 0 0 0 0 0 0 0 0 0 0.1 0"/>
<feBlend mode="normal" in2="BackgroundImageFix" result="effect1_dropShadow_157_26765"/>
<feColorMatrix in="SourceAlpha" type="matrix" values="0 0 0 0 0 0 0 0 0 0 0 0 0 0 0 0 0 0 127 0" result="hardAlpha"/>
<feOffset dy="5"/>
<feGaussianBlur stdDeviation="2.5"/>
<feColorMatrix type="matrix" values="0 0 0 0 0 0 0 0 0 0 0 0 0 0 0 0 0 0 0.09 0"/>
<feBlend mode="normal" in2="effect1_dropShadow_157_26765" result="effect2_dropShadow_157_26765"/>
<feColorMatrix in="SourceAlpha" type="matrix" values="0 0 0 0 0 0 0 0 0 0 0 0 0 0 0 0 0 0 127 0" result="hardAlpha"/>
<feOffset dx="1" dy="12"/>
<feGaussianBlur stdDeviation="3.5"/>
<feColorMatrix type="matrix" values="0 0 0 0 0 0 0 0 0 0 0 0 0 0 0 0 0 0 0.05 0"/>
<feBlend mode="normal" in2="effect2_dropShadow_157_26765" result="effect3_dropShadow_157_26765"/>
<feColorMatrix in="SourceAlpha" type="matrix" values="0 0 0 0 0 0 0 0 0 0 0 0 0 0 0 0 0 0 127 0" result="hardAlpha"/>
<feOffset dx="1" dy="22"/>
<feGaussianBlur stdDeviation="4.5"/>
<feColorMatrix type="matrix" values="0 0 0 0 0 0 0 0 0 0 0 0 0 0 0 0 0 0 0.01 0"/>
<feBlend mode="normal" in2="effect3_dropShadow_157_26765" result="effect4_dropShadow_157_26765"/>
<feBlend mode="normal" in="SourceGraphic" in2="effect4_dropShadow_157_26765" result="shape"/>
</filter>
<filter id="filter3_dddd_157_26765" x="12.6797" y="94.6255" width="55.1475" height="107.375" filterUnits="userSpaceOnUse" color-interpolation-filters="sRGB">
<feFlood flood-opacity="0" result="BackgroundImageFix"/>
<feColorMatrix in="SourceAlpha" type="matrix" values="0 0 0 0 0 0 0 0 0 0 0 0 0 0 0 0 0 0 127 0" result="hardAlpha"/>
<feOffset dy="2"/>
<feGaussianBlur stdDeviation="2"/>
<feColorMatrix type="matrix" values="0 0 0 0 0 0 0 0 0 0 0 0 0 0 0 0 0 0 0.1 0"/>
<feBlend mode="normal" in2="BackgroundImageFix" result="effect1_dropShadow_157_26765"/>
<feColorMatrix in="SourceAlpha" type="matrix" values="0 0 0 0 0 0 0 0 0 0 0 0 0 0 0 0 0 0 127 0" result="hardAlpha"/>
<feOffset dy="8"/>
<feGaussianBlur stdDeviation="4"/>
<feColorMatrix type="matrix" values="0 0 0 0 0 0 0 0 0 0 0 0 0 0 0 0 0 0 0.09 0"/>
<feBlend mode="normal" in2="effect1_dropShadow_157_26765" result="effect2_dropShadow_157_26765"/>
<feColorMatrix in="SourceAlpha" type="matrix" values="0 0 0 0 0 0 0 0 0 0 0 0 0 0 0 0 0 0 127 0" result="hardAlpha"/>
<feOffset dy="18"/>
<feGaussianBlur stdDeviation="5.5"/>
<feColorMatrix type="matrix" values="0 0 0 0 0 0 0 0 0 0 0 0 0 0 0 0 0 0 0.05 0"/>
<feBlend mode="normal" in2="effect2_dropShadow_157_26765" result="effect3_dropShadow_157_26765"/>
<feColorMatrix in="SourceAlpha" type="matrix" values="0 0 0 0 0 0 0 0 0 0 0 0 0 0 0 0 0 0 127 0" result="hardAlpha"/>
<feOffset dy="31"/>
<feGaussianBlur stdDeviation="6"/>
<feColorMatrix type="matrix" values="0 0 0 0 0 0 0 0 0 0 0 0 0 0 0 0 0 0 0.01 0"/>
<feBlend mode="normal" in2="effect3_dropShadow_157_26765" result="effect4_dropShadow_157_26765"/>
<feBlend mode="normal" in="SourceGraphic" in2="effect4_dropShadow_157_26765" result="shape"/>
</filter>
<linearGradient id="paint0_linear_157_26765" x1="39.3795" y1="113.305" x2="33.6787" y2="101.24" gradientUnits="userSpaceOnUse">
<stop offset="0.1434" stop-color="#FAD4D3"/>
<stop offset="0.8998" stop-color="#FFEBEB"/>
</linearGradient>
<linearGradient id="paint1_linear_157_26765" x1="47.0746" y1="138.532" x2="-15.0135" y2="75.5372" gradientUnits="userSpaceOnUse">
<stop offset="0.1787" stop-color="#DDDCDA"/>
<stop offset="0.637" stop-color="#CCCBC9"/>
</linearGradient>
<linearGradient id="paint2_linear_157_26765" x1="35.9421" y1="114.854" x2="27.8439" y2="103.183" gradientUnits="userSpaceOnUse">
<stop offset="0.1434" stop-color="#FAD4D3"/>
<stop offset="0.8998" stop-color="#FFEBEB"/>
</linearGradient>
<linearGradient id="paint3_linear_157_26765" x1="47.8567" y1="149.256" x2="52.457" y2="133.692" gradientUnits="userSpaceOnUse">
<stop offset="0.1434" stop-color="#FAD4D3"/>
<stop offset="0.8998" stop-color="#FFEBEB"/>
</linearGradient>
<linearGradient id="paint4_linear_157_26765" x1="47.1247" y1="137.326" x2="50.5454" y2="146.13" gradientUnits="userSpaceOnUse">
<stop offset="0.1787" stop-color="#DDDCDA"/>
<stop offset="0.637" stop-color="#CCCBC9"/>
</linearGradient>
<radialGradient id="paint5_radial_157_26765" cx="0" cy="0" r="1" gradientUnits="userSpaceOnUse" gradientTransform="translate(46.5441 122.537) scale(2.29108 2.29201)">
<stop offset="0.3421" stop-color="#FAD4D3"/>
<stop offset="1" stop-color="#FAD4D3" stop-opacity="0"/>
</radialGradient>
<clipPath id="clip0_157_26765">
<rect width="13.4381" height="13.4436" fill="white" transform="translate(90.6104 71.4188)"/>
</clipPath>
</defs>
</svg>
