<svg width="148" height="148" viewBox="0 0 148 148" fill="none" xmlns="http://www.w3.org/2000/svg">
<path d="M104.4 6.51693C95.1155 2.32747 84.8454 0 74.0001 0C68.9061 0 63.949 0.520259 59.1562 1.47863L74.0001 73.9863L104.4 6.51693Z" fill="url(#paint0_linear_157_26680)"/>
<path d="M59.156 1.47861C43.6275 4.65493 29.8792 12.6779 19.5269 23.9045L73.9998 73.9863L59.156 1.47861Z" fill="#F2F2F2"/>
<path d="M147.343 83.8986C147.781 80.6675 148 77.3543 148 73.9863C148 61.3632 144.85 49.5068 139.264 39.1016L74 73.9863L147.343 83.8986Z" fill="url(#paint1_linear_157_26680)"/>
<path d="M19.5272 23.9045C9.25704 35.0764 2.38288 49.3972 0.493164 65.2514L73.9728 73.9863L19.5272 23.9045Z" fill="url(#paint2_linear_157_26680)"/>
<path d="M139.264 39.1016C131.568 24.7534 119.298 13.2255 104.4 6.51694L74 73.9863L139.264 39.1016Z" fill="#F2F2F2"/>
<path d="M42.5596 140.99C52.1177 145.481 62.7713 148 74.0274 148C78.7106 148 83.2842 147.562 87.7209 146.74L74.0274 74.0137L42.5596 140.99Z" fill="#F2F2F2"/>
<path d="M74 73.9863L127.679 124.917C138.141 113.909 145.234 99.6707 147.343 83.8712L74 73.9863Z" fill="#F2F2F2"/>
<path d="M87.7209 146.713C103.332 143.783 117.189 135.979 127.679 124.944L74 74.0137L87.7209 146.713Z" fill="url(#paint3_linear_157_26680)"/>
<path d="M0.520355 65.2514C0.19171 68.1265 0 71.029 0 73.9863C0 87.0202 3.36862 99.2599 9.28424 109.884L74 73.9863L0.520355 65.2514Z" fill="#F2F2F2"/>
<path d="M9.28418 109.912C16.8156 123.438 28.4552 134.364 42.5321 140.99L74 74.0137L9.28418 109.912Z" fill="url(#paint4_linear_157_26680)"/>
<path d="M73.6581 83.1394C79.1606 83.1394 83.6213 78.6787 83.6213 73.1761C83.6213 67.6736 79.1606 63.2129 73.6581 63.2129C68.1555 63.2129 63.6948 67.6736 63.6948 73.1761C63.6948 78.6787 68.1555 83.1394 73.6581 83.1394Z" fill="#FDC453"/>
<path d="M90.7351 73.1761L85.4293 67.8703C83.4006 63.3884 78.8893 60.2606 73.6582 60.2606C66.5368 60.2606 60.7427 66.0543 60.7427 73.1766C60.7427 80.2984 66.5368 86.0926 73.6582 86.0926C78.8893 86.0926 83.4006 82.9649 85.4293 78.4829L90.7351 73.1761ZM73.6577 84.6459C67.3337 84.6459 62.1884 79.5006 62.1884 73.1761C62.1884 66.8517 67.3337 61.7064 73.6577 61.7064C79.9822 61.7064 85.1275 66.8517 85.1275 73.1761C85.1275 79.5006 79.9822 84.6459 73.6577 84.6459Z" fill="#FDC453"/>
<path d="M80.9902 80.0261C84.9839 76.0323 84.9839 69.5572 80.9902 65.5635C76.9965 61.5698 70.5214 61.5698 66.5277 65.5635C62.5339 69.5572 62.5339 76.0323 66.5277 80.0261C70.5214 84.0198 76.9965 84.0198 80.9902 80.0261Z" fill="#FFCB27"/>
<path d="M79.1108 64.0663C80.1292 65.6563 80.7198 67.5466 80.7198 69.5749C80.7198 75.223 76.1411 79.8015 70.4931 79.8015C68.5316 79.8015 66.6992 79.2488 65.1426 78.2914C66.96 81.1288 70.1406 83.0095 73.7603 83.0095C79.4084 83.0095 83.987 78.4309 83.987 72.7828C83.987 69.0964 82.0362 65.8659 79.1108 64.0663Z" fill="#F9C021"/>
<path d="M64.924 73.8738C64.924 68.6299 69.175 64.3789 74.4189 64.3789C77.484 64.3789 80.2094 65.8317 81.9454 68.0858C80.3058 65.2395 77.2328 63.3233 73.7122 63.3233C68.4683 63.3233 64.2173 67.5743 64.2173 72.8182C64.2173 74.9969 64.9517 77.004 66.1857 78.6062C65.3831 77.213 64.924 75.5971 64.924 73.8738Z" fill="#FFD95F"/>
<path d="M80.4567 71.0063C80.3999 70.8316 80.2517 70.7067 80.0699 70.6803L76.2411 70.1239L74.5289 66.6545C74.4475 66.4898 74.2829 66.3873 74.0991 66.3873C73.9154 66.3873 73.7508 66.4898 73.6694 66.6545L71.9572 70.1239L68.1286 70.6802C67.9466 70.7067 67.7984 70.8316 67.7416 71.0063C67.6848 71.1811 67.7313 71.3694 67.8629 71.4977L70.6335 74.1983L69.9794 78.0116C69.9484 78.1928 70.0216 78.3724 70.1702 78.4803C70.3186 78.5881 70.5122 78.6022 70.6746 78.5168L74.0992 76.7163L77.5238 78.5168C77.5945 78.554 77.671 78.5723 77.7472 78.5723C77.8461 78.5723 77.9444 78.5414 78.0283 78.4803C78.177 78.3723 78.2502 78.1928 78.2191 78.0115L77.5651 74.1983L80.3356 71.4977C80.4671 71.3695 80.5136 71.1811 80.4567 71.0063Z" fill="white"/>
<defs>
<linearGradient id="paint0_linear_157_26680" x1="59.1562" y1="-13.5755" x2="140.197" y2="48.0641" gradientUnits="userSpaceOnUse">
<stop offset="0.325" stop-color="#A27CFE"/>
<stop offset="0.665" stop-color="#71CCFF"/>
</linearGradient>
<linearGradient id="paint1_linear_157_26680" x1="74" y1="30.8819" x2="114.071" y2="113.213" gradientUnits="userSpaceOnUse">
<stop offset="0.325" stop-color="#A27CFE"/>
<stop offset="0.665" stop-color="#71CCFF"/>
</linearGradient>
<linearGradient id="paint2_linear_157_26680" x1="0.493162" y1="14.7152" x2="48.4719" y2="102.272" gradientUnits="userSpaceOnUse">
<stop offset="0.325" stop-color="#A27CFE"/>
<stop offset="0.665" stop-color="#71CCFF"/>
</linearGradient>
<linearGradient id="paint3_linear_157_26680" x1="74" y1="60.6744" x2="156.333" y2="136.287" gradientUnits="userSpaceOnUse">
<stop offset="0.325" stop-color="#A27CFE"/>
<stop offset="0.665" stop-color="#71CCFF"/>
</linearGradient>
<linearGradient id="paint4_linear_157_26680" x1="9.28418" y1="61.7244" x2="84.1423" y2="151.69" gradientUnits="userSpaceOnUse">
<stop offset="0.325" stop-color="#A27CFE"/>
<stop offset="0.665" stop-color="#71CCFF"/>
</linearGradient>
</defs>
</svg>
