<svg width="24" height="24" viewBox="0 0 24 24" fill="none" xmlns="http://www.w3.org/2000/svg">
<path d="M12 0C8.82935 0.0384714 5.79941 1.3151 3.55726 3.55726C1.3151 5.79941 0.0384714 8.82935 0 12C0.0384714 15.1706 1.3151 18.2006 3.55726 20.4427C5.79941 22.6849 8.82935 23.9615 12 24C15.1706 23.9615 18.2006 22.6849 20.4427 20.4427C22.6849 18.2006 23.9615 15.1706 24 12C23.9615 8.82935 22.6849 5.79941 20.4427 3.55726C18.2006 1.3151 15.1706 0.0384714 12 0ZM18.8571 12.8571H12.8571V18.8571H11.1429V12.8571H5.14286V11.1429H11.1429V5.14286H12.8571V11.1429H18.8571V12.8571Z" fill="url(#paint0_linear_139_3085)"/>
<defs>
<linearGradient id="paint0_linear_139_3085" x1="-6.41975e-07" y1="-4.40367" x2="26.6422" y2="28.7339" gradientUnits="userSpaceOnUse">
<stop offset="0.325" stop-color="#A27CFE"/>
<stop offset="0.665" stop-color="#71CCFF"/>
</linearGradient>
</defs>
</svg>
