<svg width="20" height="20" viewBox="0 0 20 20" fill="none" xmlns="http://www.w3.org/2000/svg">
<path d="M17.921 8.803L10.7 8V2C10.7 1.46957 10.4893 0.960859 10.1143 0.585786C9.73919 0.210714 9.23048 0 8.70004 0C8.16961 0 7.6609 0.210714 7.28583 0.585786C6.91076 0.960859 6.70004 1.46957 6.70004 2V14L3.66904 12.788C3.41598 12.6868 3.1449 12.6384 2.87246 12.6458C2.60001 12.6532 2.33195 12.7161 2.08472 12.8309C1.8375 12.9456 1.61633 13.1096 1.43479 13.3129C1.25325 13.5162 1.11518 13.7544 1.02904 14.013L0.916044 14.353C0.852313 14.5438 0.847716 14.7494 0.902856 14.9428C0.957997 15.1362 1.0703 15.3085 1.22504 15.437L6.42204 19.769C6.60104 19.918 6.82804 20 7.06204 20H17.7C18.2305 20 18.7392 19.7893 19.1143 19.4142C19.4893 19.0391 19.7 18.5304 19.7 18V10.79C19.6999 10.298 19.5183 9.82326 19.1901 9.45668C18.8619 9.0901 18.4101 8.85737 17.921 8.803Z" fill="black"/>
</svg>
