<svg width="20" height="20" viewBox="0 0 20 20" fill="none" xmlns="http://www.w3.org/2000/svg">
<path d="M17.921 8.803L10.7 8V2C10.7 1.46957 10.4893 0.960859 10.1142 0.585786C9.73915 0.210714 9.23045 0 8.70001 0C8.16958 0 7.66087 0.210714 7.2858 0.585786C6.91073 0.960859 6.70001 1.46957 6.70001 2V14L3.66901 12.788C3.41595 12.6868 3.14487 12.6384 2.87243 12.6458C2.59998 12.6532 2.33192 12.7161 2.08469 12.8309C1.83747 12.9456 1.6163 13.1096 1.43476 13.3129C1.25322 13.5162 1.11515 13.7544 1.02901 14.013L0.916014 14.353C0.852282 14.5438 0.847686 14.7494 0.902826 14.9428C0.957966 15.1362 1.07027 15.3085 1.22501 15.437L6.42201 19.769C6.60101 19.918 6.82801 20 7.06201 20H17.7C18.2304 20 18.7392 19.7893 19.1142 19.4142C19.4893 19.0391 19.7 18.5304 19.7 18V10.79C19.6998 10.298 19.5183 9.82326 19.1901 9.45668C18.8619 9.0901 18.41 8.85737 17.921 8.803Z" fill="url(#paint0_linear_62_11355)"/>
<defs>
<linearGradient id="paint0_linear_62_11355" x1="0.864593" y1="-3.66972" x2="23.3155" y2="22.6287" gradientUnits="userSpaceOnUse">
<stop offset="0.325" stop-color="#A27CFE"/>
<stop offset="0.665" stop-color="#71CCFF"/>
</linearGradient>
</defs>
</svg>
