<svg width="25" height="24" viewBox="0 0 25 24" fill="none" xmlns="http://www.w3.org/2000/svg">
<path d="M10.8999 15.6H10.8387C10.5366 15.6 10.247 15.48 10.0334 15.2665C9.81983 15.0529 9.69985 14.7632 9.69985 14.4612C9.69985 14.1429 9.57343 13.8377 9.34838 13.6127C9.12334 13.3876 8.81811 13.2612 8.49985 13.2612C8.18159 13.2612 7.87637 13.3876 7.65133 13.6127C7.42628 13.8377 7.29985 14.1429 7.29985 14.4612C7.29985 15.3997 7.67269 16.2999 8.33634 16.9635C9 17.6272 9.90011 18 10.8387 18H10.8999V19.2C10.8999 19.5183 11.0263 19.8235 11.2513 20.0485C11.4764 20.2736 11.7816 20.4 12.0999 20.4C12.4181 20.4 12.7233 20.2736 12.9484 20.0485C13.1734 19.8235 13.2999 19.5183 13.2999 19.2V18C14.2546 18 15.1703 17.6207 15.8454 16.9456C16.5206 16.2705 16.8999 15.3548 16.8999 14.4C16.8999 13.4452 16.5206 12.5295 15.8454 11.8544C15.1703 11.1793 14.2546 10.8 13.2999 10.8V8.4H13.3263C13.9743 8.4 14.4999 8.9256 14.4999 9.5736C14.4999 9.89186 14.6263 10.1971 14.8513 10.4221C15.0764 10.6472 15.3816 10.7736 15.6999 10.7736C16.0181 10.7736 16.3233 10.6472 16.5484 10.4221C16.7734 10.1971 16.8999 9.89186 16.8999 9.5736C16.8999 8.62582 16.5233 7.71686 15.8532 7.04668C15.183 6.3765 14.274 6 13.3263 6H13.2999V4.8C13.2999 4.48174 13.1734 4.17652 12.9484 3.95147C12.7233 3.72643 12.4181 3.6 12.0999 3.6C11.7816 3.6 11.4764 3.72643 11.2513 3.95147C11.0263 4.17652 10.8999 4.48174 10.8999 4.8V6C10.4271 6 9.95897 6.09312 9.52219 6.27403C9.08542 6.45495 8.68856 6.72013 8.35427 7.05442C8.01998 7.38871 7.7548 7.78557 7.57389 8.22234C7.39297 8.65911 7.29985 9.12724 7.29985 9.6C7.29985 10.0728 7.39297 10.5409 7.57389 10.9777C7.7548 11.4144 8.01998 11.8113 8.35427 12.1456C8.68856 12.4799 9.08542 12.7451 9.52219 12.926C9.95897 13.1069 10.4271 13.2 10.8999 13.2V15.6ZM13.2999 15.6V13.2C13.6181 13.2 13.9233 13.3264 14.1484 13.5515C14.3734 13.7765 14.4999 14.0817 14.4999 14.4C14.4999 14.7183 14.3734 15.0235 14.1484 15.2485C13.9233 15.4736 13.6181 15.6 13.2999 15.6ZM10.8999 8.4V10.8C10.5816 10.8 10.2764 10.6736 10.0513 10.4485C9.82628 10.2235 9.69985 9.91826 9.69985 9.6C9.69985 9.28174 9.82628 8.97652 10.0513 8.75147C10.2764 8.52643 10.5816 8.4 10.8999 8.4ZM12.0999 24C5.47225 24 0.0998535 18.6276 0.0998535 12C0.0998535 5.3724 5.47225 0 12.0999 0C18.7275 0 24.0999 5.3724 24.0999 12C24.0999 18.6276 18.7275 24 12.0999 24Z" fill="black"/>
</svg>
