<svg width="24" height="24" viewBox="0 0 24 24" fill="none" xmlns="http://www.w3.org/2000/svg">
<path d="M6.53644 2.25H17.4634C17.6325 2.24961 17.8 2.28261 17.9562 2.34713C18.1125 2.41164 18.2545 2.50639 18.374 2.62593C18.4936 2.74547 18.5883 2.88745 18.6528 3.04371C18.7173 3.19998 18.7503 3.36745 18.7499 3.5365L18.5179 10.995H5.39144L5.24994 3.5365C5.23794 2.824 5.82394 2.25 6.53644 2.25Z" stroke="black" stroke-width="2" stroke-linecap="round" stroke-linejoin="round"/>
<path d="M18.5181 10.9951V13.3111C18.6041 14.2536 17.4516 14.2421 16.7041 14.2461C13.9576 14.2601 13.3871 15.5296 13.4696 16.8916C13.5476 18.1776 13.5681 18.3406 13.5856 19.0661C13.6281 20.8096 12.7881 21.7501 11.9546 21.7501C11.1211 21.7501 10.2816 20.8101 10.3241 19.0661C10.3416 18.3406 10.3621 18.1776 10.4401 16.8916C10.5221 15.5296 9.95206 14.2601 7.20506 14.2461C6.45756 14.2421 5.30506 14.2536 5.39156 13.3111V10.9951" stroke="black" stroke-width="2" stroke-linecap="round" stroke-linejoin="round"/>
</svg>
