<svg width="25" height="24" viewBox="0 0 25 24" fill="none" xmlns="http://www.w3.org/2000/svg">
<path d="M10.9 15.6H10.8388C10.5368 15.6 10.2471 15.48 10.0336 15.2665C9.81999 15.0529 9.70001 14.7632 9.70001 14.4612C9.70001 14.1429 9.57359 13.8377 9.34854 13.6127C9.1235 13.3876 8.81827 13.2612 8.50001 13.2612C8.18175 13.2612 7.87653 13.3876 7.65149 13.6127C7.42644 13.8377 7.30001 14.1429 7.30001 14.4612C7.30001 15.3997 7.67285 16.2999 8.3365 16.9635C9.00016 17.6272 9.90027 18 10.8388 18H10.9V19.2C10.9 19.5183 11.0264 19.8235 11.2515 20.0485C11.4765 20.2736 11.7818 20.4 12.1 20.4C12.4183 20.4 12.7235 20.2736 12.9485 20.0485C13.1736 19.8235 13.3 19.5183 13.3 19.2V18C14.2548 18 15.1705 17.6207 15.8456 16.9456C16.5207 16.2705 16.9 15.3548 16.9 14.4C16.9 13.4452 16.5207 12.5295 15.8456 11.8544C15.1705 11.1793 14.2548 10.8 13.3 10.8V8.4H13.3264C13.9744 8.4 14.5 8.9256 14.5 9.5736C14.5 9.89186 14.6264 10.1971 14.8515 10.4221C15.0765 10.6472 15.3818 10.7736 15.7 10.7736C16.0183 10.7736 16.3235 10.6472 16.5485 10.4221C16.7736 10.1971 16.9 9.89186 16.9 9.5736C16.9 8.62582 16.5235 7.71686 15.8533 7.04668C15.1832 6.3765 14.2742 6 13.3264 6H13.3V4.8C13.3 4.48174 13.1736 4.17652 12.9485 3.95147C12.7235 3.72643 12.4183 3.6 12.1 3.6C11.7818 3.6 11.4765 3.72643 11.2515 3.95147C11.0264 4.17652 10.9 4.48174 10.9 4.8V6C10.4273 6 9.95913 6.09312 9.52235 6.27403C9.08558 6.45495 8.68872 6.72013 8.35443 7.05442C8.02014 7.38871 7.75496 7.78557 7.57405 8.22234C7.39313 8.65911 7.30001 9.12724 7.30001 9.6C7.30001 10.0728 7.39313 10.5409 7.57405 10.9777C7.75496 11.4144 8.02014 11.8113 8.35443 12.1456C8.68872 12.4799 9.08558 12.7451 9.52235 12.926C9.95913 13.1069 10.4273 13.2 10.9 13.2V15.6ZM13.3 15.6V13.2C13.6183 13.2 13.9235 13.3264 14.1485 13.5515C14.3736 13.7765 14.5 14.0817 14.5 14.4C14.5 14.7183 14.3736 15.0235 14.1485 15.2485C13.9235 15.4736 13.6183 15.6 13.3 15.6ZM10.9 8.4V10.8C10.5818 10.8 10.2765 10.6736 10.0515 10.4485C9.82644 10.2235 9.70001 9.91826 9.70001 9.6C9.70001 9.28174 9.82644 8.97652 10.0515 8.75147C10.2765 8.52643 10.5818 8.4 10.9 8.4ZM12.1 24C5.47241 24 0.100014 18.6276 0.100014 12C0.100014 5.3724 5.47241 0 12.1 0C18.7276 0 24.1 5.3724 24.1 12C24.1 18.6276 18.7276 24 12.1 24Z" fill="url(#paint0_linear_77_757)"/>
<defs>
<linearGradient id="paint0_linear_77_757" x1="0.100013" y1="-4.40367" x2="26.7422" y2="28.7339" gradientUnits="userSpaceOnUse">
<stop offset="0.325" stop-color="#A27CFE"/>
<stop offset="0.665" stop-color="#71CCFF"/>
</linearGradient>
</defs>
</svg>
