<svg width="23" height="22" viewBox="0 0 23 22" fill="none" xmlns="http://www.w3.org/2000/svg">
<path d="M17.626 21.8633L12.0368 19.2653C11.6666 19.0932 11.5055 18.6529 11.6778 18.2821L15.6328 9.77319C15.8047 9.40269 16.2454 9.24191 16.6154 9.4138L22.2048 12.0123C22.5751 12.1844 22.7359 12.6247 22.5637 12.995L18.6088 21.5039C18.4364 21.8744 17.9959 22.0352 17.626 21.8633ZM4.13829 20.9349L0.427664 12.3167C0.266039 11.9414 0.439617 11.5057 0.814383 11.3443L2.6517 10.5535L4.9474 19.1805C5.16743 20.005 6.01404 20.4967 6.83927 20.2769L8.6689 19.7901L5.11076 21.3223C4.73543 21.4836 4.30001 21.3103 4.13838 20.935L4.13829 20.9349ZM5.72688 18.9727L3.31385 9.90491C3.20885 9.51022 3.44416 9.10438 3.83838 8.99966L5.43368 8.57535L5.24159 10.0034C5.12805 10.8488 5.72084 11.6277 6.56745 11.7418L10.3094 12.2461L8.78609 17.3774C8.62929 17.9061 8.76874 18.4531 9.10793 18.839L6.63199 19.4976C6.2373 19.6026 5.83188 19.3677 5.72688 18.9727ZM10.8094 18.7496L10.0585 18.5265C9.66663 18.4098 9.44351 17.9983 9.55957 17.6065L12.23 8.61116C12.3465 8.21928 12.7588 7.99616 13.1498 8.11194L15.4501 8.79552L15.4505 8.79528L15.4561 8.79735L15.4499 8.79575C15.2113 8.95318 15.0212 9.17403 14.9012 9.43349L10.9459 17.9427C10.8288 18.1946 10.7816 18.4734 10.8093 18.7498L10.8094 18.7496ZM10.5419 11.4638L6.6754 10.9427C6.27073 10.8881 5.98615 10.5152 6.0408 10.1103L7.29377 0.810784C7.34815 0.406112 7.72151 0.121815 8.12534 0.17619L14.2344 0.999456C14.6388 1.05411 14.9231 1.42719 14.8687 1.83158L14.0978 7.55282L13.3792 7.33944C12.5605 7.09583 11.6999 7.56369 11.4572 8.38157L10.5419 11.4638ZM10.2986 9.98914C10.5176 9.84594 10.649 9.64049 10.6933 9.37297C10.7372 9.10892 10.6766 8.8753 10.5121 8.67242C10.3476 8.46552 10.1188 8.33774 9.82512 8.28908C9.52774 8.23953 9.2659 8.28566 9.03996 8.42764C8.81374 8.56967 8.6794 8.77058 8.63613 9.03092C8.59404 9.28339 8.65605 9.51936 8.82223 9.73789C8.98934 9.94902 9.22184 10.0794 9.51893 10.1288C9.81659 10.1784 10.0764 10.1317 10.2986 9.98914ZM11.5164 6.18088C11.7364 6.0531 11.933 5.92616 12.1069 5.80039C12.2805 5.67458 12.431 5.53855 12.5585 5.39141C12.6854 5.2456 12.7916 5.08303 12.8741 4.90827C12.9566 4.73296 13.017 4.53177 13.0546 4.30522C13.1138 3.94803 13.1024 3.63219 13.0202 3.35675C12.9381 3.0816 12.8002 2.84394 12.6061 2.64332C12.4123 2.44316 12.173 2.27989 11.8881 2.15441C11.6036 2.0286 11.2879 1.93724 10.9424 1.87972C10.5819 1.81972 10.2252 1.80463 9.87298 1.83392C9.52066 1.86271 9.1872 1.93925 8.87238 2.06267L8.59348 3.74089C8.91284 3.54167 9.23895 3.40789 9.57105 3.33932C9.9034 3.27017 10.2145 3.25963 10.5045 3.308C11.5107 3.49982 11.4157 4.4751 10.9151 4.90316C10.6502 5.11283 10.3838 5.31575 10.1678 5.43496C9.67657 5.71218 8.86985 6.51894 9.11116 7.55113L10.5776 7.79497C10.2443 6.96261 11.1243 6.41394 11.5164 6.18088H11.5164Z" fill="black"/>
</svg>
