<svg width="23" height="22" viewBox="0 0 23 22" fill="none" xmlns="http://www.w3.org/2000/svg">
<path d="M17.626 21.8632L12.0368 19.2652C11.6666 19.0931 11.5055 18.6528 11.6778 18.282L15.6328 9.7731C15.8047 9.4026 16.2454 9.24182 16.6154 9.41371L22.2048 12.0122C22.5751 12.1843 22.7359 12.6246 22.5637 12.9949L18.6088 21.5038C18.4364 21.8743 17.9959 22.0351 17.626 21.8632ZM4.13829 20.9348L0.427664 12.3166C0.266039 11.9413 0.439617 11.5056 0.814383 11.3443L2.6517 10.5534L4.9474 19.1804C5.16743 20.0049 6.01404 20.4966 6.83927 20.2768L8.6689 19.79L5.11076 21.3222C4.73543 21.4836 4.30001 21.3102 4.13838 20.9349L4.13829 20.9348ZM5.72688 18.9726L3.31385 9.90482C3.20885 9.51013 3.44416 9.10429 3.83838 8.99957L5.43368 8.57525L5.24159 10.0033C5.12805 10.8487 5.72084 11.6276 6.56745 11.7418L10.3094 12.246L8.78609 17.3773C8.62929 17.9061 8.76874 18.453 9.10793 18.8389L6.63199 19.4975C6.2373 19.6025 5.83188 19.3676 5.72688 18.9726ZM10.8094 18.7495L10.0585 18.5264C9.66663 18.4097 9.44351 17.9983 9.55957 17.6064L12.23 8.61107C12.3465 8.21919 12.7588 7.99607 13.1498 8.11185L15.4501 8.79543L15.4505 8.79519L15.4561 8.79725L15.4499 8.79566C15.2113 8.95309 15.0212 9.17394 14.9012 9.4334L10.9459 17.9426C10.8288 18.1945 10.7816 18.4733 10.8093 18.7497L10.8094 18.7495ZM10.5419 11.4637L6.6754 10.9426C6.27073 10.888 5.98615 10.5151 6.0408 10.1102L7.29377 0.810693C7.34815 0.406021 7.72151 0.121724 8.12534 0.176099L14.2344 0.999364C14.6388 1.05402 14.9231 1.4271 14.8687 1.83149L14.0978 7.55272L13.3792 7.33935C12.5605 7.09574 11.6999 7.5636 11.4572 8.38147L10.5419 11.4637ZM10.2986 9.98905C10.5176 9.84585 10.649 9.6404 10.6933 9.37288C10.7372 9.10883 10.6766 8.87521 10.5121 8.67233C10.3476 8.46543 10.1188 8.33765 9.82512 8.28899C9.52774 8.23944 9.2659 8.28557 9.03996 8.42755C8.81374 8.56958 8.6794 8.77049 8.63613 9.03083C8.59404 9.2833 8.65605 9.51927 8.82223 9.7378C8.98934 9.94893 9.22184 10.0793 9.51893 10.1287C9.81659 10.1783 10.0764 10.1316 10.2986 9.98905ZM11.5164 6.18079C11.7364 6.053 11.933 5.92607 12.1069 5.8003C12.2805 5.67449 12.431 5.53846 12.5585 5.39132C12.6854 5.2455 12.7916 5.08293 12.8741 4.90818C12.9566 4.73286 13.017 4.53168 13.0546 4.30513C13.1138 3.94794 13.1024 3.6321 13.0202 3.35666C12.9381 3.08151 12.8002 2.84385 12.6061 2.64322C12.4123 2.44307 12.173 2.2798 11.8881 2.15432C11.6036 2.0285 11.2879 1.93715 10.9424 1.87963C10.5819 1.81963 10.2252 1.80454 9.87298 1.83383C9.52066 1.86261 9.1872 1.93916 8.87238 2.06258L8.59348 3.7408C8.91284 3.54158 9.23895 3.4078 9.57105 3.33922C9.9034 3.27008 10.2145 3.25954 10.5045 3.30791C11.5107 3.49972 11.4157 4.47501 10.9151 4.90307C10.6502 5.11274 10.3838 5.31566 10.1678 5.43486C9.67657 5.71208 8.86985 6.51885 9.11116 7.55104L10.5776 7.79488C10.2443 6.96252 11.1243 6.41385 11.5164 6.18079H11.5164Z" fill="url(#paint0_linear_240_2743)"/>
<defs>
<linearGradient id="paint0_linear_240_2743" x1="0.367187" y1="-3.82371" x2="24.4015" y2="26.7611" gradientUnits="userSpaceOnUse">
<stop offset="0.325" stop-color="#A27CFE"/>
<stop offset="0.665" stop-color="#71CCFF"/>
</linearGradient>
</defs>
</svg>
