<svg width="32" height="32" viewBox="0 0 32 32" fill="none" xmlns="http://www.w3.org/2000/svg">
<path d="M16.0001 13V4.5C16.0001 3.83696 15.7367 3.20107 15.2678 2.73223C14.799 2.26339 14.1631 2 13.5001 2C12.837 2 12.2011 2.26339 11.7323 2.73223C11.2635 3.20107 11.0001 3.83696 11.0001 4.5V19.6583L8.25913 14.9108C8.09512 14.6262 7.87664 14.3767 7.61616 14.1766C7.35569 13.9764 7.05833 13.8296 6.74107 13.7445C6.42382 13.6593 6.0929 13.6375 5.76722 13.6803C5.44154 13.7231 5.12749 13.8297 4.84302 13.9939C4.55854 14.1582 4.30923 14.3769 4.10932 14.6375C3.9094 14.8982 3.76282 15.1956 3.67793 15.513C3.59305 15.8303 3.57153 16.1612 3.61461 16.4869C3.65769 16.8125 3.76452 17.1265 3.929 17.4108C8.00007 26 10.4772 29 16.0001 29C17.3133 29 18.6136 28.7413 19.8269 28.2388C21.0402 27.7362 22.1425 26.9997 23.0711 26.0711C23.9997 25.1425 24.7363 24.0401 25.2389 22.8268C25.7414 21.6136 26.0001 20.3132 26.0001 19V14C26.0001 13.337 25.7367 12.7011 25.2678 12.2322C24.799 11.7634 24.1631 11.5 23.5001 11.5C22.837 11.5 22.2011 11.7634 21.7323 12.2322C21.2635 12.7011 21.0001 13.337 21.0001 14" stroke="black" stroke-width="2" stroke-linecap="round" stroke-linejoin="round"/>
<path d="M21 14V12.5C21 11.837 20.7366 11.2011 20.2678 10.7322C19.7989 10.2634 19.163 10 18.5 10C17.837 10 17.2011 10.2634 16.7322 10.7322C16.2634 11.2011 16 11.837 16 12.5V13" stroke="black" stroke-width="2" stroke-linecap="round" stroke-linejoin="round"/>
</svg>
