<svg width="25" height="20" viewBox="0 0 25 20" fill="none" xmlns="http://www.w3.org/2000/svg">
<line x1="23.5407" y1="2.84123" x2="0.540628" y2="17.6237" stroke="black" stroke-width="2"/>
<path d="M12 2.72727V0L7 3.63636L12 7.27273V4.54545C16.1375 4.54545 19.5 6.99091 19.5 10C19.5 10.9182 19.1875 11.7909 18.625 12.5455L20.45 13.8727C21.4628 12.7154 22.0005 11.3719 22 10C22 5.98182 17.525 2.72727 12 2.72727ZM12 15.4545C7.8625 15.4545 4.5 13.0091 4.5 10C4.5 9.08182 4.8125 8.20909 5.375 7.45455L3.55 6.12727C2.53719 7.28463 1.99948 8.62813 2 10C2 14.0182 6.475 17.2727 12 17.2727V20L17 16.3636L12 12.7273V15.4545Z" fill="black"/>
</svg>
