<svg width="25" height="24" viewBox="0 0 25 24" fill="none" xmlns="http://www.w3.org/2000/svg">
<path d="M12.3 0C9.92664 0 7.60656 0.703788 5.63317 2.02236C3.65978 3.34094 2.12171 5.21508 1.21346 7.4078C0.30521 9.60051 0.0675701 12.0133 0.530593 14.3411C0.993615 16.6689 2.1365 18.807 3.81473 20.4853C5.49296 22.1635 7.63116 23.3064 9.95893 23.7694C12.2867 24.2324 14.6995 23.9948 16.8922 23.0865C19.0849 22.1783 20.9591 20.6402 22.2776 18.6668C23.5962 16.6934 24.3 14.3734 24.3 12C24.2964 8.81851 23.031 5.76835 20.7813 3.51869C18.5317 1.26904 15.4815 0.0036009 12.3 0ZM14.7759 17.7065C13.9969 18.4854 12.9404 18.9231 11.8388 18.9231C10.7371 18.9231 9.68057 18.4854 8.90158 17.7065C8.81586 17.6207 8.74786 17.519 8.70147 17.407C8.65507 17.295 8.6312 17.1749 8.6312 17.0537C8.6312 16.9325 8.65507 16.8124 8.70147 16.7004C8.74786 16.5884 8.81586 16.4867 8.90158 16.401C9.0747 16.2278 9.3095 16.1306 9.55433 16.1306C9.67556 16.1306 9.7956 16.1544 9.9076 16.2008C10.0196 16.2472 10.1214 16.3152 10.2071 16.401C10.4754 16.6693 10.8058 16.8673 11.169 16.9775C11.5321 17.0876 11.9168 17.1065 12.289 17.0325C12.6612 16.9584 13.0094 16.7938 13.3028 16.553C13.5961 16.3123 13.8256 16.0029 13.9708 15.6523C14.116 15.3017 14.1726 14.9206 14.1354 14.543C14.0982 14.1653 13.9684 13.8026 13.7576 13.4871C13.5467 13.1716 13.2613 12.9129 12.9266 12.734C12.5919 12.5551 12.2183 12.4615 11.8388 12.4615C11.67 12.4615 11.5043 12.4152 11.36 12.3277C11.2156 12.2401 11.0981 12.1146 11.0201 11.9648C10.9421 11.815 10.9067 11.6468 10.9177 11.4783C10.9287 11.3098 10.9857 11.1475 11.0825 11.0092L13.2964 7.84525H9.53045C9.28563 7.84525 9.05084 7.748 8.87773 7.57489C8.70462 7.40178 8.60737 7.16699 8.60737 6.92217C8.60737 6.67736 8.70462 6.44257 8.87773 6.26946C9.05084 6.09635 9.28563 5.9991 9.53045 5.9991H15.0689C15.2378 5.99909 15.4034 6.0454 15.5477 6.13298C15.6921 6.22056 15.8097 6.34606 15.8877 6.49582C15.9656 6.64559 16.0011 6.81387 15.9901 6.98236C15.979 7.15085 15.922 7.31309 15.8252 7.45143L13.4 10.9175C14.0355 11.1755 14.5973 11.5868 15.0352 12.1146C15.4731 12.6425 15.7736 13.2705 15.9098 13.9427C16.0461 14.6149 16.0138 15.3104 15.816 15.9671C15.6181 16.6238 15.2608 17.2214 14.7759 17.7065Z" fill="url(#paint0_linear_77_391)"/>
<defs>
<linearGradient id="paint0_linear_77_391" x1="0.30001" y1="-4.40367" x2="26.9422" y2="28.7339" gradientUnits="userSpaceOnUse">
<stop offset="0.325" stop-color="#A27CFE"/>
<stop offset="0.665" stop-color="#71CCFF"/>
</linearGradient>
</defs>
</svg>
