<svg width="25" height="24" viewBox="0 0 25 24" fill="none" xmlns="http://www.w3.org/2000/svg">
<path d="M12.2998 0C9.92643 0 7.60636 0.703788 5.63297 2.02236C3.65958 3.34094 2.12151 5.21508 1.21326 7.4078C0.305004 9.60051 0.0673641 12.0133 0.530387 14.3411C0.993409 16.6689 2.1363 18.807 3.81453 20.4853C5.49276 22.1635 7.63095 23.3064 9.95872 23.7694C12.2865 24.2324 14.6993 23.9948 16.892 23.0865C19.0847 22.1783 20.9589 20.6402 22.2774 18.6668C23.596 16.6934 24.2998 14.3734 24.2998 12C24.2962 8.81851 23.0308 5.76835 20.7811 3.51869C18.5315 1.26904 15.4813 0.0036009 12.2998 0ZM14.7757 17.7065C13.9967 18.4854 12.9402 18.9231 11.8386 18.9231C10.7369 18.9231 9.68036 18.4854 8.90137 17.7065C8.81565 17.6207 8.74765 17.519 8.70126 17.407C8.65487 17.295 8.63099 17.1749 8.63099 17.0537C8.63099 16.9325 8.65487 16.8124 8.70126 16.7004C8.74765 16.5884 8.81565 16.4867 8.90137 16.401C9.07449 16.2278 9.3093 16.1306 9.55413 16.1306C9.67535 16.1306 9.7954 16.1544 9.9074 16.2008C10.0194 16.2472 10.1212 16.3152 10.2069 16.401C10.4752 16.6693 10.8056 16.8673 11.1688 16.9775C11.5319 17.0876 11.9166 17.1065 12.2888 17.0325C12.661 16.9584 13.0092 16.7938 13.3026 16.553C13.5959 16.3123 13.8254 16.0029 13.9706 15.6523C14.1158 15.3017 14.1723 14.9206 14.1351 14.543C14.0979 14.1653 13.9682 13.8026 13.7573 13.4871C13.5465 13.1716 13.2611 12.9129 12.9264 12.734C12.5917 12.5551 12.2181 12.4615 11.8386 12.4615C11.6698 12.4615 11.5041 12.4152 11.3598 12.3277C11.2154 12.2401 11.0978 12.1146 11.0199 11.9648C10.9419 11.815 10.9065 11.6468 10.9175 11.4783C10.9285 11.3098 10.9855 11.1475 11.0823 11.0092L13.2962 7.84525H9.53024C9.28542 7.84525 9.05064 7.748 8.87753 7.57489C8.70442 7.40178 8.60716 7.16699 8.60716 6.92217C8.60716 6.67736 8.70442 6.44257 8.87753 6.26946C9.05064 6.09635 9.28542 5.9991 9.53024 5.9991H15.0687C15.2376 5.99909 15.4032 6.0454 15.5475 6.13298C15.6919 6.22056 15.8095 6.34606 15.8874 6.49582C15.9654 6.64559 16.0009 6.81387 15.9898 6.98236C15.9788 7.15085 15.9218 7.31309 15.825 7.45143L13.3998 10.9175C14.0353 11.1755 14.5971 11.5868 15.035 12.1146C15.4729 12.6425 15.7734 13.2705 15.9096 13.9427C16.0459 14.6149 16.0136 15.3104 15.8158 15.9671C15.6179 16.6238 15.2606 17.2214 14.7757 17.7065Z" fill="black"/>
</svg>
