<svg width="175" height="151" viewBox="0 0 175 151" fill="none" xmlns="http://www.w3.org/2000/svg">
<path fill-rule="evenodd" clip-rule="evenodd" d="M72.1356 24.1583C79.9775 23.1392 91.2454 30.7401 98.9911 29.1506C111.188 26.6478 121.176 3.85745 130.489 12.1838C140.633 21.2539 126.609 37.9848 133.343 49.8253C139.945 61.4336 157.32 57.1472 162.949 69.259C167.608 79.2836 156.319 90.6668 148.795 98.7145C142.053 105.927 132.189 108.988 122.849 112.153C115.755 114.556 105.87 115.92 99.3358 119.584C90.4694 124.556 89.3629 133.441 79.6352 136.384C70.429 139.169 54.9109 138.95 51.8838 129.775C47.4233 116.253 56.3697 103.603 47.4765 92.4948C36.5426 78.838 26.0343 93.1865 13.1378 81.3796C4.84794 73.7901 13.5173 58.1284 19.6358 48.7216C25.5873 39.5719 36.3915 35.074 46.2605 30.4565C54.4034 26.6466 63.2199 25.3169 72.1356 24.1583Z" fill="#EBE6FF"/>
<g clip-path="url(#clip0_147_5088)">
<path d="M126.929 33.9243L115.305 50.5171L106.786 44.5496L118.41 27.9568C120.057 25.6044 123.3 25.0332 125.653 26.681C128.005 28.3289 128.576 31.5717 126.929 33.9243ZM62.4401 74.1876L102.601 102.321L102.55 102.393C102.768 102.108 102.922 101.763 102.98 101.369L103.051 100.89C104.072 94.0184 106.718 87.3795 110.703 81.69C116.814 72.9663 114.689 60.8974 105.965 54.7862C97.241 48.6752 85.172 50.8008 79.061 59.5246C75.0755 65.2141 69.74 69.9688 63.631 73.2753L63.2046 73.5061C62.8538 73.696 62.5814 73.9593 62.3877 74.2621L62.4401 74.1876ZM70.2858 91.4758L69.007 93.3014C66.4174 96.9981 67.3149 102.094 71.0117 104.684C74.7084 107.273 79.8045 106.376 82.3941 102.679L83.6729 100.853L70.2858 91.4758Z" fill="url(#paint0_linear_147_5088)"/>
<path d="M75.1257 41.124C75.3392 42.3362 74.5295 43.4921 73.3172 43.7056C64.8448 45.1978 59.1658 53.3047 60.658 61.7772C60.8715 62.9895 60.0618 64.1454 58.8496 64.3589C57.6373 64.5724 56.4814 63.7627 56.2679 62.5504C54.3494 51.6572 61.6508 41.2341 72.544 39.3155C73.7563 39.102 74.9122 39.9117 75.1257 41.124ZM74.0904 48.0957C68.0387 49.1616 63.9823 54.9522 65.0481 61.004C65.2617 62.2163 66.4175 63.026 67.6298 62.8125C68.8421 62.599 69.6518 61.4431 69.4383 60.2308C68.7987 56.5998 71.2326 53.1254 74.8636 52.4859C76.0759 52.2723 76.8856 51.1165 76.6721 49.9042C76.4586 48.6919 75.3027 47.8822 74.0904 48.0957ZM129.34 79.1016C128.128 79.3151 127.319 80.471 127.532 81.6832C129.024 90.1557 123.345 98.2626 114.873 99.7548C113.661 99.9683 112.851 101.124 113.064 102.336C113.278 103.549 114.434 104.358 115.646 104.145C126.539 102.226 133.841 91.8032 131.922 80.91C131.709 79.6978 130.553 78.8881 129.34 79.1016ZM114.1 95.3647C120.151 94.2989 124.208 88.5082 123.142 82.4564C122.928 81.2442 121.773 80.4345 120.56 80.648C119.348 80.8615 118.538 82.0174 118.752 83.2296C119.391 86.8607 116.957 90.3351 113.326 90.9746C112.114 91.1881 111.304 92.344 111.518 93.5563C111.731 94.7685 112.887 95.5782 114.1 95.3647ZM115.305 50.5167L106.786 44.5492C104.769 43.1367 101.99 43.6263 100.577 45.6427L96.5661 51.3686C99.8403 51.6497 103.085 52.7688 105.964 54.7861C108.844 56.8034 111.004 59.4702 112.387 62.4513L116.398 56.7254C117.811 54.7089 117.321 51.9293 115.305 50.5167ZM102.601 102.32L100.896 104.754C98.7771 107.779 94.6077 108.513 91.583 106.394L62.3749 85.934C59.3502 83.8152 58.6159 79.6458 60.7346 76.6211L62.4397 74.1871" fill="#A27CFE"/>
</g>
<defs>
<linearGradient id="paint0_linear_147_5088" x1="53.6049" y1="24.3944" x2="149.671" y2="108.533" gradientUnits="userSpaceOnUse">
<stop offset="0.325" stop-color="#A27CFE"/>
<stop offset="0.665" stop-color="#71CCFF"/>
</linearGradient>
<clipPath id="clip0_147_5088">
<rect width="92.0452" height="92.0452" fill="white" transform="translate(51.9639 38.1123) rotate(-9.98866)"/>
</clipPath>
</defs>
</svg>
