<svg width="29" height="25" viewBox="0 0 29 25" fill="none" xmlns="http://www.w3.org/2000/svg">
<path d="M26.8087 3.2388C27.0562 4.19631 27.8039 4.94354 28.7609 5.19109C29.0797 5.27345 29.0797 5.7262 28.7609 5.80857C27.8034 6.05611 27.0562 6.80381 26.8087 7.76085C26.7264 8.07972 26.2736 8.07972 26.1913 7.76085C25.9438 6.80381 25.1961 6.05611 24.2391 5.80857C23.9203 5.7262 23.9203 5.27345 24.2391 5.19109C25.1961 4.94354 25.9438 4.19585 26.1913 3.2388C26.2736 2.9204 26.7264 2.9204 26.8087 3.2388Z" fill="url(#paint0_linear_326_2778)"/>
<path d="M23.6852 0.143281C23.8337 0.717786 24.2823 1.16613 24.8565 1.31465C25.0478 1.36407 25.0478 1.63572 24.8565 1.68514C24.2821 1.83367 23.8337 2.28228 23.6852 2.85651C23.6358 3.04783 23.3642 3.04783 23.3148 2.85651C23.1663 2.28228 22.7177 1.83367 22.1435 1.68514C21.9522 1.63572 21.9522 1.36407 22.1435 1.31465C22.7177 1.16613 23.1663 0.71751 23.3148 0.143281C23.3642 -0.0477604 23.6358 -0.0477604 23.6852 0.143281Z" fill="url(#paint1_linear_326_2778)"/>
<path d="M12.5 25C19.4036 25 25 19.4036 25 12.5C25 5.59644 19.4036 0 12.5 0C5.59644 0 0 5.59644 0 12.5C0 19.4036 5.59644 25 12.5 25Z" fill="url(#paint2_linear_326_2778)"/>
<path d="M12.5 22.3633C17.9473 22.3633 22.3633 17.9473 22.3633 12.5C22.3633 7.05266 17.9473 2.63672 12.5 2.63672C7.05266 2.63672 2.63672 7.05266 2.63672 12.5C2.63672 17.9473 7.05266 22.3633 12.5 22.3633Z" fill="url(#paint3_linear_326_2778)" stroke="white" stroke-width="2.14156"/>
<path d="M6.25 9.375L8.00781 17.7734H16.9922L18.75 9.375L14.6484 12.5L12.5 7.03125L10.3516 12.5L6.25 9.375Z" fill="white"/>
<defs>
<linearGradient id="paint0_linear_326_2778" x1="24" y1="2.08257" x2="29.5505" y2="8.98624" gradientUnits="userSpaceOnUse">
<stop offset="0.325" stop-color="#A27CFE"/>
<stop offset="0.665" stop-color="#71CCFF"/>
</linearGradient>
<linearGradient id="paint1_linear_326_2778" x1="22" y1="-0.550459" x2="25.3303" y2="3.59174" gradientUnits="userSpaceOnUse">
<stop offset="0.325" stop-color="#A27CFE"/>
<stop offset="0.665" stop-color="#71CCFF"/>
</linearGradient>
<linearGradient id="paint2_linear_326_2778" x1="-6.68724e-07" y1="-4.58715" x2="27.7523" y2="29.9312" gradientUnits="userSpaceOnUse">
<stop offset="0.325" stop-color="#A27CFE"/>
<stop offset="0.665" stop-color="#71CCFF"/>
</linearGradient>
<linearGradient id="paint3_linear_326_2778" x1="2.63672" y1="-0.982833" x2="24.535" y2="26.2543" gradientUnits="userSpaceOnUse">
<stop offset="0.325" stop-color="#A27CFE"/>
<stop offset="0.665" stop-color="#71CCFF"/>
</linearGradient>
</defs>
</svg>
