<svg width="24" height="24" viewBox="0 0 24 24" fill="none" xmlns="http://www.w3.org/2000/svg">
<path d="M6 14.25C7.24264 14.25 8.25 13.2426 8.25 12C8.25 10.7574 7.24264 9.75 6 9.75C4.75736 9.75 3.75 10.7574 3.75 12C3.75 13.2426 4.75736 14.25 6 14.25Z" stroke="url(#paint0_linear_153_21896)" stroke-width="1.5" stroke-linecap="round" stroke-linejoin="round"/>
<path d="M18 7.5C19.2426 7.5 20.25 6.49264 20.25 5.25C20.25 4.00736 19.2426 3 18 3C16.7574 3 15.75 4.00736 15.75 5.25C15.75 6.49264 16.7574 7.5 18 7.5Z" stroke="url(#paint1_linear_153_21896)" stroke-width="1.5" stroke-linecap="round" stroke-linejoin="round"/>
<path d="M18 21C19.2426 21 20.25 19.9926 20.25 18.75C20.25 17.5074 19.2426 16.5 18 16.5C16.7574 16.5 15.75 17.5074 15.75 18.75C15.75 19.9926 16.7574 21 18 21Z" stroke="url(#paint2_linear_153_21896)" stroke-width="1.5" stroke-linecap="round" stroke-linejoin="round"/>
<path d="M7.96082 13.103L16.0393 17.6471M16.0393 6.35303L7.96082 10.8971" stroke="url(#paint3_linear_153_21896)" stroke-width="1.5" stroke-linecap="round" stroke-linejoin="round"/>
<defs>
<linearGradient id="paint0_linear_153_21896" x1="3.75" y1="8.92431" x2="8.74541" y2="15.1376" gradientUnits="userSpaceOnUse">
<stop offset="0.325" stop-color="#A27CFE"/>
<stop offset="0.665" stop-color="#71CCFF"/>
</linearGradient>
<linearGradient id="paint1_linear_153_21896" x1="15.75" y1="2.17431" x2="20.7454" y2="8.38761" gradientUnits="userSpaceOnUse">
<stop offset="0.325" stop-color="#A27CFE"/>
<stop offset="0.665" stop-color="#71CCFF"/>
</linearGradient>
<linearGradient id="paint2_linear_153_21896" x1="15.75" y1="15.6743" x2="20.7454" y2="21.8876" gradientUnits="userSpaceOnUse">
<stop offset="0.325" stop-color="#A27CFE"/>
<stop offset="0.665" stop-color="#71CCFF"/>
</linearGradient>
<linearGradient id="paint3_linear_153_21896" x1="7.96082" y1="4.28072" x2="20.7106" y2="15.6238" gradientUnits="userSpaceOnUse">
<stop offset="0.325" stop-color="#A27CFE"/>
<stop offset="0.665" stop-color="#71CCFF"/>
</linearGradient>
</defs>
</svg>
