<svg width="24" height="24" viewBox="0 0 24 24" fill="none" xmlns="http://www.w3.org/2000/svg">
<path d="M21.6492 12.7919C21.4568 12.5729 21.3508 12.2915 21.3508 12C21.3508 11.7086 21.4568 11.4271 21.6492 11.2081L23.185 9.48034C23.3542 9.29157 23.4593 9.05404 23.4852 8.80184C23.511 8.54964 23.4564 8.29573 23.329 8.07653L20.9293 3.9251C20.8032 3.70615 20.6112 3.5326 20.3807 3.42919C20.1501 3.32577 19.8928 3.29777 19.6455 3.34918L17.3898 3.80511C17.1028 3.86442 16.8039 3.81662 16.5498 3.67073C16.2956 3.52485 16.1035 3.29096 16.01 3.01322L15.2781 0.817521C15.1976 0.579208 15.0442 0.372219 14.8397 0.225812C14.6351 0.0794039 14.3898 0.000982422 14.1382 0.00163173H9.33887C9.07723 -0.0120249 8.8183 0.0603354 8.60165 0.207661C8.38499 0.354986 8.22252 0.569177 8.13903 0.817521L7.46712 3.01322C7.37354 3.29096 7.18153 3.52485 6.92733 3.67073C6.67314 3.81662 6.37433 3.86442 6.08731 3.80511L3.77163 3.34918C3.53712 3.31604 3.29805 3.35304 3.08454 3.45553C2.87102 3.55802 2.69262 3.7214 2.57179 3.9251L0.172118 8.07653C0.0415276 8.29328 -0.01719 8.54577 0.00435966 8.7979C0.0259093 9.05003 0.126623 9.2889 0.292101 9.48034L1.81589 11.2081C2.00825 11.4271 2.11433 11.7086 2.11433 12C2.11433 12.2915 2.00825 12.5729 1.81589 12.7919L0.292101 14.5197C0.126623 14.7111 0.0259093 14.95 0.00435966 15.2021C-0.01719 15.4542 0.0415276 15.7067 0.172118 15.9235L2.57179 20.0749C2.69789 20.2938 2.88989 20.4674 3.12042 20.5708C3.35095 20.6742 3.60824 20.7022 3.85562 20.6508L6.11131 20.1949C6.39833 20.1356 6.69713 20.1834 6.95133 20.3293C7.20553 20.4752 7.39754 20.709 7.49112 20.9868L8.22302 23.1825C8.30651 23.4308 8.46898 23.645 8.68564 23.7923C8.90229 23.9397 9.16121 24.012 9.42286 23.9984H14.2222C14.4737 23.999 14.7191 23.9206 14.9237 23.7742C15.1282 23.6278 15.2816 23.4208 15.3621 23.1825L16.094 20.9868C16.1875 20.709 16.3795 20.4752 16.6337 20.3293C16.8879 20.1834 17.1867 20.1356 17.4738 20.1949L19.7295 20.6508C19.9768 20.7022 20.2341 20.6742 20.4647 20.5708C20.6952 20.4674 20.8872 20.2938 21.0133 20.0749L23.413 15.9235C23.5403 15.7043 23.595 15.4504 23.5692 15.1982C23.5433 14.946 23.4382 14.7084 23.269 14.5197L21.6492 12.7919ZM19.8614 14.3997L20.8213 15.4795L19.2855 18.1432L17.8697 17.8552C17.0056 17.6786 16.1066 17.8253 15.3436 18.2677C14.5805 18.7101 14.0064 19.4172 13.7303 20.2549L13.2743 21.5987H10.2028L9.77081 20.2309C9.49467 19.3932 8.92058 18.6861 8.15752 18.2437C7.39445 17.8014 6.49552 17.6546 5.63137 17.8312L4.21557 18.1192L2.65578 15.4675L3.61565 14.3877C4.20591 13.7277 4.53224 12.8734 4.53224 11.988C4.53224 11.1026 4.20591 10.2483 3.61565 9.58833L2.65578 8.50848L4.19157 5.86883L5.60738 6.1568C6.47153 6.33344 7.37045 6.18665 8.13352 5.74429C8.89659 5.30193 9.47068 4.5948 9.74681 3.75712L10.2028 2.40131H13.2743L13.7303 3.76912C14.0064 4.6068 14.5805 5.31393 15.3436 5.75629C16.1066 6.19865 17.0056 6.34544 17.8697 6.16879L19.2855 5.88083L20.8213 8.54447L19.8614 9.62432C19.2778 10.2827 18.9555 11.1321 18.9555 12.012C18.9555 12.8919 19.2778 13.7413 19.8614 14.3997ZM11.7385 7.20065C10.7893 7.20065 9.86142 7.48213 9.07217 8.00949C8.28292 8.53685 7.66778 9.2864 7.30452 10.1634C6.94127 11.0403 6.84623 12.0053 7.03141 12.9363C7.2166 13.8673 7.67369 14.7225 8.34489 15.3937C9.01609 16.0649 9.87126 16.5219 10.8022 16.7071C11.7332 16.8923 12.6982 16.7973 13.5752 16.434C14.4521 16.0708 15.2017 15.4556 15.7291 14.6664C16.2564 13.8771 16.5379 12.9492 16.5379 12C16.5379 10.7271 16.0322 9.5064 15.1322 8.60635C14.2321 7.7063 13.0114 7.20065 11.7385 7.20065ZM11.7385 14.3997C11.2639 14.3997 10.8 14.2589 10.4054 13.9953C10.0107 13.7316 9.70316 13.3568 9.52153 12.9183C9.33991 12.4798 9.29239 11.9973 9.38498 11.5318C9.47757 11.0664 9.70612 10.6388 10.0417 10.3032C10.3773 9.96758 10.8049 9.73903 11.2704 9.64644C11.7359 9.55384 12.2184 9.60137 12.6569 9.78299C13.0953 9.96462 13.4701 10.2722 13.7338 10.6668C13.9975 11.0614 14.1382 11.5254 14.1382 12C14.1382 12.6364 13.8854 13.2468 13.4354 13.6968C12.9853 14.1469 12.375 14.3997 11.7385 14.3997Z" fill="#484C52"/>
</svg>
