<svg width="21" height="20" viewBox="0 0 21 20" fill="none" xmlns="http://www.w3.org/2000/svg">
<path d="M16 15.883V14L21 17L16 20V17.91C14.4714 17.6911 13.0249 17.0826 11.7995 16.143C10.5741 15.2034 9.61107 13.9644 9.003 12.545L9 12.54L8.997 12.546C8.30308 14.1647 7.14947 15.5443 5.67909 16.5138C4.20872 17.4833 2.48621 18 0.725 18H0V16H0.725C2.09498 16 3.43484 15.5979 4.57852 14.8437C5.7222 14.0895 6.61942 13.0162 7.159 11.757L7.912 10L7.159 8.243C6.61942 6.98375 5.7222 5.91052 4.57852 5.1563C3.43484 4.40208 2.09498 4.00004 0.725 4H0V2H0.725C2.48632 2.00008 4.20891 2.51698 5.6793 3.48663C7.14968 4.45628 8.30323 5.83607 8.997 7.455L9 7.46L9.003 7.454C9.61121 6.0348 10.5743 4.79594 11.7997 3.85654C13.0251 2.91714 14.4715 2.3088 16 2.09V0L21 3L16 6V4.117C14.8669 4.32694 13.8031 4.81339 12.9032 5.53315C12.0032 6.25292 11.2949 7.18374 10.841 8.243L10.088 10L10.841 11.757C11.2949 12.8163 12.0032 13.7471 12.9032 14.4668C13.8031 15.1866 14.8669 15.6731 16 15.883Z" fill="black"/>
</svg>
