<svg width="26" height="26" viewBox="0 0 26 26" fill="none" xmlns="http://www.w3.org/2000/svg">
<path d="M15.0312 17.4683L4.0625 17.4683" stroke="black" stroke-linecap="round" stroke-linejoin="round"/>
<path d="M21.9375 17.4683L19.0938 17.4683" stroke="black" stroke-linecap="round" stroke-linejoin="round"/>
<path d="M17.0625 19.4995C18.1843 19.4995 19.0938 18.5901 19.0938 17.4683C19.0938 16.3464 18.1843 15.437 17.0625 15.437C15.9407 15.437 15.0312 16.3464 15.0312 17.4683C15.0312 18.5901 15.9407 19.4995 17.0625 19.4995Z" stroke="black" stroke-linecap="round" stroke-linejoin="round"/>
<path d="M8.53125 8.53084L4.0625 8.53076" stroke="black" stroke-linecap="round" stroke-linejoin="round"/>
<path d="M21.9375 8.53076L12.5938 8.53084" stroke="black" stroke-linecap="round" stroke-linejoin="round"/>
<path d="M10.5625 10.562C11.6843 10.562 12.5938 9.65259 12.5938 8.53076C12.5938 7.40893 11.6843 6.49951 10.5625 6.49951C9.44067 6.49951 8.53125 7.40893 8.53125 8.53076C8.53125 9.65259 9.44067 10.562 10.5625 10.562Z" stroke="black" stroke-linecap="round" stroke-linejoin="round"/>
</svg>
