<svg width="119" height="119" viewBox="0 0 119 119" fill="none" xmlns="http://www.w3.org/2000/svg">
<path d="M48.4428 104C51.86 104 54.6302 101.614 54.6302 98.6715C54.6302 95.7286 51.86 93.3429 48.4428 93.3429C45.0256 93.3429 42.2554 95.7286 42.2554 98.6715C42.2554 101.614 45.0256 104 48.4428 104Z" fill="url(#paint0_linear_74_389)"/>
<path d="M81.9762 24.7836C79.8614 22.3953 77.2304 20.3076 74.2816 18.702C64.1728 13.407 48.9998 12.3063 38.2351 16.8287C35.2494 18.0926 32.5696 19.8822 30.423 22.083C30.0399 22.4574 29.6837 22.8521 29.4468 23.3265C26.9585 28.5977 35.5402 31.9471 38.5047 26.8693C40.2585 23.5839 44.3677 21.4892 48.4972 20.4914C56.0146 18.7034 65.1842 19.5149 71.8027 23.1835C73.9417 24.4282 75.8711 25.9905 77.4245 27.7678C82.8389 33.9566 84.1152 42.3533 82.0344 49.7805C81.127 52.9517 79.4845 56.0233 76.9736 58.4754C76.6591 58.7903 76.2967 59.096 75.9564 59.39C75.7843 59.5243 75.5128 59.7381 75.342 59.8736C75.1632 59.9994 74.8813 60.1995 74.7041 60.3268C72.7093 61.6808 70.4752 62.7778 68.0964 63.5344C65.5043 64.3606 62.7669 64.7904 59.9987 64.8933C56.3876 65.0169 52.8195 64.6289 49.2659 63.8906C49.2657 63.8906 47.8091 63.878 47.8089 63.8779C45.3643 63.8553 43.4137 65.7703 43.7718 67.8564L46.4168 84.2049C46.5376 84.9476 47.2136 85.566 48.1189 85.679C49.2174 85.8162 50.2371 85.1606 50.3965 84.2145C50.3965 84.2145 51.6366 76.851 52.4229 72.1818C55.1907 72.2883 57.9819 72.2287 60.7296 71.9263C67.2169 71.2526 73.5543 69.0557 78.5578 65.4024C83.6784 61.7766 86.799 56.4826 88.1421 50.9636C90.2832 42.016 88.4849 32.1488 81.9762 24.7836Z" fill="url(#paint1_linear_74_389)"/>
<path d="M87.5835 111.772C76.8156 117.564 64.5235 119.894 52.3831 118.444C40.2428 116.994 28.8451 111.834 19.7442 103.67C10.6432 95.505 4.28191 84.732 1.52761 72.8197C-1.22668 60.9073 -0.239921 48.4354 4.35336 37.1043L4.9083 37.3293C0.361301 48.5462 -0.615521 60.8924 2.11103 72.6848C4.83757 84.4771 11.1348 95.1415 20.1441 103.224C29.1533 111.306 40.4362 116.414 52.4542 117.849C64.4722 119.284 76.6404 116.978 87.2998 111.245L87.5835 111.772Z" fill="url(#paint2_linear_74_389)"/>
<path d="M31.2795 7.09066C42.0474 1.29906 54.3396 -1.03055 66.4799 0.419479C78.6202 1.86951 90.0179 7.0286 99.1189 15.1933C108.22 23.358 114.581 34.131 117.335 46.0434C120.09 57.9557 119.103 70.4277 114.51 81.7587L113.955 81.5337C118.502 70.3169 119.479 57.9706 116.752 46.1783C114.025 34.3859 107.728 23.7215 98.719 15.6391C89.7097 7.55659 78.4269 2.44948 66.4089 1.01406C54.3909 -0.421364 42.2226 1.88477 31.5632 7.61802L31.2795 7.09066Z" fill="url(#paint3_linear_74_389)"/>
<path d="M94.5496 70.8119C95.3912 74.0675 97.9332 76.6081 101.187 77.4497C102.271 77.7297 102.271 79.2691 101.187 79.5491C97.9317 80.3908 95.3912 82.9329 94.5496 86.1869C94.2696 87.271 92.7304 87.271 92.4504 86.1869C91.6088 82.9329 89.0668 80.3908 85.813 79.5491C84.729 79.2691 84.729 77.7297 85.813 77.4497C89.0668 76.6081 91.6088 74.0659 92.4504 70.8119C92.7304 69.7294 94.2696 69.7294 94.5496 70.8119Z" fill="url(#paint4_linear_74_389)"/>
<path d="M40.8644 41.6686C41.5575 44.3497 43.6509 46.4419 46.3304 47.135C47.2232 47.3657 47.2232 48.6334 46.3304 48.864C43.6496 49.5571 41.5575 51.6507 40.8644 54.3304C40.6338 55.2232 39.3662 55.2232 39.1356 54.3304C38.4425 51.6507 36.3491 49.5571 33.6696 48.864C32.7768 48.6334 32.7768 47.3657 33.6696 47.135C36.3491 46.4419 38.4425 44.3484 39.1356 41.6686C39.3662 40.7771 40.6338 40.7771 40.8644 41.6686Z" fill="url(#paint5_linear_74_389)"/>
<defs>
<linearGradient id="paint0_linear_74_389" x1="42.2554" y1="91.3875" x2="53.5937" y2="107.763" gradientUnits="userSpaceOnUse">
<stop offset="0.325" stop-color="#A27CFE"/>
<stop offset="0.665" stop-color="#71CCFF"/>
</linearGradient>
<linearGradient id="paint1_linear_74_389" x1="29" y1="0.844558" x2="110.427" y2="85.6" gradientUnits="userSpaceOnUse">
<stop offset="0.325" stop-color="#A27CFE"/>
<stop offset="0.665" stop-color="#71CCFF"/>
</linearGradient>
<linearGradient id="paint2_linear_74_389" x1="-3.17946e-06" y1="-21.8097" x2="131.949" y2="142.308" gradientUnits="userSpaceOnUse">
<stop offset="0.325" stop-color="#A27CFE"/>
<stop offset="0.665" stop-color="#71CCFF"/>
</linearGradient>
<linearGradient id="paint3_linear_74_389" x1="118.863" y1="140.673" x2="-13.0858" y2="-23.4454" gradientUnits="userSpaceOnUse">
<stop offset="0.325" stop-color="#A27CFE"/>
<stop offset="0.665" stop-color="#71CCFF"/>
</linearGradient>
<linearGradient id="paint4_linear_74_389" x1="85" y1="66.8807" x2="103.872" y2="90.3532" gradientUnits="userSpaceOnUse">
<stop offset="0.325" stop-color="#A27CFE"/>
<stop offset="0.665" stop-color="#71CCFF"/>
</linearGradient>
<linearGradient id="paint5_linear_74_389" x1="33" y1="38.4312" x2="48.5413" y2="57.7615" gradientUnits="userSpaceOnUse">
<stop offset="0.325" stop-color="#A27CFE"/>
<stop offset="0.665" stop-color="#71CCFF"/>
</linearGradient>
</defs>
</svg>
