<svg width="49" height="65" viewBox="0 0 49 65" fill="none" xmlns="http://www.w3.org/2000/svg">
<rect x="0.5" width="48" height="65" rx="24" fill="#582FFF" fill-opacity="0.12"/>
<path d="M24.5001 29.5V21C24.5001 20.337 24.2367 19.7011 23.7678 19.2322C23.299 18.7634 22.6631 18.5 22.0001 18.5C21.337 18.5 20.7011 18.7634 20.2323 19.2322C19.7635 19.7011 19.5001 20.337 19.5001 21V36.1583L16.7591 31.4108C16.5951 31.1262 16.3766 30.8767 16.1162 30.6766C15.8557 30.4764 15.5583 30.3296 15.2411 30.2445C14.9238 30.1593 14.5929 30.1375 14.2672 30.1803C13.9415 30.2231 13.6275 30.3297 13.343 30.4939C13.0585 30.6582 12.8092 30.8769 12.6093 31.1375C12.4094 31.3982 12.2628 31.6956 12.1779 32.013C12.093 32.3303 12.0715 32.6612 12.1146 32.9869C12.1577 33.3125 12.2645 33.6265 12.429 33.9108C16.5001 42.5 18.9772 45.5 24.5001 45.5C25.8133 45.5 27.1136 45.2413 28.3269 44.7388C29.5402 44.2362 30.6425 43.4997 31.5711 42.5711C32.4997 41.6425 33.2363 40.5401 33.7389 39.3268C34.2414 38.1136 34.5001 36.8132 34.5001 35.5V30.5C34.5001 29.837 34.2367 29.2011 33.7678 28.7322C33.299 28.2634 32.6631 28 32.0001 28C31.337 28 30.7011 28.2634 30.2323 28.7322C29.7635 29.2011 29.5001 29.837 29.5001 30.5" stroke="#582FFF" stroke-width="2" stroke-linecap="round" stroke-linejoin="round"/>
<path d="M29.5 30.5V29C29.5 28.337 29.2366 27.7011 28.7678 27.2322C28.2989 26.7634 27.663 26.5 27 26.5C26.337 26.5 25.7011 26.7634 25.2322 27.2322C24.7634 27.7011 24.5 28.337 24.5 29V29.5" stroke="#582FFF" stroke-width="2" stroke-linecap="round" stroke-linejoin="round"/>
</svg>
