<svg width="25" height="24" viewBox="0 0 25 24" fill="none" xmlns="http://www.w3.org/2000/svg">
<path d="M22.4635 19.2294C28.4632 11.53 22.6635 -0.123038 12.898 0.00195172C3.18448 -0.174034 -2.68423 11.591 3.33947 19.2354C2.83291 19.4828 2.4244 19.8935 2.17975 20.4014C1.93511 20.9093 1.86858 21.4848 1.99089 22.0351C2.11319 22.5854 2.41721 23.0785 2.85396 23.4349C3.29071 23.7914 3.83474 23.9904 4.39842 24H21.3976C21.9625 23.9918 22.5082 23.7935 22.9465 23.437C23.3849 23.0806 23.6903 22.5868 23.8135 22.0354C23.9367 21.484 23.8705 20.9072 23.6255 20.3981C23.3806 19.889 22.9712 19.4772 22.4635 19.2294ZM21.3976 22.0002H4.39842C4.26581 21.9931 4.14143 21.9337 4.05264 21.835C3.96385 21.7363 3.91791 21.6063 3.92494 21.4737C3.93197 21.3411 3.99138 21.2167 4.09012 21.1279C4.18885 21.0392 4.31881 20.9932 4.45141 21.0002C4.76357 21.008 5.06991 20.9149 5.32497 20.7348C5.58004 20.5546 5.77023 20.2971 5.86734 20.0003C6.02933 19.3624 5.64335 18.9004 5.19537 18.3675C-0.201352 12.018 4.56741 1.9018 12.898 2.00179C21.2546 1.9078 26.0183 12.046 20.5596 18.4115C20.1506 18.8984 19.7646 19.3584 19.9286 19.9943C20.0303 20.2992 20.2289 20.5625 20.4941 20.7441C20.7592 20.9257 21.0765 21.0157 21.3976 21.0002C21.5302 21.0002 21.6573 21.0529 21.7511 21.1467C21.8449 21.2404 21.8975 21.3676 21.8975 21.5002C21.8975 21.6328 21.8449 21.76 21.7511 21.8537C21.6573 21.9475 21.5302 22.0002 21.3976 22.0002ZM12.898 4.00163C10.7771 4.00401 8.74375 4.84756 7.24405 6.34721C5.74435 7.84687 4.90077 9.88015 4.89839 12.001C5.27437 22.5881 20.5236 22.5851 20.8976 12.001C20.8952 9.88015 20.0516 7.84687 18.5519 6.34721C17.0522 4.84756 15.0189 4.00401 12.898 4.00163ZM12.064 13.0869C12.0429 12.8118 11.9947 12.5395 11.92 12.274C11.8449 12.0102 11.7445 11.7544 11.6201 11.51C12.1028 11.3203 12.5388 11.0283 12.898 10.6541C13.0739 10.8374 13.2686 11.0016 13.479 11.144C13.698 11.2917 13.9327 11.4144 14.1789 11.51C13.9293 12.0015 13.7792 12.5373 13.7369 13.0869C13.1852 12.9722 12.6158 12.9722 12.064 13.0869ZM18.0177 8.87523L16.5918 9.44618L16.0918 9.64617C15.8494 9.74311 15.5868 9.77923 15.3272 9.75138C15.0676 9.72353 14.8187 9.63255 14.6023 9.48639C14.3859 9.34023 14.2086 9.14333 14.0858 8.91287C13.963 8.68241 13.8985 8.42541 13.8979 8.16429V6.08546C14.7439 6.22971 15.5492 6.55329 16.2598 7.03447C16.9704 7.51565 17.5698 8.14328 18.0177 8.87523ZM11.898 6.08546V8.16429C11.8973 8.42499 11.833 8.68158 11.7105 8.91172C11.588 9.14186 11.4111 9.33858 11.1952 9.48476C10.9793 9.63094 10.731 9.72215 10.4718 9.75046C10.2127 9.77876 9.95049 9.7433 9.70815 9.64717L7.77824 8.87523C8.22622 8.14328 8.82561 7.51565 9.53619 7.03447C10.2468 6.55329 11.0521 6.22971 11.898 6.08546ZM6.89829 12.001C6.89828 11.5744 6.94353 11.1491 7.03328 10.7321L8.7332 11.413C9.03627 11.5339 9.30748 11.723 9.52585 11.9654C9.74421 12.2079 9.90388 12.4973 9.99252 12.8114C10.0812 13.1254 10.0964 13.4556 10.037 13.7765C9.97764 14.0973 9.84528 14.4002 9.65015 14.6618L8.55021 16.1306C7.48885 15.0178 6.89721 13.5388 6.89829 12.001ZM10.1491 17.3325L11.2981 15.8007C11.4911 15.5624 11.7349 15.3702 12.0117 15.2382C12.2885 15.1062 12.5913 15.0377 12.898 15.0377C13.2047 15.0377 13.5075 15.1062 13.7843 15.2382C14.0611 15.3702 14.3049 15.5624 14.4979 15.8007L15.6458 17.3325C14.7949 17.7671 13.853 17.9937 12.8975 17.9937C11.942 17.9937 11.0001 17.7671 10.1491 17.3325ZM17.2488 16.1326L16.1488 14.6688C15.9526 14.4072 15.8193 14.1041 15.7592 13.7827C15.6991 13.4614 15.7138 13.1305 15.8022 12.8157C15.8905 12.501 16.0502 12.2108 16.2688 11.9677C16.4875 11.7247 16.7591 11.5352 17.0628 11.414L18.7627 10.7331C18.9662 11.6885 18.9345 12.6791 18.6703 13.6195C18.406 14.5599 17.9172 15.4221 17.2458 16.1316L17.2488 16.1326Z" fill="url(#paint0_linear_72_277)"/>
<defs>
<linearGradient id="paint0_linear_72_277" x1="0.899993" y1="-4.40367" x2="27.5422" y2="28.7339" gradientUnits="userSpaceOnUse">
<stop offset="0.325" stop-color="#A27CFE"/>
<stop offset="0.665" stop-color="#71CCFF"/>
</linearGradient>
</defs>
</svg>
