<svg width="25" height="24" viewBox="0 0 25 24" fill="none" xmlns="http://www.w3.org/2000/svg">
<path d="M22.4635 19.2294C28.4632 11.53 22.6635 -0.123038 12.898 0.00195172C3.18451 -0.174034 -2.6842 11.591 3.3395 19.2354C2.83294 19.4828 2.42443 19.8935 2.17978 20.4014C1.93514 20.9093 1.86861 21.4848 1.99092 22.0351C2.11322 22.5854 2.41724 23.0785 2.85399 23.4349C3.29074 23.7914 3.83478 23.9904 4.39845 24H21.3976C21.9625 23.9918 22.5082 23.7935 22.9466 23.437C23.3849 23.0806 23.6903 22.5868 23.8135 22.0354C23.9367 21.484 23.8705 20.9072 23.6256 20.3981C23.3806 19.889 22.9713 19.4772 22.4635 19.2294ZM21.3976 22.0002H4.39845C4.26584 21.9931 4.14147 21.9337 4.05267 21.835C3.96388 21.7363 3.91794 21.6063 3.92497 21.4737C3.932 21.3411 3.99141 21.2167 4.09015 21.1279C4.18888 21.0392 4.31884 20.9932 4.45144 21.0002C4.7636 21.008 5.06994 20.9149 5.325 20.7348C5.58007 20.5546 5.77026 20.2971 5.86737 20.0003C6.02936 19.3624 5.64338 18.9004 5.19541 18.3675C-0.201322 12.018 4.56744 1.9018 12.898 2.00179C21.2546 1.9078 26.0184 12.046 20.5596 18.4115C20.1507 18.8984 19.7647 19.3584 19.9287 19.9943C20.0303 20.2992 20.2289 20.5625 20.4941 20.7441C20.7593 20.9257 21.0765 21.0157 21.3976 21.0002C21.5302 21.0002 21.6574 21.0529 21.7511 21.1467C21.8449 21.2404 21.8976 21.3676 21.8976 21.5002C21.8976 21.6328 21.8449 21.76 21.7511 21.8537C21.6574 21.9475 21.5302 22.0002 21.3976 22.0002ZM12.898 4.00163C10.7771 4.00401 8.74378 4.84756 7.24408 6.34721C5.74438 7.84687 4.9008 9.88015 4.89842 12.001C5.2744 22.5881 20.5236 22.5851 20.8976 12.001C20.8952 9.88015 20.0517 7.84687 18.552 6.34721C17.0523 4.84756 15.0189 4.00401 12.898 4.00163ZM12.0641 13.0869C12.0429 12.8118 11.9947 12.5395 11.9201 12.274C11.845 12.0102 11.7445 11.7544 11.6201 11.51C12.1028 11.3203 12.5388 11.0283 12.898 10.6541C13.0739 10.8374 13.2686 11.0016 13.479 11.144C13.698 11.2917 13.9328 11.4144 14.179 11.51C13.9294 12.0015 13.7792 12.5373 13.737 13.0869C13.1852 12.9722 12.6158 12.9722 12.0641 13.0869ZM18.0178 8.87523L16.5918 9.44618L16.0919 9.64617C15.8494 9.74311 15.5869 9.77923 15.3272 9.75138C15.0676 9.72353 14.8187 9.63255 14.6023 9.48639C14.3859 9.34023 14.2086 9.14333 14.0858 8.91287C13.9631 8.68241 13.8986 8.42541 13.898 8.16429V6.08546C14.7439 6.22971 15.5492 6.55329 16.2598 7.03447C16.9704 7.51565 17.5698 8.14328 18.0178 8.87523ZM11.8981 6.08546V8.16429C11.8974 8.42499 11.833 8.68158 11.7105 8.91172C11.588 9.14186 11.4111 9.33858 11.1952 9.48476C10.9794 9.63094 10.731 9.72215 10.4719 9.75046C10.2127 9.77876 9.95052 9.7433 9.70818 9.64717L7.77828 8.87523C8.22625 8.14328 8.82565 7.51565 9.53622 7.03447C10.2468 6.55329 11.0521 6.22971 11.8981 6.08546ZM6.89832 12.001C6.89831 11.5744 6.94356 11.1491 7.03331 10.7321L8.73323 11.413C9.0363 11.5339 9.30751 11.723 9.52588 11.9654C9.74424 12.2079 9.90391 12.4973 9.99255 12.8114C10.0812 13.1254 10.0964 13.4556 10.037 13.7765C9.97768 14.0973 9.84531 14.4002 9.65018 14.6618L8.55024 16.1306C7.48888 15.0178 6.89724 13.5388 6.89832 12.001ZM10.1492 17.3325L11.2981 15.8007C11.4911 15.5624 11.7349 15.3702 12.0117 15.2382C12.2885 15.1062 12.5913 15.0377 12.898 15.0377C13.2047 15.0377 13.5075 15.1062 13.7843 15.2382C14.0611 15.3702 14.3049 15.5624 14.4979 15.8007L15.6459 17.3325C14.7949 17.7671 13.853 17.9937 12.8975 17.9937C11.942 17.9937 11.0001 17.7671 10.1492 17.3325ZM17.2488 16.1326L16.1489 14.6688C15.9527 14.4072 15.8193 14.1041 15.7592 13.7827C15.6991 13.4614 15.7138 13.1305 15.8022 12.8157C15.8906 12.501 16.0503 12.2108 16.2689 11.9677C16.4875 11.7247 16.7592 11.5352 17.0628 11.414L18.7627 10.7331C18.9663 11.6885 18.9346 12.6791 18.6703 13.6195C18.4061 14.5599 17.9172 15.4221 17.2458 16.1316L17.2488 16.1326Z" fill="black"/>
</svg>
